%TF.GenerationSoftware,KiCad,Pcbnew,9.0.7*%
%TF.CreationDate,2026-02-26T21:49:05+01:00*%
%TF.ProjectId,Expansion_Card,45787061-6e73-4696-9f6e-5f436172642e,X1*%
%TF.SameCoordinates,Original*%
%TF.FileFunction,Paste,Top*%
%TF.FilePolarity,Positive*%
%FSLAX46Y46*%
G04 Gerber Fmt 4.6, Leading zero omitted, Abs format (unit mm)*
G04 Created by KiCad (PCBNEW 9.0.7) date 2026-02-26 21:49:05*
%MOMM*%
%LPD*%
G01*
G04 APERTURE LIST*
G04 Aperture macros list*
%AMRoundRect*
0 Rectangle with rounded corners*
0 $1 Rounding radius*
0 $2 $3 $4 $5 $6 $7 $8 $9 X,Y pos of 4 corners*
0 Add a 4 corners polygon primitive as box body*
4,1,4,$2,$3,$4,$5,$6,$7,$8,$9,$2,$3,0*
0 Add four circle primitives for the rounded corners*
1,1,$1+$1,$2,$3*
1,1,$1+$1,$4,$5*
1,1,$1+$1,$6,$7*
1,1,$1+$1,$8,$9*
0 Add four rect primitives between the rounded corners*
20,1,$1+$1,$2,$3,$4,$5,0*
20,1,$1+$1,$4,$5,$6,$7,0*
20,1,$1+$1,$6,$7,$8,$9,0*
20,1,$1+$1,$8,$9,$2,$3,0*%
G04 Aperture macros list end*
%ADD10R,1.150000X1.700000*%
%ADD11R,0.380000X1.000000*%
%ADD12R,0.700000X1.150000*%
%ADD13RoundRect,0.140000X-0.140000X-0.170000X0.140000X-0.170000X0.140000X0.170000X-0.140000X0.170000X0*%
%ADD14RoundRect,0.075000X-0.175000X-0.175000X0.175000X-0.175000X0.175000X0.175000X-0.175000X0.175000X0*%
%ADD15RoundRect,0.096750X-0.665250X-0.225750X0.665250X-0.225750X0.665250X0.225750X-0.665250X0.225750X0*%
%ADD16RoundRect,0.100000X-0.100000X0.850000X-0.100000X-0.850000X0.100000X-0.850000X0.100000X0.850000X0*%
%ADD17RoundRect,0.062500X-0.062500X-0.375000X0.062500X-0.375000X0.062500X0.375000X-0.062500X0.375000X0*%
%ADD18RoundRect,0.062500X-0.375000X-0.062500X0.375000X-0.062500X0.375000X0.062500X-0.375000X0.062500X0*%
%ADD19RoundRect,0.172500X-0.172500X-0.172500X0.172500X-0.172500X0.172500X0.172500X-0.172500X0.172500X0*%
%ADD20R,1.000000X0.600000*%
%ADD21R,0.350000X0.650000*%
%ADD22RoundRect,0.150000X-0.150000X-0.200000X0.150000X-0.200000X0.150000X0.200000X-0.150000X0.200000X0*%
%ADD23RoundRect,0.140000X-0.170000X0.140000X-0.170000X-0.140000X0.170000X-0.140000X0.170000X0.140000X0*%
%ADD24RoundRect,0.140000X0.170000X-0.140000X0.170000X0.140000X-0.170000X0.140000X-0.170000X-0.140000X0*%
G04 APERTURE END LIST*
D10*
%TO.C,J1*%
X148250000Y-145600000D03*
X140800000Y-145600000D03*
%TD*%
%TO.C,J2*%
X138950000Y-145600000D03*
X131500000Y-145600000D03*
%TD*%
D11*
%TO.C,P1*%
X137250000Y-129040000D03*
X137750000Y-129040000D03*
X138250000Y-129040000D03*
X138750000Y-129040000D03*
X139250000Y-129040000D03*
X139750000Y-129040000D03*
X140250000Y-129040000D03*
X140750000Y-129040000D03*
X141250000Y-129040000D03*
X141750000Y-129040000D03*
X142250000Y-129040000D03*
X142750000Y-129040000D03*
D12*
X136580000Y-129880000D03*
%TD*%
D13*
%TO.C,C1*%
X129520000Y-133400000D03*
X130480000Y-133400000D03*
%TD*%
D14*
%TO.C,JP3*%
X149250000Y-132950000D03*
X149950000Y-132950000D03*
X150650000Y-132950000D03*
%TD*%
D15*
%TO.C,P2*%
X132939000Y-140796500D03*
X135225000Y-140796500D03*
X137511000Y-140796500D03*
%TD*%
%TO.C,P3*%
X146811000Y-140796500D03*
X144525000Y-140796500D03*
X142239000Y-140796500D03*
%TD*%
D16*
%TO.C,U2*%
X144225000Y-131900000D03*
X143575000Y-131900000D03*
X142925000Y-131900000D03*
X142275000Y-131900000D03*
X141625000Y-131900000D03*
X140975000Y-131900000D03*
X140325000Y-131900000D03*
X139675000Y-131900000D03*
X139025000Y-131900000D03*
X138375000Y-131900000D03*
X137725000Y-131900000D03*
X137075000Y-131900000D03*
X136425000Y-131900000D03*
X135775000Y-131900000D03*
X135775000Y-138900000D03*
X136425000Y-138900000D03*
X137075000Y-138900000D03*
X137725000Y-138900000D03*
X138375000Y-138900000D03*
X139025000Y-138900000D03*
X139675000Y-138900000D03*
X140325000Y-138900000D03*
X140975000Y-138900000D03*
X141625000Y-138900000D03*
X142275000Y-138900000D03*
X142925000Y-138900000D03*
X143575000Y-138900000D03*
X144225000Y-138900000D03*
%TD*%
D17*
%TO.C,U3*%
X148150000Y-135162500D03*
X148650000Y-135162500D03*
X149150000Y-135162500D03*
X149650000Y-135162500D03*
D18*
X150337500Y-135850000D03*
X150337500Y-136350000D03*
X150337500Y-136850000D03*
X150337500Y-137350000D03*
D17*
X149650000Y-138037500D03*
X149150000Y-138037500D03*
X148650000Y-138037500D03*
X148150000Y-138037500D03*
D18*
X147462500Y-137350000D03*
X147462500Y-136850000D03*
X147462500Y-136350000D03*
X147462500Y-135850000D03*
D19*
X149300000Y-137000000D03*
X149300000Y-136200000D03*
X148500000Y-137000000D03*
X148500000Y-136200000D03*
%TD*%
D20*
%TO.C,U4*%
X129900000Y-136387500D03*
X131100000Y-136387500D03*
X129900000Y-135612500D03*
X131100000Y-135612500D03*
D21*
X129525000Y-137550000D03*
X130175000Y-137550000D03*
X130825000Y-137550000D03*
X131475000Y-137550000D03*
X131475000Y-134450000D03*
X130825000Y-134450000D03*
X130175000Y-134450000D03*
X129525000Y-134450000D03*
%TD*%
D22*
%TO.C,D1*%
X131000000Y-139800000D03*
X129600000Y-139800000D03*
%TD*%
D23*
%TO.C,C13*%
X146100000Y-135980000D03*
X146100000Y-135020000D03*
%TD*%
D24*
%TO.C,C12*%
X146100000Y-137220000D03*
X146100000Y-138180000D03*
%TD*%
D13*
%TO.C,C2*%
X129520000Y-138600000D03*
X130480000Y-138600000D03*
%TD*%
M02*
