M48
; DRILL file {KiCad 9.0.7} date 2026-02-26T21:49:03+0100
; FORMAT={-:-/ absolute / metric / decimal}
; #@! TF.CreationDate,2026-02-26T21:49:03+01:00
; #@! TF.GenerationSoftware,Kicad,Pcbnew,9.0.7
; #@! TF.FileFunction,Plated,1,6,PTH
FMAT,2
METRIC
; #@! TA.AperFunction,Plated,PTH,ViaDrill
T1C0.300
; #@! TA.AperFunction,Plated,PTH,ComponentDrill
T2C0.300
; #@! TA.AperFunction,Plated,PTH,ComponentDrill
T3C0.500
%
G90
G05
T1
X127.75Y-131.0
X127.75Y-131.75
X127.75Y-132.5
X127.75Y-133.25
X127.75Y-134.0
X127.75Y-134.75
X127.75Y-135.5
X127.75Y-136.25
X127.75Y-137.0
X127.75Y-137.75
X127.75Y-138.5
X127.75Y-139.25
X127.75Y-140.0
X127.75Y-140.75
X127.75Y-141.5
X127.75Y-142.25
X127.75Y-143.0
X127.75Y-143.75
X127.75Y-144.5
X127.75Y-148.25
X127.75Y-149.0
X127.75Y-149.75
X127.75Y-150.5
X127.75Y-151.25
X127.75Y-152.0
X127.75Y-152.75
X127.75Y-153.5
X127.75Y-154.25
X127.75Y-155.0
X127.75Y-155.75
X127.75Y-156.5
X128.75Y-128.0
X128.75Y-128.75
X128.75Y-129.5
X128.75Y-130.25
X128.75Y-131.0
X129.5Y-127.75
X129.52Y-133.4
X129.52Y-134.445
X129.525Y-138.595
X129.6Y-139.8
X130.25Y-127.75
X130.48Y-133.4
X130.48Y-138.6
X130.481Y-135.855
X131.0Y-127.75
X131.0Y-139.8
X131.475Y-137.55
X131.531Y-138.6
X131.55Y-133.425
X131.7Y-135.28
X131.75Y-127.75
X132.439Y-140.139
X132.5Y-127.75
X132.7Y-134.29
X132.7Y-137.18
X133.25Y-127.75
X133.7Y-134.29
X133.7Y-137.18
X133.9Y-139.9
X134.0Y-127.75
X134.7Y-135.28
X134.75Y-127.75
X135.225Y-140.886
X135.775Y-131.9
X135.775Y-138.9
X135.8Y-133.38
X136.425Y-131.9
X136.425Y-138.9
X136.58Y-129.88
X137.075Y-131.9
X137.075Y-138.9
X137.1Y-137.42
X137.4Y-135.88
X138.3Y-137.42
X138.375Y-131.9
X138.375Y-138.9
X138.4Y-133.38
X138.425Y-130.15
X138.825Y-136.1
X139.0Y-145.7
X139.075Y-140.7
X139.175Y-137.35
X139.2Y-130.2
X139.675Y-131.9
X139.7Y-133.38
X140.0Y-130.25
X140.225Y-137.35
X140.325Y-131.5
X140.575Y-134.7
X140.766Y-130.495
X140.905Y-140.805
X140.975Y-131.525
X140.975Y-138.9
X141.1Y-137.42
X141.625Y-131.5
X142.0Y-134.92
X142.45Y-130.125
X142.7Y-133.38
X142.925Y-131.9
X142.925Y-138.9
X143.275Y-140.252
X143.4Y-129.875
X143.575Y-138.9
X143.7Y-133.41
X143.7Y-134.41
X144.225Y-138.9
X144.525Y-140.886
X144.7Y-133.4
X144.7Y-134.41
X145.25Y-127.75
X146.0Y-127.75
X146.1Y-135.0
X146.1Y-138.18
X146.475Y-131.7
X146.75Y-127.75
X147.5Y-127.75
X147.5Y-135.05
X147.998Y-140.894
X148.12Y-133.95
X148.15Y-139.375
X148.25Y-127.75
X148.25Y-145.7
X148.475Y-131.7
X148.5Y-129.7
X148.7Y-140.875
X148.7Y-141.775
X149.0Y-127.75
X149.08Y-133.95
X149.25Y-132.95
X149.4Y-140.875
X149.4Y-141.775
X149.7Y-138.037
X149.7Y-139.3
X149.75Y-134.541
X149.75Y-127.75
X150.4Y-134.02
X150.4Y-134.98
X150.5Y-127.75
X150.65Y-132.95
X150.65Y-140.875
X150.65Y-141.775
X151.1Y-136.35
X151.1Y-137.35
X151.25Y-128.0
X151.25Y-128.75
X151.25Y-129.5
X151.25Y-130.25
X151.25Y-131.0
X152.25Y-131.0
X152.25Y-131.75
X152.25Y-132.5
X152.25Y-133.25
X152.25Y-134.0
X152.25Y-134.75
X152.25Y-135.5
X152.25Y-136.25
X152.25Y-137.0
X152.25Y-137.75
X152.25Y-138.5
X152.25Y-139.25
X152.25Y-140.0
X152.25Y-140.75
X152.25Y-141.5
X152.25Y-142.25
X152.25Y-143.0
X152.25Y-143.75
X152.25Y-144.5
X152.25Y-148.25
X152.25Y-149.0
X152.25Y-149.75
X152.25Y-150.5
X152.25Y-151.25
X152.25Y-152.0
X152.25Y-152.75
X152.25Y-153.5
X152.25Y-154.25
X152.25Y-155.0
X152.25Y-155.75
X152.25Y-156.5
T2
X148.35Y-136.05
X148.35Y-137.15
X149.45Y-136.05
X149.45Y-137.15
T3
G00X131.425Y-151.95
M15
G01X131.425Y-150.65
M16
G05
G00X131.425Y-155.2
M15
G01X131.425Y-153.9
M16
G05
G00X139.025Y-155.2
M15
G01X139.025Y-153.9
M16
G05
G00X140.725Y-151.95
M15
G01X140.725Y-150.65
M16
G05
G00X140.725Y-155.2
M15
G01X140.725Y-153.9
M16
G05
G00X148.325Y-155.2
M15
G01X148.325Y-153.9
M16
G05
M30
