%TF.GenerationSoftware,KiCad,Pcbnew,9.0.7*%
%TF.CreationDate,2026-02-26T21:49:05+01:00*%
%TF.ProjectId,Expansion_Card,45787061-6e73-4696-9f6e-5f436172642e,X1*%
%TF.SameCoordinates,Original*%
%TF.FileFunction,Copper,L2,Inr*%
%TF.FilePolarity,Positive*%
%FSLAX46Y46*%
G04 Gerber Fmt 4.6, Leading zero omitted, Abs format (unit mm)*
G04 Created by KiCad (PCBNEW 9.0.7) date 2026-02-26 21:49:05*
%MOMM*%
%LPD*%
G01*
G04 APERTURE LIST*
%TA.AperFunction,ComponentPad*%
%ADD10O,1.150000X2.300000*%
%TD*%
%TA.AperFunction,HeatsinkPad*%
%ADD11C,0.500000*%
%TD*%
%TA.AperFunction,ViaPad*%
%ADD12C,0.450000*%
%TD*%
G04 APERTURE END LIST*
D10*
%TO.N,GND*%
%TO.C,J1*%
X140725000Y-154550000D03*
%TO.N,Net-(U3-OUTR)*%
X140725000Y-151300000D03*
%TO.N,GND*%
X148325000Y-154550000D03*
%TD*%
%TO.N,GND*%
%TO.C,J2*%
X131425000Y-154550000D03*
%TO.N,Net-(C19-Pad1)*%
X131425000Y-151300000D03*
%TO.N,GND*%
X139025000Y-154550000D03*
%TD*%
D11*
%TO.N,GND*%
%TO.C,U3*%
X149450000Y-137150000D03*
X149450000Y-136050000D03*
X148350000Y-137150000D03*
X148350000Y-136050000D03*
%TD*%
D12*
%TO.N,GND*%
X136580000Y-129880000D03*
X130481000Y-135855000D03*
%TO.N,Net-(U4-FB)*%
X131531000Y-138600000D03*
%TO.N,GND*%
X148250000Y-127750000D03*
X151250000Y-128000000D03*
X152250000Y-143000000D03*
X149750000Y-127750000D03*
X150500000Y-127750000D03*
X151250000Y-129500000D03*
X152250000Y-150500000D03*
X152250000Y-149000000D03*
X152250000Y-131000000D03*
X152250000Y-134750000D03*
X151250000Y-130250000D03*
X152250000Y-138500000D03*
X151250000Y-128750000D03*
X152250000Y-140750000D03*
X152250000Y-136250000D03*
X152250000Y-140000000D03*
X152250000Y-137000000D03*
X152250000Y-132500000D03*
X152250000Y-137750000D03*
X152250000Y-144500000D03*
X152250000Y-143750000D03*
X152250000Y-141500000D03*
X152250000Y-133250000D03*
X152250000Y-134000000D03*
X152250000Y-142250000D03*
X152250000Y-139250000D03*
X152250000Y-148250000D03*
X152250000Y-149750000D03*
X152250000Y-151250000D03*
X149000000Y-127750000D03*
X151250000Y-131000000D03*
X152250000Y-135500000D03*
X152250000Y-131750000D03*
X145250000Y-127750000D03*
X146000000Y-127750000D03*
X146750000Y-127750000D03*
X147500000Y-127750000D03*
X152250000Y-153500000D03*
X152250000Y-154250000D03*
X152250000Y-152000000D03*
X152250000Y-152750000D03*
X152250000Y-155000000D03*
X152250000Y-155750000D03*
X152250000Y-156500000D03*
X134750000Y-127750000D03*
X134000000Y-127750000D03*
X133250000Y-127750000D03*
X132500000Y-127750000D03*
X131750000Y-127750000D03*
X131000000Y-127750000D03*
X130250000Y-127750000D03*
X129500000Y-127750000D03*
X128750000Y-128000000D03*
X128750000Y-128750000D03*
X128750000Y-129500000D03*
X128750000Y-130250000D03*
X128750000Y-131000000D03*
X127750000Y-131000000D03*
X127750000Y-131750000D03*
X127750000Y-132500000D03*
X127750000Y-133250000D03*
X127750000Y-134000000D03*
X127750000Y-134750000D03*
X127750000Y-135500000D03*
X127750000Y-136250000D03*
X127750000Y-137000000D03*
X127750000Y-137750000D03*
X127750000Y-138500000D03*
X127750000Y-139250000D03*
X127750000Y-140000000D03*
X127750000Y-140750000D03*
X127750000Y-141500000D03*
X127750000Y-142250000D03*
X127750000Y-143000000D03*
X127750000Y-143750000D03*
X127750000Y-144500000D03*
X127750000Y-148250000D03*
X127750000Y-149000000D03*
X127750000Y-149750000D03*
X127750000Y-150500000D03*
X127750000Y-151250000D03*
X127750000Y-152000000D03*
X127750000Y-152750000D03*
X127750000Y-153500000D03*
X127750000Y-154250000D03*
X127750000Y-155000000D03*
X127750000Y-155750000D03*
X127750000Y-156500000D03*
X148120000Y-133950000D03*
%TO.N,Net-(P2-OUT)*%
X133900000Y-139900000D03*
%TO.N,GND*%
X140904981Y-140804890D03*
X147998000Y-140894113D03*
%TO.N,VCC*%
X132439000Y-140139000D03*
X139075000Y-140700000D03*
%TO.N,Net-(P3-IN)*%
X143275000Y-140252000D03*
%TO.N,Net-(U2-HID2)*%
X148500000Y-129700000D03*
%TO.N,Net-(U2-HID1)*%
X148475000Y-131700000D03*
%TO.N,Net-(U2-HID0)*%
X146475000Y-131700000D03*
%TO.N,/USB_DP*%
X144700000Y-134410000D03*
%TO.N,/USB_DN*%
X143700000Y-134410000D03*
%TO.N,VBUS*%
X142450000Y-130125000D03*
%TO.N,/USB_DP*%
X140000000Y-130250000D03*
%TO.N,Net-(U2-HID0)*%
X141625000Y-131500000D03*
%TO.N,Net-(U2-HID1)*%
X140975000Y-131525000D03*
%TO.N,VBUS*%
X138425000Y-130150000D03*
%TO.N,GND*%
X143400000Y-129875000D03*
%TO.N,Net-(U3-OUTL)*%
X148250000Y-145700000D03*
X147500000Y-135050000D03*
%TO.N,Net-(U3-OUTR)*%
X148150000Y-139375000D03*
%TO.N,Net-(C18-Pad1)*%
X139000000Y-145700000D03*
X133700000Y-137180000D03*
%TO.N,Net-(C19-Pad1)*%
X132700000Y-137180000D03*
%TO.N,GND*%
X131475000Y-137550000D03*
X130480000Y-133400000D03*
%TO.N,VBUS*%
X129520000Y-134445000D03*
X129520000Y-133400000D03*
%TO.N,VCC*%
X129525000Y-138595000D03*
X129600000Y-139800000D03*
%TO.N,/EN*%
X131550000Y-133425000D03*
%TO.N,VCCI*%
X131000000Y-139800000D03*
%TO.N,GND*%
X130480000Y-138600000D03*
X134700000Y-135280000D03*
X131700000Y-135280000D03*
%TO.N,Net-(U2-VINL)*%
X133700000Y-134290000D03*
%TO.N,Net-(U2-VINR)*%
X132700000Y-134290000D03*
%TO.N,Net-(U2-VINL)*%
X137075000Y-131900000D03*
%TO.N,Net-(U2-VINR)*%
X136425000Y-131900000D03*
%TO.N,/EN*%
X144225000Y-138900000D03*
%TO.N,VDDI*%
X143575000Y-138900000D03*
%TO.N,GND*%
X142925000Y-138900000D03*
%TO.N,Net-(U2-VOUTL)*%
X136425000Y-138900000D03*
%TO.N,Net-(U2-VOUTR)*%
X135775000Y-138900000D03*
%TO.N,GND*%
X135225000Y-140886500D03*
%TO.N,VCC*%
X144525000Y-140886500D03*
%TO.N,GND*%
X135800000Y-133380000D03*
%TO.N,Net-(U2-VCOM)*%
X135775000Y-131900000D03*
%TO.N,GND*%
X138400000Y-133380000D03*
X139700000Y-133380000D03*
X142700000Y-133380000D03*
%TO.N,/USB_DN*%
X140765859Y-130495094D03*
%TO.N,Net-(U2-D-)*%
X143700000Y-133410000D03*
%TO.N,VBUS*%
X142925000Y-131900000D03*
%TO.N,Net-(P1-CC)*%
X139200000Y-130200000D03*
%TO.N,VDDI*%
X139675000Y-131900000D03*
%TO.N,VCCI*%
X138375000Y-131900000D03*
%TO.N,GND*%
X137400000Y-135880000D03*
X142000000Y-134920000D03*
X140575000Y-134700000D03*
X138825000Y-136100000D03*
X137100000Y-137420000D03*
X138300000Y-137420000D03*
X141100000Y-137420000D03*
%TO.N,Net-(U2-VCCP1I)*%
X137075000Y-138900000D03*
%TO.N,Net-(U2-VCCXI)*%
X140975000Y-138900000D03*
%TO.N,Net-(U2-VCCP2I)*%
X138375000Y-138900000D03*
%TO.N,Net-(U2-XTO)*%
X139175000Y-137350000D03*
%TO.N,Net-(U2-XTI)*%
X140225000Y-137350000D03*
%TO.N,Net-(U2-VOUTR)*%
X146100000Y-138180000D03*
%TO.N,Net-(U2-VOUTL)*%
X146100000Y-135000000D03*
%TO.N,VBUS*%
X150650000Y-132950000D03*
%TO.N,VCC*%
X149250000Y-132950000D03*
%TO.N,Net-(JP3-C)*%
X149080000Y-133950000D03*
%TO.N,/EN*%
X149749999Y-134541398D03*
%TO.N,GND*%
X150400000Y-134020000D03*
%TO.N,Net-(U3-HPVDD)*%
X150400000Y-134980000D03*
%TO.N,Net-(U3-CPP)*%
X151100000Y-136349999D03*
%TO.N,Net-(U3-CPN)*%
X151100000Y-137350000D03*
%TO.N,Net-(U3-HPVSS)*%
X149700000Y-138037500D03*
%TO.N,GND*%
X149700000Y-139300000D03*
X150650000Y-141775000D03*
X150650000Y-140875000D03*
%TO.N,VCC*%
X148700000Y-141775000D03*
X148700000Y-140875000D03*
%TO.N,/G1*%
X149400000Y-141775000D03*
%TO.N,/G0*%
X149400000Y-140875000D03*
%TO.N,Net-(U2-D+)*%
X144700000Y-133400000D03*
%TO.N,Net-(U2-HID2)*%
X140325000Y-131500000D03*
%TD*%
%TA.AperFunction,Conductor*%
%TO.N,GND*%
G36*
X135009640Y-127027027D02*
G01*
X135037135Y-127031381D01*
X135065425Y-127035862D01*
X135067665Y-127036590D01*
X135068914Y-127036465D01*
X135102320Y-127047849D01*
X135143850Y-127069010D01*
X135175235Y-127091813D01*
X135208186Y-127124764D01*
X135230990Y-127156150D01*
X135252149Y-127197677D01*
X135264137Y-127234573D01*
X135272973Y-127290357D01*
X135274500Y-127309756D01*
X135274500Y-128751555D01*
X135285310Y-128784825D01*
X135306363Y-128849616D01*
X135366968Y-128933032D01*
X135450384Y-128993637D01*
X135548446Y-129025500D01*
X135548447Y-129025500D01*
X136701553Y-129025500D01*
X136701554Y-129025500D01*
X136799616Y-128993637D01*
X136883032Y-128933032D01*
X136943637Y-128849616D01*
X136975500Y-128751554D01*
X136975500Y-128700000D01*
X136975500Y-128691715D01*
X136975500Y-128349756D01*
X136977027Y-128330359D01*
X136985862Y-128274575D01*
X136985863Y-128274573D01*
X136997848Y-128237680D01*
X137019011Y-128196146D01*
X137041810Y-128164767D01*
X137074767Y-128131810D01*
X137106146Y-128109011D01*
X137147680Y-128087848D01*
X137184566Y-128075863D01*
X137240370Y-128067025D01*
X137259757Y-128065500D01*
X142740243Y-128065500D01*
X142759640Y-128067027D01*
X142787135Y-128071381D01*
X142815425Y-128075862D01*
X142852320Y-128087849D01*
X142893850Y-128109010D01*
X142925235Y-128131813D01*
X142958186Y-128164764D01*
X142980990Y-128196150D01*
X143002149Y-128237677D01*
X143014137Y-128274573D01*
X143022973Y-128330357D01*
X143024500Y-128349756D01*
X143024500Y-128751555D01*
X143035310Y-128784825D01*
X143056363Y-128849616D01*
X143116968Y-128933032D01*
X143200384Y-128993637D01*
X143298446Y-129025500D01*
X143298447Y-129025500D01*
X144451553Y-129025500D01*
X144451554Y-129025500D01*
X144549616Y-128993637D01*
X144633032Y-128933032D01*
X144693637Y-128849616D01*
X144725500Y-128751554D01*
X144725500Y-128700000D01*
X144725500Y-128691715D01*
X144725500Y-127309756D01*
X144727027Y-127290359D01*
X144735862Y-127234575D01*
X144735863Y-127234573D01*
X144747848Y-127197680D01*
X144769011Y-127156146D01*
X144791810Y-127124767D01*
X144824767Y-127091810D01*
X144856146Y-127069011D01*
X144897680Y-127047848D01*
X144934566Y-127035863D01*
X144990370Y-127027025D01*
X145009757Y-127025500D01*
X151690243Y-127025500D01*
X151709640Y-127027027D01*
X151737135Y-127031381D01*
X151765425Y-127035862D01*
X151802320Y-127047849D01*
X151843850Y-127069010D01*
X151875235Y-127091813D01*
X151908186Y-127124764D01*
X151930990Y-127156150D01*
X151952149Y-127197677D01*
X151964137Y-127234573D01*
X151972973Y-127290357D01*
X151974500Y-127309756D01*
X151974500Y-130251555D01*
X152006362Y-130349614D01*
X152006364Y-130349618D01*
X152066967Y-130433031D01*
X152066968Y-130433032D01*
X152134416Y-130482036D01*
X152150384Y-130493637D01*
X152248446Y-130525500D01*
X152289438Y-130525500D01*
X152690243Y-130525500D01*
X152709640Y-130527027D01*
X152737135Y-130531381D01*
X152765425Y-130535862D01*
X152802320Y-130547849D01*
X152843850Y-130569010D01*
X152875235Y-130591813D01*
X152908186Y-130624764D01*
X152930990Y-130656150D01*
X152952149Y-130697677D01*
X152964137Y-130734573D01*
X152972973Y-130790357D01*
X152974500Y-130809756D01*
X152974500Y-156690243D01*
X152972973Y-156709640D01*
X152972973Y-156709642D01*
X152964137Y-156765426D01*
X152952149Y-156802322D01*
X152930990Y-156843849D01*
X152908186Y-156875235D01*
X152875235Y-156908186D01*
X152843849Y-156930990D01*
X152802322Y-156952149D01*
X152765426Y-156964137D01*
X152722164Y-156970989D01*
X152709640Y-156972973D01*
X152690243Y-156974500D01*
X147824500Y-156974500D01*
X147757461Y-156954815D01*
X147711706Y-156902011D01*
X147700500Y-156850500D01*
X147700500Y-146397648D01*
X149999500Y-146397648D01*
X149999500Y-146602351D01*
X150031522Y-146804534D01*
X150094781Y-146999223D01*
X150187715Y-147181613D01*
X150308028Y-147347213D01*
X150452786Y-147491971D01*
X150607749Y-147604556D01*
X150618390Y-147612287D01*
X150734607Y-147671503D01*
X150800776Y-147705218D01*
X150800778Y-147705218D01*
X150800781Y-147705220D01*
X150905137Y-147739127D01*
X150995465Y-147768477D01*
X151096557Y-147784488D01*
X151197648Y-147800500D01*
X151197649Y-147800500D01*
X151402351Y-147800500D01*
X151402352Y-147800500D01*
X151604534Y-147768477D01*
X151799219Y-147705220D01*
X151981610Y-147612287D01*
X152074590Y-147544732D01*
X152147213Y-147491971D01*
X152147215Y-147491968D01*
X152147219Y-147491966D01*
X152291966Y-147347219D01*
X152291968Y-147347215D01*
X152291971Y-147347213D01*
X152344732Y-147274590D01*
X152412287Y-147181610D01*
X152505220Y-146999219D01*
X152568477Y-146804534D01*
X152600500Y-146602352D01*
X152600500Y-146397648D01*
X152568477Y-146195466D01*
X152505220Y-146000781D01*
X152505218Y-146000778D01*
X152505218Y-146000776D01*
X152456321Y-145904811D01*
X152412287Y-145818390D01*
X152404556Y-145807749D01*
X152291971Y-145652786D01*
X152147213Y-145508028D01*
X151981613Y-145387715D01*
X151981612Y-145387714D01*
X151981610Y-145387713D01*
X151924653Y-145358691D01*
X151799223Y-145294781D01*
X151604534Y-145231522D01*
X151429995Y-145203878D01*
X151402352Y-145199500D01*
X151197648Y-145199500D01*
X151173329Y-145203351D01*
X150995465Y-145231522D01*
X150800776Y-145294781D01*
X150618386Y-145387715D01*
X150452786Y-145508028D01*
X150308028Y-145652786D01*
X150187715Y-145818386D01*
X150094781Y-146000776D01*
X150031522Y-146195465D01*
X149999500Y-146397648D01*
X147700500Y-146397648D01*
X147700500Y-145966812D01*
X147720185Y-145899773D01*
X147772989Y-145854018D01*
X147842147Y-145844074D01*
X147905703Y-145873099D01*
X147931885Y-145904808D01*
X147947605Y-145932036D01*
X148017964Y-146002395D01*
X148104136Y-146052147D01*
X148200249Y-146077900D01*
X148200251Y-146077900D01*
X148299749Y-146077900D01*
X148299751Y-146077900D01*
X148395864Y-146052147D01*
X148482036Y-146002395D01*
X148552395Y-145932036D01*
X148602147Y-145845864D01*
X148627900Y-145749751D01*
X148627900Y-145650249D01*
X148602147Y-145554136D01*
X148552395Y-145467964D01*
X148482036Y-145397605D01*
X148438950Y-145372729D01*
X148395865Y-145347853D01*
X148347807Y-145334976D01*
X148299751Y-145322100D01*
X148200249Y-145322100D01*
X148104134Y-145347853D01*
X148017964Y-145397605D01*
X148017961Y-145397607D01*
X147947607Y-145467961D01*
X147947603Y-145467967D01*
X147931886Y-145495189D01*
X147881318Y-145543404D01*
X147812711Y-145556625D01*
X147747847Y-145530656D01*
X147707319Y-145473741D01*
X147700500Y-145433187D01*
X147700500Y-141248438D01*
X147685562Y-141233500D01*
X144975796Y-141233500D01*
X144908757Y-141213815D01*
X144863002Y-141161011D01*
X144853058Y-141091853D01*
X144868409Y-141047501D01*
X144877144Y-141032371D01*
X144877144Y-141032368D01*
X144877147Y-141032364D01*
X144902900Y-140936251D01*
X144902900Y-140836749D01*
X144899819Y-140825249D01*
X148322100Y-140825249D01*
X148322100Y-140924751D01*
X148334976Y-140972807D01*
X148347853Y-141020865D01*
X148363232Y-141047501D01*
X148397605Y-141107036D01*
X148467964Y-141177395D01*
X148531045Y-141213815D01*
X148537623Y-141217613D01*
X148585838Y-141268181D01*
X148599060Y-141336788D01*
X148573092Y-141401653D01*
X148537623Y-141432387D01*
X148467964Y-141472605D01*
X148467961Y-141472607D01*
X148397607Y-141542961D01*
X148397605Y-141542964D01*
X148347853Y-141629134D01*
X148322100Y-141725249D01*
X148322100Y-141824750D01*
X148347853Y-141920865D01*
X148372729Y-141963950D01*
X148397605Y-142007036D01*
X148467964Y-142077395D01*
X148554136Y-142127147D01*
X148650249Y-142152900D01*
X148650251Y-142152900D01*
X148749749Y-142152900D01*
X148749751Y-142152900D01*
X148845864Y-142127147D01*
X148932036Y-142077395D01*
X148962319Y-142047112D01*
X149023642Y-142013627D01*
X149093334Y-142018611D01*
X149137681Y-142047112D01*
X149167964Y-142077395D01*
X149254136Y-142127147D01*
X149350249Y-142152900D01*
X149350251Y-142152900D01*
X149449749Y-142152900D01*
X149449751Y-142152900D01*
X149545864Y-142127147D01*
X149632036Y-142077395D01*
X149702395Y-142007036D01*
X149752147Y-141920864D01*
X149777900Y-141824751D01*
X149777900Y-141725249D01*
X149752147Y-141629136D01*
X149702395Y-141542964D01*
X149632036Y-141472605D01*
X149562376Y-141432386D01*
X149514161Y-141381820D01*
X149500939Y-141313213D01*
X149526907Y-141248348D01*
X149562377Y-141217613D01*
X149568955Y-141213815D01*
X149632036Y-141177395D01*
X149702395Y-141107036D01*
X149752147Y-141020864D01*
X149777900Y-140924751D01*
X149777900Y-140825249D01*
X149752147Y-140729136D01*
X149702395Y-140642964D01*
X149632036Y-140572605D01*
X149588950Y-140547729D01*
X149545865Y-140522853D01*
X149492670Y-140508600D01*
X149449751Y-140497100D01*
X149350249Y-140497100D01*
X149254134Y-140522853D01*
X149167964Y-140572605D01*
X149167961Y-140572607D01*
X149137681Y-140602888D01*
X149076358Y-140636373D01*
X149006666Y-140631389D01*
X148962319Y-140602888D01*
X148932038Y-140572607D01*
X148932036Y-140572605D01*
X148888950Y-140547729D01*
X148845865Y-140522853D01*
X148792670Y-140508600D01*
X148749751Y-140497100D01*
X148650249Y-140497100D01*
X148554134Y-140522853D01*
X148467964Y-140572605D01*
X148467961Y-140572607D01*
X148397607Y-140642961D01*
X148397605Y-140642964D01*
X148347853Y-140729134D01*
X148342329Y-140749751D01*
X148322100Y-140825249D01*
X144899819Y-140825249D01*
X144877147Y-140740636D01*
X144827395Y-140654464D01*
X144757036Y-140584105D01*
X144713950Y-140559229D01*
X144670865Y-140534353D01*
X144622807Y-140521476D01*
X144574751Y-140508600D01*
X144475249Y-140508600D01*
X144379134Y-140534353D01*
X144292964Y-140584105D01*
X144292961Y-140584107D01*
X144222607Y-140654461D01*
X144222605Y-140654464D01*
X144172853Y-140740634D01*
X144150181Y-140825249D01*
X144147100Y-140836749D01*
X144147100Y-140936251D01*
X144164822Y-141002392D01*
X144172854Y-141032366D01*
X144172855Y-141032371D01*
X144181591Y-141047501D01*
X144198064Y-141115401D01*
X144175211Y-141181428D01*
X144120290Y-141224618D01*
X144074204Y-141233500D01*
X141364437Y-141233500D01*
X141349500Y-141248437D01*
X141349500Y-150034851D01*
X141329815Y-150101890D01*
X141277011Y-150147645D01*
X141207853Y-150157589D01*
X141156609Y-150137953D01*
X141069796Y-150079946D01*
X141069783Y-150079939D01*
X140937322Y-150025073D01*
X140937313Y-150025070D01*
X140796695Y-149997100D01*
X140796692Y-149997100D01*
X140653308Y-149997100D01*
X140653305Y-149997100D01*
X140512686Y-150025070D01*
X140512677Y-150025073D01*
X140380216Y-150079939D01*
X140380203Y-150079946D01*
X140260991Y-150159602D01*
X140260987Y-150159605D01*
X140159605Y-150260987D01*
X140159602Y-150260991D01*
X140079946Y-150380203D01*
X140079939Y-150380216D01*
X140025073Y-150512677D01*
X140025070Y-150512686D01*
X139997100Y-150653303D01*
X139997100Y-151946696D01*
X140025070Y-152087313D01*
X140025073Y-152087322D01*
X140079939Y-152219783D01*
X140079946Y-152219796D01*
X140159602Y-152339008D01*
X140159605Y-152339012D01*
X140260987Y-152440394D01*
X140260991Y-152440397D01*
X140380203Y-152520053D01*
X140380216Y-152520060D01*
X140479561Y-152561209D01*
X140512679Y-152574927D01*
X140512681Y-152574927D01*
X140512686Y-152574929D01*
X140653303Y-152602899D01*
X140653306Y-152602900D01*
X140653308Y-152602900D01*
X140796694Y-152602900D01*
X140796695Y-152602899D01*
X140843568Y-152593575D01*
X140937313Y-152574929D01*
X140937316Y-152574927D01*
X140937321Y-152574927D01*
X141069790Y-152520057D01*
X141156610Y-152462045D01*
X141223286Y-152441168D01*
X141290666Y-152459652D01*
X141337357Y-152511631D01*
X141349500Y-152565148D01*
X141349500Y-156850500D01*
X141329815Y-156917539D01*
X141277011Y-156963294D01*
X141225500Y-156974500D01*
X138524500Y-156974500D01*
X138457461Y-156954815D01*
X138411706Y-156902011D01*
X138400500Y-156850500D01*
X138400500Y-145864602D01*
X138420185Y-145797563D01*
X138472989Y-145751808D01*
X138542147Y-145741864D01*
X138605703Y-145770889D01*
X138643477Y-145829667D01*
X138644275Y-145832509D01*
X138647853Y-145845865D01*
X138663577Y-145873099D01*
X138697605Y-145932036D01*
X138767964Y-146002395D01*
X138854136Y-146052147D01*
X138950249Y-146077900D01*
X138950251Y-146077900D01*
X139049749Y-146077900D01*
X139049751Y-146077900D01*
X139145864Y-146052147D01*
X139232036Y-146002395D01*
X139302395Y-145932036D01*
X139352147Y-145845864D01*
X139377900Y-145749751D01*
X139377900Y-145650249D01*
X139352147Y-145554136D01*
X139302395Y-145467964D01*
X139232036Y-145397605D01*
X139188950Y-145372729D01*
X139145865Y-145347853D01*
X139097807Y-145334976D01*
X139049751Y-145322100D01*
X138950249Y-145322100D01*
X138854134Y-145347853D01*
X138767964Y-145397605D01*
X138767961Y-145397607D01*
X138697607Y-145467961D01*
X138697605Y-145467964D01*
X138647853Y-145554134D01*
X138644275Y-145567491D01*
X138607909Y-145627151D01*
X138545062Y-145657680D01*
X138475687Y-145649385D01*
X138421809Y-145604899D01*
X138400535Y-145538347D01*
X138400500Y-145535397D01*
X138400500Y-141248438D01*
X138385562Y-141233500D01*
X132085562Y-141233500D01*
X132064438Y-141233500D01*
X132064437Y-141233500D01*
X132049500Y-141248437D01*
X132049500Y-150034851D01*
X132029815Y-150101890D01*
X131977011Y-150147645D01*
X131907853Y-150157589D01*
X131856609Y-150137953D01*
X131769796Y-150079946D01*
X131769783Y-150079939D01*
X131637322Y-150025073D01*
X131637313Y-150025070D01*
X131496695Y-149997100D01*
X131496692Y-149997100D01*
X131353308Y-149997100D01*
X131353305Y-149997100D01*
X131212686Y-150025070D01*
X131212677Y-150025073D01*
X131080216Y-150079939D01*
X131080203Y-150079946D01*
X130960991Y-150159602D01*
X130960987Y-150159605D01*
X130859605Y-150260987D01*
X130859602Y-150260991D01*
X130779946Y-150380203D01*
X130779939Y-150380216D01*
X130725073Y-150512677D01*
X130725070Y-150512686D01*
X130697100Y-150653303D01*
X130697100Y-151946696D01*
X130725070Y-152087313D01*
X130725073Y-152087322D01*
X130779939Y-152219783D01*
X130779946Y-152219796D01*
X130859602Y-152339008D01*
X130859605Y-152339012D01*
X130960987Y-152440394D01*
X130960991Y-152440397D01*
X131080203Y-152520053D01*
X131080216Y-152520060D01*
X131179561Y-152561209D01*
X131212679Y-152574927D01*
X131212681Y-152574927D01*
X131212686Y-152574929D01*
X131353303Y-152602899D01*
X131353306Y-152602900D01*
X131353308Y-152602900D01*
X131496694Y-152602900D01*
X131496695Y-152602899D01*
X131543568Y-152593575D01*
X131637313Y-152574929D01*
X131637316Y-152574927D01*
X131637321Y-152574927D01*
X131769790Y-152520057D01*
X131856610Y-152462045D01*
X131923286Y-152441168D01*
X131990666Y-152459652D01*
X132037357Y-152511631D01*
X132049500Y-152565148D01*
X132049500Y-156850500D01*
X132029815Y-156917539D01*
X131977011Y-156963294D01*
X131925500Y-156974500D01*
X127309757Y-156974500D01*
X127290359Y-156972973D01*
X127273850Y-156970358D01*
X127234573Y-156964137D01*
X127197677Y-156952149D01*
X127156150Y-156930990D01*
X127124764Y-156908186D01*
X127091813Y-156875235D01*
X127069009Y-156843849D01*
X127047850Y-156802322D01*
X127035862Y-156765424D01*
X127027027Y-156709640D01*
X127025500Y-156690243D01*
X127025500Y-146397648D01*
X127399500Y-146397648D01*
X127399500Y-146602351D01*
X127431522Y-146804534D01*
X127494781Y-146999223D01*
X127587715Y-147181613D01*
X127708028Y-147347213D01*
X127852786Y-147491971D01*
X128007749Y-147604556D01*
X128018390Y-147612287D01*
X128134607Y-147671503D01*
X128200776Y-147705218D01*
X128200778Y-147705218D01*
X128200781Y-147705220D01*
X128305137Y-147739127D01*
X128395465Y-147768477D01*
X128496557Y-147784488D01*
X128597648Y-147800500D01*
X128597649Y-147800500D01*
X128802351Y-147800500D01*
X128802352Y-147800500D01*
X129004534Y-147768477D01*
X129199219Y-147705220D01*
X129381610Y-147612287D01*
X129474590Y-147544732D01*
X129547213Y-147491971D01*
X129547215Y-147491968D01*
X129547219Y-147491966D01*
X129691966Y-147347219D01*
X129691968Y-147347215D01*
X129691971Y-147347213D01*
X129744732Y-147274590D01*
X129812287Y-147181610D01*
X129905220Y-146999219D01*
X129968477Y-146804534D01*
X130000500Y-146602352D01*
X130000500Y-146397648D01*
X129968477Y-146195466D01*
X129905220Y-146000781D01*
X129905218Y-146000778D01*
X129905218Y-146000776D01*
X129856321Y-145904811D01*
X129812287Y-145818390D01*
X129804556Y-145807749D01*
X129691971Y-145652786D01*
X129547213Y-145508028D01*
X129381613Y-145387715D01*
X129381612Y-145387714D01*
X129381610Y-145387713D01*
X129324653Y-145358691D01*
X129199223Y-145294781D01*
X129004534Y-145231522D01*
X128829995Y-145203878D01*
X128802352Y-145199500D01*
X128597648Y-145199500D01*
X128573329Y-145203351D01*
X128395465Y-145231522D01*
X128200776Y-145294781D01*
X128018386Y-145387715D01*
X127852786Y-145508028D01*
X127708028Y-145652786D01*
X127587715Y-145818386D01*
X127494781Y-146000776D01*
X127431522Y-146195465D01*
X127399500Y-146397648D01*
X127025500Y-146397648D01*
X127025500Y-140650249D01*
X138697100Y-140650249D01*
X138697100Y-140749750D01*
X138722853Y-140845865D01*
X138747729Y-140888950D01*
X138772605Y-140932036D01*
X138842964Y-141002395D01*
X138929136Y-141052147D01*
X139025249Y-141077900D01*
X139025251Y-141077900D01*
X139124749Y-141077900D01*
X139124751Y-141077900D01*
X139220864Y-141052147D01*
X139307036Y-141002395D01*
X139377395Y-140932036D01*
X139427147Y-140845864D01*
X139452900Y-140749751D01*
X139452900Y-140650249D01*
X139427147Y-140554136D01*
X139377395Y-140467964D01*
X139307036Y-140397605D01*
X139261016Y-140371035D01*
X139220865Y-140347853D01*
X139172807Y-140334976D01*
X139124751Y-140322100D01*
X139025249Y-140322100D01*
X138929134Y-140347853D01*
X138842964Y-140397605D01*
X138842961Y-140397607D01*
X138772607Y-140467961D01*
X138772605Y-140467964D01*
X138722853Y-140554134D01*
X138697100Y-140650249D01*
X127025500Y-140650249D01*
X127025500Y-139750249D01*
X129222100Y-139750249D01*
X129222100Y-139849751D01*
X129222234Y-139850251D01*
X129247853Y-139945865D01*
X129250097Y-139949751D01*
X129297605Y-140032036D01*
X129367964Y-140102395D01*
X129454136Y-140152147D01*
X129550249Y-140177900D01*
X129550251Y-140177900D01*
X129649749Y-140177900D01*
X129649751Y-140177900D01*
X129745864Y-140152147D01*
X129832036Y-140102395D01*
X129902395Y-140032036D01*
X129952147Y-139945864D01*
X129977900Y-139849751D01*
X129977900Y-139750249D01*
X130622100Y-139750249D01*
X130622100Y-139849751D01*
X130622234Y-139850251D01*
X130647853Y-139945865D01*
X130650097Y-139949751D01*
X130697605Y-140032036D01*
X130767964Y-140102395D01*
X130854136Y-140152147D01*
X130950249Y-140177900D01*
X130950251Y-140177900D01*
X131049749Y-140177900D01*
X131049751Y-140177900D01*
X131145864Y-140152147D01*
X131232036Y-140102395D01*
X131245182Y-140089249D01*
X132061100Y-140089249D01*
X132061100Y-140188750D01*
X132086853Y-140284865D01*
X132108351Y-140322100D01*
X132136605Y-140371036D01*
X132206964Y-140441395D01*
X132293136Y-140491147D01*
X132389249Y-140516900D01*
X132389251Y-140516900D01*
X132488749Y-140516900D01*
X132488751Y-140516900D01*
X132584864Y-140491147D01*
X132671036Y-140441395D01*
X132741395Y-140371036D01*
X132791147Y-140284864D01*
X132816900Y-140188751D01*
X132816900Y-140089249D01*
X132791147Y-139993136D01*
X132791144Y-139993130D01*
X132741398Y-139906968D01*
X132741392Y-139906961D01*
X132684680Y-139850249D01*
X133522100Y-139850249D01*
X133522100Y-139949750D01*
X133547853Y-140045865D01*
X133572729Y-140088950D01*
X133597605Y-140132036D01*
X133667964Y-140202395D01*
X133754136Y-140252147D01*
X133850249Y-140277900D01*
X133850251Y-140277900D01*
X133949749Y-140277900D01*
X133949751Y-140277900D01*
X134045864Y-140252147D01*
X134132036Y-140202395D01*
X134132182Y-140202249D01*
X142897100Y-140202249D01*
X142897100Y-140301751D01*
X142909453Y-140347853D01*
X142922853Y-140397865D01*
X142947729Y-140440950D01*
X142972605Y-140484036D01*
X143042964Y-140554395D01*
X143129136Y-140604147D01*
X143225249Y-140629900D01*
X143225251Y-140629900D01*
X143324749Y-140629900D01*
X143324751Y-140629900D01*
X143420864Y-140604147D01*
X143507036Y-140554395D01*
X143577395Y-140484036D01*
X143627147Y-140397864D01*
X143652900Y-140301751D01*
X143652900Y-140202249D01*
X143627147Y-140106136D01*
X143577395Y-140019964D01*
X143507036Y-139949605D01*
X143463950Y-139924729D01*
X143420865Y-139899853D01*
X143372807Y-139886976D01*
X143324751Y-139874100D01*
X143225249Y-139874100D01*
X143129134Y-139899853D01*
X143042964Y-139949605D01*
X143042961Y-139949607D01*
X142972607Y-140019961D01*
X142972605Y-140019964D01*
X142922853Y-140106134D01*
X142903624Y-140177899D01*
X142897100Y-140202249D01*
X134132182Y-140202249D01*
X134202395Y-140132036D01*
X134252147Y-140045864D01*
X134277900Y-139949751D01*
X134277900Y-139850249D01*
X134252147Y-139754136D01*
X134251433Y-139752900D01*
X134236564Y-139727146D01*
X134202395Y-139667964D01*
X134132036Y-139597605D01*
X134080692Y-139567961D01*
X134045865Y-139547853D01*
X133997807Y-139534976D01*
X133949751Y-139522100D01*
X133850249Y-139522100D01*
X133754134Y-139547853D01*
X133667964Y-139597605D01*
X133667961Y-139597607D01*
X133597607Y-139667961D01*
X133597605Y-139667964D01*
X133547853Y-139754134D01*
X133522100Y-139850249D01*
X132684680Y-139850249D01*
X132671038Y-139836607D01*
X132671036Y-139836605D01*
X132627950Y-139811729D01*
X132584865Y-139786853D01*
X132536807Y-139773976D01*
X132488751Y-139761100D01*
X132389249Y-139761100D01*
X132293134Y-139786853D01*
X132206964Y-139836605D01*
X132206961Y-139836607D01*
X132136607Y-139906961D01*
X132136605Y-139906964D01*
X132086853Y-139993134D01*
X132061100Y-140089249D01*
X131245182Y-140089249D01*
X131302395Y-140032036D01*
X131352147Y-139945864D01*
X131377900Y-139849751D01*
X131377900Y-139750249D01*
X131352147Y-139654136D01*
X131302395Y-139567964D01*
X131232036Y-139497605D01*
X131188950Y-139472729D01*
X131145865Y-139447853D01*
X131097807Y-139434976D01*
X131049751Y-139422100D01*
X130950249Y-139422100D01*
X130854134Y-139447853D01*
X130767964Y-139497605D01*
X130767961Y-139497607D01*
X130697607Y-139567961D01*
X130697605Y-139567964D01*
X130647853Y-139654134D01*
X130628290Y-139727146D01*
X130622100Y-139750249D01*
X129977900Y-139750249D01*
X129952147Y-139654136D01*
X129902395Y-139567964D01*
X129832036Y-139497605D01*
X129788950Y-139472729D01*
X129745865Y-139447853D01*
X129697807Y-139434976D01*
X129649751Y-139422100D01*
X129550249Y-139422100D01*
X129454134Y-139447853D01*
X129367964Y-139497605D01*
X129367961Y-139497607D01*
X129297607Y-139567961D01*
X129297605Y-139567964D01*
X129247853Y-139654134D01*
X129228290Y-139727146D01*
X129222100Y-139750249D01*
X127025500Y-139750249D01*
X127025500Y-139325249D01*
X147772100Y-139325249D01*
X147772100Y-139424750D01*
X147797853Y-139520865D01*
X147813435Y-139547853D01*
X147847605Y-139607036D01*
X147917964Y-139677395D01*
X148004136Y-139727147D01*
X148100249Y-139752900D01*
X148100251Y-139752900D01*
X148199749Y-139752900D01*
X148199751Y-139752900D01*
X148295864Y-139727147D01*
X148382036Y-139677395D01*
X148452395Y-139607036D01*
X148502147Y-139520864D01*
X148527900Y-139424751D01*
X148527900Y-139325249D01*
X148502147Y-139229136D01*
X148452395Y-139142964D01*
X148382036Y-139072605D01*
X148338950Y-139047729D01*
X148295865Y-139022853D01*
X148247807Y-139009976D01*
X148199751Y-138997100D01*
X148100249Y-138997100D01*
X148004134Y-139022853D01*
X147917964Y-139072605D01*
X147917961Y-139072607D01*
X147847607Y-139142961D01*
X147847605Y-139142964D01*
X147797853Y-139229134D01*
X147772100Y-139325249D01*
X127025500Y-139325249D01*
X127025500Y-138545249D01*
X129147100Y-138545249D01*
X129147100Y-138644751D01*
X129148440Y-138649751D01*
X129172853Y-138740865D01*
X129195517Y-138780118D01*
X129222605Y-138827036D01*
X129292964Y-138897395D01*
X129379136Y-138947147D01*
X129475249Y-138972900D01*
X129475251Y-138972900D01*
X129574749Y-138972900D01*
X129574751Y-138972900D01*
X129670864Y-138947147D01*
X129757036Y-138897395D01*
X129827395Y-138827036D01*
X129877147Y-138740864D01*
X129902900Y-138644751D01*
X129902900Y-138550249D01*
X131153100Y-138550249D01*
X131153100Y-138649750D01*
X131178853Y-138745865D01*
X131203729Y-138788950D01*
X131228605Y-138832036D01*
X131298964Y-138902395D01*
X131373588Y-138945480D01*
X131380982Y-138949749D01*
X131385136Y-138952147D01*
X131481249Y-138977900D01*
X131481251Y-138977900D01*
X131580749Y-138977900D01*
X131580751Y-138977900D01*
X131676864Y-138952147D01*
X131763036Y-138902395D01*
X131815182Y-138850249D01*
X135397100Y-138850249D01*
X135397100Y-138949751D01*
X135403303Y-138972900D01*
X135422853Y-139045865D01*
X135438292Y-139072605D01*
X135472605Y-139132036D01*
X135542964Y-139202395D01*
X135629136Y-139252147D01*
X135725249Y-139277900D01*
X135725251Y-139277900D01*
X135824749Y-139277900D01*
X135824751Y-139277900D01*
X135920864Y-139252147D01*
X136007036Y-139202395D01*
X136012319Y-139197112D01*
X136073642Y-139163627D01*
X136143334Y-139168611D01*
X136187681Y-139197112D01*
X136192964Y-139202395D01*
X136279136Y-139252147D01*
X136375249Y-139277900D01*
X136375251Y-139277900D01*
X136474749Y-139277900D01*
X136474751Y-139277900D01*
X136570864Y-139252147D01*
X136657036Y-139202395D01*
X136662319Y-139197112D01*
X136723642Y-139163627D01*
X136793334Y-139168611D01*
X136837681Y-139197112D01*
X136842964Y-139202395D01*
X136929136Y-139252147D01*
X137025249Y-139277900D01*
X137025251Y-139277900D01*
X137124749Y-139277900D01*
X137124751Y-139277900D01*
X137220864Y-139252147D01*
X137307036Y-139202395D01*
X137377395Y-139132036D01*
X137427147Y-139045864D01*
X137452900Y-138949751D01*
X137452900Y-138850249D01*
X137997100Y-138850249D01*
X137997100Y-138949751D01*
X138003303Y-138972900D01*
X138022853Y-139045865D01*
X138038292Y-139072605D01*
X138072605Y-139132036D01*
X138142964Y-139202395D01*
X138229136Y-139252147D01*
X138325249Y-139277900D01*
X138325251Y-139277900D01*
X138424749Y-139277900D01*
X138424751Y-139277900D01*
X138520864Y-139252147D01*
X138607036Y-139202395D01*
X138677395Y-139132036D01*
X138727147Y-139045864D01*
X138752900Y-138949751D01*
X138752900Y-138850249D01*
X140597100Y-138850249D01*
X140597100Y-138949751D01*
X140603303Y-138972900D01*
X140622853Y-139045865D01*
X140638292Y-139072605D01*
X140672605Y-139132036D01*
X140742964Y-139202395D01*
X140829136Y-139252147D01*
X140925249Y-139277900D01*
X140925251Y-139277900D01*
X141024749Y-139277900D01*
X141024751Y-139277900D01*
X141120864Y-139252147D01*
X141207036Y-139202395D01*
X141277395Y-139132036D01*
X141327147Y-139045864D01*
X141352900Y-138949751D01*
X141352900Y-138850249D01*
X143197100Y-138850249D01*
X143197100Y-138949751D01*
X143203303Y-138972900D01*
X143222853Y-139045865D01*
X143238292Y-139072605D01*
X143272605Y-139132036D01*
X143342964Y-139202395D01*
X143429136Y-139252147D01*
X143525249Y-139277900D01*
X143525251Y-139277900D01*
X143624749Y-139277900D01*
X143624751Y-139277900D01*
X143720864Y-139252147D01*
X143807036Y-139202395D01*
X143812319Y-139197112D01*
X143873642Y-139163627D01*
X143943334Y-139168611D01*
X143987681Y-139197112D01*
X143992964Y-139202395D01*
X144079136Y-139252147D01*
X144175249Y-139277900D01*
X144175251Y-139277900D01*
X144274749Y-139277900D01*
X144274751Y-139277900D01*
X144370864Y-139252147D01*
X144457036Y-139202395D01*
X144527395Y-139132036D01*
X144577147Y-139045864D01*
X144602900Y-138949751D01*
X144602900Y-138850249D01*
X144577147Y-138754136D01*
X144527395Y-138667964D01*
X144457036Y-138597605D01*
X144388266Y-138557900D01*
X144370865Y-138547853D01*
X144312244Y-138532146D01*
X144274751Y-138522100D01*
X144175249Y-138522100D01*
X144079134Y-138547853D01*
X143992964Y-138597605D01*
X143992958Y-138597609D01*
X143987677Y-138602891D01*
X143926353Y-138636373D01*
X143856661Y-138631386D01*
X143812323Y-138602891D01*
X143807041Y-138597609D01*
X143807038Y-138597607D01*
X143807036Y-138597605D01*
X143738266Y-138557900D01*
X143720865Y-138547853D01*
X143662244Y-138532146D01*
X143624751Y-138522100D01*
X143525249Y-138522100D01*
X143429134Y-138547853D01*
X143342964Y-138597605D01*
X143342961Y-138597607D01*
X143272607Y-138667961D01*
X143272605Y-138667964D01*
X143222853Y-138754134D01*
X143197100Y-138850249D01*
X141352900Y-138850249D01*
X141327147Y-138754136D01*
X141277395Y-138667964D01*
X141207036Y-138597605D01*
X141138266Y-138557900D01*
X141120865Y-138547853D01*
X141062244Y-138532146D01*
X141024751Y-138522100D01*
X140925249Y-138522100D01*
X140829134Y-138547853D01*
X140742964Y-138597605D01*
X140742961Y-138597607D01*
X140672607Y-138667961D01*
X140672605Y-138667964D01*
X140622853Y-138754134D01*
X140597100Y-138850249D01*
X138752900Y-138850249D01*
X138727147Y-138754136D01*
X138677395Y-138667964D01*
X138607036Y-138597605D01*
X138538266Y-138557900D01*
X138520865Y-138547853D01*
X138462244Y-138532146D01*
X138424751Y-138522100D01*
X138325249Y-138522100D01*
X138229134Y-138547853D01*
X138142964Y-138597605D01*
X138142961Y-138597607D01*
X138072607Y-138667961D01*
X138072605Y-138667964D01*
X138022853Y-138754134D01*
X137997100Y-138850249D01*
X137452900Y-138850249D01*
X137427147Y-138754136D01*
X137377395Y-138667964D01*
X137307036Y-138597605D01*
X137238266Y-138557900D01*
X137220865Y-138547853D01*
X137162244Y-138532146D01*
X137124751Y-138522100D01*
X137025249Y-138522100D01*
X136929134Y-138547853D01*
X136842964Y-138597605D01*
X136842958Y-138597609D01*
X136837677Y-138602891D01*
X136776353Y-138636373D01*
X136706661Y-138631386D01*
X136662323Y-138602891D01*
X136657041Y-138597609D01*
X136657038Y-138597607D01*
X136657036Y-138597605D01*
X136588266Y-138557900D01*
X136570865Y-138547853D01*
X136512244Y-138532146D01*
X136474751Y-138522100D01*
X136375249Y-138522100D01*
X136279134Y-138547853D01*
X136192964Y-138597605D01*
X136192958Y-138597609D01*
X136187677Y-138602891D01*
X136126353Y-138636373D01*
X136056661Y-138631386D01*
X136012323Y-138602891D01*
X136007041Y-138597609D01*
X136007038Y-138597607D01*
X136007036Y-138597605D01*
X135938266Y-138557900D01*
X135920865Y-138547853D01*
X135862244Y-138532146D01*
X135824751Y-138522100D01*
X135725249Y-138522100D01*
X135629134Y-138547853D01*
X135542964Y-138597605D01*
X135542961Y-138597607D01*
X135472607Y-138667961D01*
X135472605Y-138667964D01*
X135422853Y-138754134D01*
X135397100Y-138850249D01*
X131815182Y-138850249D01*
X131833395Y-138832036D01*
X131883147Y-138745864D01*
X131908900Y-138649751D01*
X131908900Y-138550249D01*
X131883147Y-138454136D01*
X131833395Y-138367964D01*
X131763036Y-138297605D01*
X131714418Y-138269535D01*
X131676865Y-138247853D01*
X131668179Y-138245525D01*
X131580751Y-138222100D01*
X131481249Y-138222100D01*
X131385134Y-138247853D01*
X131298964Y-138297605D01*
X131298961Y-138297607D01*
X131228607Y-138367961D01*
X131228605Y-138367964D01*
X131178853Y-138454134D01*
X131153100Y-138550249D01*
X129902900Y-138550249D01*
X129902900Y-138545249D01*
X129877147Y-138449136D01*
X129827395Y-138362964D01*
X129757036Y-138292605D01*
X129713950Y-138267729D01*
X129670865Y-138242853D01*
X129621958Y-138229749D01*
X129574751Y-138217100D01*
X129475249Y-138217100D01*
X129379134Y-138242853D01*
X129292964Y-138292605D01*
X129292961Y-138292607D01*
X129222607Y-138362961D01*
X129222605Y-138362964D01*
X129172853Y-138449134D01*
X129163941Y-138482395D01*
X129147100Y-138545249D01*
X127025500Y-138545249D01*
X127025500Y-138130249D01*
X145722100Y-138130249D01*
X145722100Y-138229751D01*
X145732760Y-138269535D01*
X145747853Y-138325865D01*
X145755952Y-138339892D01*
X145797605Y-138412036D01*
X145867964Y-138482395D01*
X145954136Y-138532147D01*
X146050249Y-138557900D01*
X146050251Y-138557900D01*
X146149749Y-138557900D01*
X146149751Y-138557900D01*
X146245864Y-138532147D01*
X146332036Y-138482395D01*
X146402395Y-138412036D01*
X146452147Y-138325864D01*
X146477900Y-138229751D01*
X146477900Y-138130249D01*
X146452147Y-138034136D01*
X146425365Y-137987749D01*
X149322100Y-137987749D01*
X149322100Y-138087250D01*
X149347853Y-138183365D01*
X149367331Y-138217100D01*
X149397605Y-138269536D01*
X149467964Y-138339895D01*
X149554136Y-138389647D01*
X149650249Y-138415400D01*
X149650251Y-138415400D01*
X149749749Y-138415400D01*
X149749751Y-138415400D01*
X149845864Y-138389647D01*
X149932036Y-138339895D01*
X150002395Y-138269536D01*
X150052147Y-138183364D01*
X150077900Y-138087251D01*
X150077900Y-137987749D01*
X150052147Y-137891636D01*
X150002395Y-137805464D01*
X149932036Y-137735105D01*
X149874950Y-137702146D01*
X149845865Y-137685353D01*
X149797807Y-137672476D01*
X149749751Y-137659600D01*
X149650249Y-137659600D01*
X149554134Y-137685353D01*
X149467964Y-137735105D01*
X149467961Y-137735107D01*
X149397607Y-137805461D01*
X149397605Y-137805464D01*
X149347853Y-137891634D01*
X149322100Y-137987749D01*
X146425365Y-137987749D01*
X146402395Y-137947964D01*
X146332036Y-137877605D01*
X146288950Y-137852729D01*
X146245865Y-137827853D01*
X146197807Y-137814976D01*
X146149751Y-137802100D01*
X146050249Y-137802100D01*
X145954134Y-137827853D01*
X145867964Y-137877605D01*
X145867961Y-137877607D01*
X145797607Y-137947961D01*
X145797605Y-137947964D01*
X145747853Y-138034134D01*
X145733621Y-138087250D01*
X145722100Y-138130249D01*
X127025500Y-138130249D01*
X127025500Y-137130249D01*
X132322100Y-137130249D01*
X132322100Y-137229751D01*
X132330213Y-137260028D01*
X132347853Y-137325865D01*
X132372729Y-137368950D01*
X132397605Y-137412036D01*
X132467964Y-137482395D01*
X132554136Y-137532147D01*
X132650249Y-137557900D01*
X132650251Y-137557900D01*
X132749749Y-137557900D01*
X132749751Y-137557900D01*
X132845864Y-137532147D01*
X132932036Y-137482395D01*
X133002395Y-137412036D01*
X133052147Y-137325864D01*
X133077900Y-137229751D01*
X133077900Y-137130249D01*
X133322100Y-137130249D01*
X133322100Y-137229751D01*
X133330213Y-137260028D01*
X133347853Y-137325865D01*
X133372729Y-137368950D01*
X133397605Y-137412036D01*
X133467964Y-137482395D01*
X133554136Y-137532147D01*
X133650249Y-137557900D01*
X133650251Y-137557900D01*
X133749749Y-137557900D01*
X133749751Y-137557900D01*
X133845864Y-137532147D01*
X133932036Y-137482395D01*
X134002395Y-137412036D01*
X134052147Y-137325864D01*
X134059010Y-137300249D01*
X138797100Y-137300249D01*
X138797100Y-137399751D01*
X138800392Y-137412036D01*
X138822853Y-137495865D01*
X138843801Y-137532146D01*
X138872605Y-137582036D01*
X138942964Y-137652395D01*
X139029136Y-137702147D01*
X139125249Y-137727900D01*
X139125251Y-137727900D01*
X139224749Y-137727900D01*
X139224751Y-137727900D01*
X139320864Y-137702147D01*
X139407036Y-137652395D01*
X139477395Y-137582036D01*
X139527147Y-137495864D01*
X139552900Y-137399751D01*
X139552900Y-137300249D01*
X139847100Y-137300249D01*
X139847100Y-137399751D01*
X139850392Y-137412036D01*
X139872853Y-137495865D01*
X139893801Y-137532146D01*
X139922605Y-137582036D01*
X139992964Y-137652395D01*
X140079136Y-137702147D01*
X140175249Y-137727900D01*
X140175251Y-137727900D01*
X140274749Y-137727900D01*
X140274751Y-137727900D01*
X140370864Y-137702147D01*
X140457036Y-137652395D01*
X140527395Y-137582036D01*
X140577147Y-137495864D01*
X140602900Y-137399751D01*
X140602900Y-137300249D01*
X150722100Y-137300249D01*
X150722100Y-137399751D01*
X150725392Y-137412036D01*
X150747853Y-137495865D01*
X150768801Y-137532146D01*
X150797605Y-137582036D01*
X150867964Y-137652395D01*
X150954136Y-137702147D01*
X151050249Y-137727900D01*
X151050251Y-137727900D01*
X151149749Y-137727900D01*
X151149751Y-137727900D01*
X151245864Y-137702147D01*
X151332036Y-137652395D01*
X151402395Y-137582036D01*
X151452147Y-137495864D01*
X151477900Y-137399751D01*
X151477900Y-137300249D01*
X151452147Y-137204136D01*
X151402395Y-137117964D01*
X151332036Y-137047605D01*
X151288950Y-137022729D01*
X151245865Y-136997853D01*
X151206727Y-136987366D01*
X151149751Y-136972100D01*
X151050249Y-136972100D01*
X151008506Y-136983284D01*
X150954134Y-136997853D01*
X150867964Y-137047605D01*
X150867961Y-137047607D01*
X150797607Y-137117961D01*
X150797605Y-137117964D01*
X150747853Y-137204134D01*
X150740989Y-137229752D01*
X150722100Y-137300249D01*
X140602900Y-137300249D01*
X140577147Y-137204136D01*
X140527395Y-137117964D01*
X140457036Y-137047605D01*
X140413950Y-137022729D01*
X140370865Y-136997853D01*
X140322807Y-136984976D01*
X140274751Y-136972100D01*
X140175249Y-136972100D01*
X140079134Y-136997853D01*
X139992964Y-137047605D01*
X139992961Y-137047607D01*
X139922607Y-137117961D01*
X139922605Y-137117964D01*
X139872853Y-137204134D01*
X139865989Y-137229752D01*
X139847100Y-137300249D01*
X139552900Y-137300249D01*
X139527147Y-137204136D01*
X139477395Y-137117964D01*
X139407036Y-137047605D01*
X139363950Y-137022729D01*
X139320865Y-136997853D01*
X139272807Y-136984976D01*
X139224751Y-136972100D01*
X139125249Y-136972100D01*
X139029134Y-136997853D01*
X138942964Y-137047605D01*
X138942961Y-137047607D01*
X138872607Y-137117961D01*
X138872605Y-137117964D01*
X138822853Y-137204134D01*
X138815989Y-137229752D01*
X138797100Y-137300249D01*
X134059010Y-137300249D01*
X134077900Y-137229751D01*
X134077900Y-137130249D01*
X134052147Y-137034136D01*
X134002395Y-136947964D01*
X133932036Y-136877605D01*
X133888950Y-136852729D01*
X133845865Y-136827853D01*
X133797807Y-136814976D01*
X133749751Y-136802100D01*
X133650249Y-136802100D01*
X133554134Y-136827853D01*
X133467964Y-136877605D01*
X133467961Y-136877607D01*
X133397607Y-136947961D01*
X133397605Y-136947964D01*
X133347853Y-137034134D01*
X133331987Y-137093348D01*
X133322100Y-137130249D01*
X133077900Y-137130249D01*
X133052147Y-137034136D01*
X133002395Y-136947964D01*
X132932036Y-136877605D01*
X132888950Y-136852729D01*
X132845865Y-136827853D01*
X132797807Y-136814976D01*
X132749751Y-136802100D01*
X132650249Y-136802100D01*
X132554134Y-136827853D01*
X132467964Y-136877605D01*
X132467961Y-136877607D01*
X132397607Y-136947961D01*
X132397605Y-136947964D01*
X132347853Y-137034134D01*
X132325392Y-137117964D01*
X132322100Y-137130249D01*
X127025500Y-137130249D01*
X127025500Y-136300248D01*
X150722100Y-136300248D01*
X150722100Y-136399749D01*
X150747853Y-136495864D01*
X150772729Y-136538949D01*
X150797605Y-136582035D01*
X150867964Y-136652394D01*
X150954136Y-136702146D01*
X151050249Y-136727899D01*
X151149751Y-136727899D01*
X151245864Y-136702146D01*
X151332036Y-136652394D01*
X151402395Y-136582035D01*
X151452147Y-136495863D01*
X151477900Y-136399750D01*
X151477900Y-136300248D01*
X151452147Y-136204135D01*
X151402395Y-136117963D01*
X151332036Y-136047604D01*
X151288950Y-136022728D01*
X151245865Y-135997852D01*
X151197807Y-135984975D01*
X151149751Y-135972099D01*
X151050249Y-135972099D01*
X150954134Y-135997852D01*
X150867964Y-136047604D01*
X150867961Y-136047606D01*
X150797607Y-136117960D01*
X150797605Y-136117963D01*
X150747853Y-136204133D01*
X150722100Y-136300248D01*
X127025500Y-136300248D01*
X127025500Y-134950249D01*
X145722100Y-134950249D01*
X145722100Y-135049750D01*
X145747853Y-135145865D01*
X145772729Y-135188950D01*
X145797605Y-135232036D01*
X145867964Y-135302395D01*
X145954136Y-135352147D01*
X146050249Y-135377900D01*
X146050251Y-135377900D01*
X146149749Y-135377900D01*
X146149751Y-135377900D01*
X146245864Y-135352147D01*
X146332036Y-135302395D01*
X146402395Y-135232036D01*
X146452147Y-135145864D01*
X146477900Y-135049751D01*
X146477900Y-135000249D01*
X147122100Y-135000249D01*
X147122100Y-135099750D01*
X147147853Y-135195865D01*
X147168737Y-135232036D01*
X147197605Y-135282036D01*
X147267964Y-135352395D01*
X147354136Y-135402147D01*
X147450249Y-135427900D01*
X147450251Y-135427900D01*
X147549749Y-135427900D01*
X147549751Y-135427900D01*
X147645864Y-135402147D01*
X147732036Y-135352395D01*
X147802395Y-135282036D01*
X147852147Y-135195864D01*
X147877900Y-135099751D01*
X147877900Y-135000249D01*
X147852147Y-134904136D01*
X147850650Y-134901544D01*
X147823279Y-134854136D01*
X147802395Y-134817964D01*
X147732036Y-134747605D01*
X147688950Y-134722729D01*
X147645865Y-134697853D01*
X147597807Y-134684976D01*
X147549751Y-134672100D01*
X147450249Y-134672100D01*
X147354134Y-134697853D01*
X147267964Y-134747605D01*
X147267961Y-134747607D01*
X147197607Y-134817961D01*
X147197605Y-134817964D01*
X147147853Y-134904134D01*
X147122100Y-135000249D01*
X146477900Y-135000249D01*
X146477900Y-134950249D01*
X146452147Y-134854136D01*
X146402395Y-134767964D01*
X146332036Y-134697605D01*
X146280584Y-134667899D01*
X146245865Y-134647853D01*
X146197807Y-134634976D01*
X146149751Y-134622100D01*
X146050249Y-134622100D01*
X145954134Y-134647853D01*
X145867964Y-134697605D01*
X145867961Y-134697607D01*
X145797607Y-134767961D01*
X145797605Y-134767964D01*
X145747853Y-134854134D01*
X145722100Y-134950249D01*
X127025500Y-134950249D01*
X127025500Y-134395249D01*
X129142100Y-134395249D01*
X129142100Y-134494751D01*
X129154976Y-134542807D01*
X129167853Y-134590865D01*
X129174340Y-134602100D01*
X129217605Y-134677036D01*
X129287964Y-134747395D01*
X129374136Y-134797147D01*
X129470249Y-134822900D01*
X129470251Y-134822900D01*
X129569747Y-134822900D01*
X129569751Y-134822900D01*
X129665864Y-134797147D01*
X129752036Y-134747395D01*
X129822395Y-134677036D01*
X129872147Y-134590864D01*
X129897900Y-134494751D01*
X129897900Y-134395249D01*
X129872147Y-134299136D01*
X129872144Y-134299130D01*
X129869252Y-134294120D01*
X129869251Y-134294119D01*
X129838149Y-134240249D01*
X132322100Y-134240249D01*
X132322100Y-134339751D01*
X132325693Y-134353159D01*
X132347853Y-134435865D01*
X132361644Y-134459751D01*
X132397605Y-134522036D01*
X132467964Y-134592395D01*
X132542588Y-134635480D01*
X132553943Y-134642036D01*
X132554136Y-134642147D01*
X132650249Y-134667900D01*
X132650251Y-134667900D01*
X132749749Y-134667900D01*
X132749751Y-134667900D01*
X132845864Y-134642147D01*
X132932036Y-134592395D01*
X133002395Y-134522036D01*
X133052147Y-134435864D01*
X133077900Y-134339751D01*
X133077900Y-134240249D01*
X133322100Y-134240249D01*
X133322100Y-134339751D01*
X133336971Y-134395251D01*
X133347853Y-134435865D01*
X133361644Y-134459751D01*
X133397605Y-134522036D01*
X133467964Y-134592395D01*
X133542588Y-134635480D01*
X133553943Y-134642036D01*
X133554136Y-134642147D01*
X133650249Y-134667900D01*
X133650251Y-134667900D01*
X133749749Y-134667900D01*
X133749751Y-134667900D01*
X133845864Y-134642147D01*
X133932036Y-134592395D01*
X134002395Y-134522036D01*
X134052147Y-134435864D01*
X134072408Y-134360249D01*
X143322100Y-134360249D01*
X143322100Y-134459751D01*
X143330646Y-134491645D01*
X143347853Y-134555865D01*
X143368060Y-134590864D01*
X143397605Y-134642036D01*
X143467964Y-134712395D01*
X143554136Y-134762147D01*
X143650249Y-134787900D01*
X143650251Y-134787900D01*
X143749749Y-134787900D01*
X143749751Y-134787900D01*
X143845864Y-134762147D01*
X143932036Y-134712395D01*
X144002395Y-134642036D01*
X144052147Y-134555864D01*
X144077900Y-134459751D01*
X144077900Y-134360249D01*
X144322100Y-134360249D01*
X144322100Y-134459751D01*
X144339920Y-134526257D01*
X144347853Y-134555865D01*
X144368060Y-134590864D01*
X144397605Y-134642036D01*
X144467964Y-134712395D01*
X144554136Y-134762147D01*
X144650249Y-134787900D01*
X144650251Y-134787900D01*
X144749749Y-134787900D01*
X144749751Y-134787900D01*
X144845864Y-134762147D01*
X144932036Y-134712395D01*
X145002395Y-134642036D01*
X145052147Y-134555864D01*
X145077900Y-134459751D01*
X145077900Y-134360249D01*
X145052147Y-134264136D01*
X145002395Y-134177964D01*
X144932036Y-134107605D01*
X144888950Y-134082729D01*
X144845865Y-134057853D01*
X144774252Y-134038665D01*
X144749751Y-134032100D01*
X144650249Y-134032100D01*
X144554134Y-134057853D01*
X144467964Y-134107605D01*
X144467961Y-134107607D01*
X144397607Y-134177961D01*
X144397605Y-134177964D01*
X144347853Y-134264134D01*
X144338476Y-134299133D01*
X144322100Y-134360249D01*
X144077900Y-134360249D01*
X144052147Y-134264136D01*
X144002395Y-134177964D01*
X143932036Y-134107605D01*
X143888950Y-134082729D01*
X143845865Y-134057853D01*
X143774252Y-134038665D01*
X143749751Y-134032100D01*
X143650249Y-134032100D01*
X143625748Y-134038665D01*
X143554134Y-134057853D01*
X143467964Y-134107605D01*
X143467961Y-134107607D01*
X143397607Y-134177961D01*
X143397605Y-134177964D01*
X143347853Y-134264134D01*
X143327592Y-134339751D01*
X143322100Y-134360249D01*
X134072408Y-134360249D01*
X134077900Y-134339751D01*
X134077900Y-134240249D01*
X134052147Y-134144136D01*
X134002395Y-134057964D01*
X133932036Y-133987605D01*
X133888950Y-133962729D01*
X133845865Y-133937853D01*
X133797807Y-133924976D01*
X133749751Y-133912100D01*
X133650249Y-133912100D01*
X133554134Y-133937853D01*
X133467964Y-133987605D01*
X133467961Y-133987607D01*
X133397607Y-134057961D01*
X133397605Y-134057964D01*
X133347853Y-134144134D01*
X133346359Y-134149710D01*
X133322100Y-134240249D01*
X133077900Y-134240249D01*
X133052147Y-134144136D01*
X133002395Y-134057964D01*
X132932036Y-133987605D01*
X132888950Y-133962729D01*
X132845865Y-133937853D01*
X132797807Y-133924976D01*
X132749751Y-133912100D01*
X132650249Y-133912100D01*
X132554134Y-133937853D01*
X132467964Y-133987605D01*
X132467961Y-133987607D01*
X132397607Y-134057961D01*
X132397605Y-134057964D01*
X132347853Y-134144134D01*
X132335420Y-134190536D01*
X132322100Y-134240249D01*
X129838149Y-134240249D01*
X129822399Y-134212970D01*
X129822396Y-134212967D01*
X129822395Y-134212964D01*
X129752036Y-134142605D01*
X129708950Y-134117729D01*
X129665865Y-134092853D01*
X129617807Y-134079976D01*
X129569751Y-134067100D01*
X129470249Y-134067100D01*
X129374134Y-134092853D01*
X129287964Y-134142605D01*
X129287961Y-134142607D01*
X129217607Y-134212961D01*
X129217605Y-134212964D01*
X129167853Y-134299134D01*
X129142100Y-134395249D01*
X127025500Y-134395249D01*
X127025500Y-133900249D01*
X148702100Y-133900249D01*
X148702100Y-133999750D01*
X148727853Y-134095865D01*
X148752729Y-134138950D01*
X148777605Y-134182036D01*
X148847964Y-134252395D01*
X148920231Y-134294119D01*
X148931908Y-134300861D01*
X148934136Y-134302147D01*
X149030249Y-134327900D01*
X149030251Y-134327900D01*
X149129748Y-134327900D01*
X149129751Y-134327900D01*
X149225864Y-134302147D01*
X149225868Y-134302144D01*
X149230658Y-134300861D01*
X149300508Y-134302524D01*
X149358371Y-134341686D01*
X149385875Y-134405914D01*
X149382527Y-134452728D01*
X149372099Y-134491645D01*
X149372099Y-134591148D01*
X149397852Y-134687263D01*
X149422728Y-134730348D01*
X149447604Y-134773434D01*
X149517963Y-134843793D01*
X149604135Y-134893545D01*
X149700248Y-134919298D01*
X149700250Y-134919298D01*
X149799747Y-134919298D01*
X149799750Y-134919298D01*
X149866009Y-134901544D01*
X149935856Y-134903207D01*
X149993719Y-134942369D01*
X150021223Y-135006598D01*
X150022100Y-135021319D01*
X150022100Y-135029751D01*
X150027459Y-135049750D01*
X150047853Y-135125865D01*
X150072729Y-135168950D01*
X150097605Y-135212036D01*
X150167964Y-135282395D01*
X150254136Y-135332147D01*
X150350249Y-135357900D01*
X150350251Y-135357900D01*
X150449749Y-135357900D01*
X150449751Y-135357900D01*
X150545864Y-135332147D01*
X150632036Y-135282395D01*
X150702395Y-135212036D01*
X150752147Y-135125864D01*
X150777900Y-135029751D01*
X150777900Y-134930249D01*
X150752147Y-134834136D01*
X150702395Y-134747964D01*
X150632036Y-134677605D01*
X150570433Y-134642038D01*
X150545865Y-134627853D01*
X150497807Y-134614976D01*
X150449751Y-134602100D01*
X150350249Y-134602100D01*
X150350247Y-134602100D01*
X150283991Y-134619853D01*
X150214141Y-134618190D01*
X150156279Y-134579026D01*
X150128776Y-134514798D01*
X150127899Y-134500078D01*
X150127899Y-134491649D01*
X150127899Y-134491647D01*
X150102146Y-134395534D01*
X150101981Y-134395249D01*
X150081774Y-134360249D01*
X150052394Y-134309362D01*
X149982035Y-134239003D01*
X149936929Y-134212961D01*
X149895864Y-134189251D01*
X149847806Y-134176374D01*
X149799750Y-134163498D01*
X149700248Y-134163498D01*
X149599339Y-134190536D01*
X149529489Y-134188873D01*
X149471627Y-134149710D01*
X149444123Y-134085481D01*
X149447471Y-134038671D01*
X149457900Y-133999751D01*
X149457900Y-133900249D01*
X149432147Y-133804136D01*
X149431433Y-133802900D01*
X149407904Y-133762147D01*
X149382395Y-133717964D01*
X149312036Y-133647605D01*
X149268950Y-133622729D01*
X149225865Y-133597853D01*
X149177807Y-133584976D01*
X149129751Y-133572100D01*
X149030249Y-133572100D01*
X148934134Y-133597853D01*
X148847964Y-133647605D01*
X148847961Y-133647607D01*
X148777607Y-133717961D01*
X148777605Y-133717964D01*
X148727853Y-133804134D01*
X148702100Y-133900249D01*
X127025500Y-133900249D01*
X127025500Y-133350249D01*
X129142100Y-133350249D01*
X129142100Y-133449751D01*
X129146014Y-133464358D01*
X129167853Y-133545865D01*
X129192729Y-133588950D01*
X129217605Y-133632036D01*
X129287964Y-133702395D01*
X129374136Y-133752147D01*
X129470249Y-133777900D01*
X129470251Y-133777900D01*
X129569749Y-133777900D01*
X129569751Y-133777900D01*
X129665864Y-133752147D01*
X129752036Y-133702395D01*
X129822395Y-133632036D01*
X129872147Y-133545864D01*
X129897900Y-133449751D01*
X129897900Y-133375249D01*
X131172100Y-133375249D01*
X131172100Y-133474750D01*
X131197853Y-133570865D01*
X131213435Y-133597853D01*
X131247605Y-133657036D01*
X131317964Y-133727395D01*
X131404136Y-133777147D01*
X131500249Y-133802900D01*
X131500251Y-133802900D01*
X131599749Y-133802900D01*
X131599751Y-133802900D01*
X131695864Y-133777147D01*
X131782036Y-133727395D01*
X131852395Y-133657036D01*
X131902147Y-133570864D01*
X131927900Y-133474751D01*
X131927900Y-133375249D01*
X131923881Y-133360249D01*
X143322100Y-133360249D01*
X143322100Y-133459751D01*
X143326119Y-133474749D01*
X143347853Y-133555865D01*
X143356513Y-133570864D01*
X143397605Y-133642036D01*
X143467964Y-133712395D01*
X143554136Y-133762147D01*
X143650249Y-133787900D01*
X143749751Y-133787900D01*
X143845864Y-133762147D01*
X143932036Y-133712395D01*
X144002395Y-133642036D01*
X144052147Y-133555864D01*
X144077900Y-133459751D01*
X144077900Y-133360249D01*
X144075221Y-133350249D01*
X144322100Y-133350249D01*
X144322100Y-133449751D01*
X144324620Y-133459159D01*
X144324621Y-133459161D01*
X144347853Y-133545865D01*
X144372729Y-133588950D01*
X144397605Y-133632036D01*
X144467964Y-133702395D01*
X144554136Y-133752147D01*
X144650249Y-133777900D01*
X144650251Y-133777900D01*
X144749749Y-133777900D01*
X144749751Y-133777900D01*
X144845864Y-133752147D01*
X144932036Y-133702395D01*
X145002395Y-133632036D01*
X145052147Y-133545864D01*
X145077900Y-133449751D01*
X145077900Y-133350249D01*
X145052147Y-133254136D01*
X145002395Y-133167964D01*
X144932036Y-133097605D01*
X144888950Y-133072729D01*
X144845865Y-133047853D01*
X144787072Y-133032100D01*
X144749751Y-133022100D01*
X144650249Y-133022100D01*
X144554134Y-133047853D01*
X144467964Y-133097605D01*
X144467961Y-133097607D01*
X144397607Y-133167961D01*
X144397605Y-133167964D01*
X144347853Y-133254134D01*
X144328089Y-133327899D01*
X144322100Y-133350249D01*
X144075221Y-133350249D01*
X144052147Y-133264136D01*
X144002395Y-133177964D01*
X143932036Y-133107605D01*
X143888950Y-133082729D01*
X143845865Y-133057853D01*
X143797807Y-133044976D01*
X143749751Y-133032100D01*
X143650249Y-133032100D01*
X143554134Y-133057853D01*
X143467964Y-133107605D01*
X143467961Y-133107607D01*
X143397607Y-133177961D01*
X143397605Y-133177964D01*
X143347853Y-133264134D01*
X143337668Y-133302146D01*
X143322100Y-133360249D01*
X131923881Y-133360249D01*
X131902147Y-133279136D01*
X131852395Y-133192964D01*
X131782036Y-133122605D01*
X131738735Y-133097605D01*
X131695865Y-133072853D01*
X131639882Y-133057853D01*
X131599751Y-133047100D01*
X131500249Y-133047100D01*
X131404134Y-133072853D01*
X131317964Y-133122605D01*
X131317961Y-133122607D01*
X131247607Y-133192961D01*
X131247605Y-133192964D01*
X131197853Y-133279134D01*
X131172100Y-133375249D01*
X129897900Y-133375249D01*
X129897900Y-133350249D01*
X129872147Y-133254136D01*
X129822395Y-133167964D01*
X129752036Y-133097605D01*
X129708950Y-133072729D01*
X129665865Y-133047853D01*
X129607072Y-133032100D01*
X129569751Y-133022100D01*
X129470249Y-133022100D01*
X129374134Y-133047853D01*
X129287964Y-133097605D01*
X129287961Y-133097607D01*
X129217607Y-133167961D01*
X129217605Y-133167964D01*
X129167853Y-133254134D01*
X129148088Y-133327900D01*
X129142100Y-133350249D01*
X127025500Y-133350249D01*
X127025500Y-132900249D01*
X148872100Y-132900249D01*
X148872100Y-132999750D01*
X148897853Y-133095865D01*
X148913292Y-133122605D01*
X148947605Y-133182036D01*
X149017964Y-133252395D01*
X149104136Y-133302147D01*
X149200249Y-133327900D01*
X149200251Y-133327900D01*
X149299749Y-133327900D01*
X149299751Y-133327900D01*
X149395864Y-133302147D01*
X149482036Y-133252395D01*
X149552395Y-133182036D01*
X149602147Y-133095864D01*
X149627900Y-132999751D01*
X149627900Y-132900249D01*
X150272100Y-132900249D01*
X150272100Y-132999750D01*
X150297853Y-133095865D01*
X150313292Y-133122605D01*
X150347605Y-133182036D01*
X150417964Y-133252395D01*
X150504136Y-133302147D01*
X150600249Y-133327900D01*
X150600251Y-133327900D01*
X150699749Y-133327900D01*
X150699751Y-133327900D01*
X150795864Y-133302147D01*
X150882036Y-133252395D01*
X150952395Y-133182036D01*
X151002147Y-133095864D01*
X151027900Y-132999751D01*
X151027900Y-132900249D01*
X151002147Y-132804136D01*
X150952395Y-132717964D01*
X150882036Y-132647605D01*
X150838950Y-132622729D01*
X150795865Y-132597853D01*
X150747807Y-132584976D01*
X150699751Y-132572100D01*
X150600249Y-132572100D01*
X150504134Y-132597853D01*
X150417964Y-132647605D01*
X150417961Y-132647607D01*
X150347607Y-132717961D01*
X150347605Y-132717964D01*
X150297853Y-132804134D01*
X150272100Y-132900249D01*
X149627900Y-132900249D01*
X149602147Y-132804136D01*
X149552395Y-132717964D01*
X149482036Y-132647605D01*
X149438950Y-132622729D01*
X149395865Y-132597853D01*
X149347807Y-132584976D01*
X149299751Y-132572100D01*
X149200249Y-132572100D01*
X149104134Y-132597853D01*
X149017964Y-132647605D01*
X149017961Y-132647607D01*
X148947607Y-132717961D01*
X148947605Y-132717964D01*
X148897853Y-132804134D01*
X148872100Y-132900249D01*
X127025500Y-132900249D01*
X127025500Y-131850249D01*
X135397100Y-131850249D01*
X135397100Y-131949750D01*
X135422853Y-132045865D01*
X135441349Y-132077900D01*
X135472605Y-132132036D01*
X135542964Y-132202395D01*
X135629136Y-132252147D01*
X135725249Y-132277900D01*
X135725251Y-132277900D01*
X135824749Y-132277900D01*
X135824751Y-132277900D01*
X135920864Y-132252147D01*
X136007036Y-132202395D01*
X136012319Y-132197112D01*
X136073642Y-132163627D01*
X136143334Y-132168611D01*
X136187681Y-132197112D01*
X136192964Y-132202395D01*
X136279136Y-132252147D01*
X136375249Y-132277900D01*
X136375251Y-132277900D01*
X136474749Y-132277900D01*
X136474751Y-132277900D01*
X136570864Y-132252147D01*
X136657036Y-132202395D01*
X136662319Y-132197112D01*
X136723642Y-132163627D01*
X136793334Y-132168611D01*
X136837681Y-132197112D01*
X136842964Y-132202395D01*
X136929136Y-132252147D01*
X137025249Y-132277900D01*
X137025251Y-132277900D01*
X137124749Y-132277900D01*
X137124751Y-132277900D01*
X137220864Y-132252147D01*
X137307036Y-132202395D01*
X137377395Y-132132036D01*
X137427147Y-132045864D01*
X137452900Y-131949751D01*
X137452900Y-131850249D01*
X137997100Y-131850249D01*
X137997100Y-131949750D01*
X138022853Y-132045865D01*
X138041349Y-132077900D01*
X138072605Y-132132036D01*
X138142964Y-132202395D01*
X138229136Y-132252147D01*
X138325249Y-132277900D01*
X138325251Y-132277900D01*
X138424749Y-132277900D01*
X138424751Y-132277900D01*
X138520864Y-132252147D01*
X138607036Y-132202395D01*
X138677395Y-132132036D01*
X138727147Y-132045864D01*
X138752900Y-131949751D01*
X138752900Y-131850249D01*
X139297100Y-131850249D01*
X139297100Y-131949750D01*
X139322853Y-132045865D01*
X139341349Y-132077900D01*
X139372605Y-132132036D01*
X139442964Y-132202395D01*
X139529136Y-132252147D01*
X139625249Y-132277900D01*
X139625251Y-132277900D01*
X139724749Y-132277900D01*
X139724751Y-132277900D01*
X139820864Y-132252147D01*
X139907036Y-132202395D01*
X139977395Y-132132036D01*
X140027147Y-132045864D01*
X140052900Y-131949751D01*
X140052900Y-131949748D01*
X140053663Y-131946901D01*
X140090028Y-131887241D01*
X140152874Y-131856711D01*
X140205529Y-131859218D01*
X140275249Y-131877900D01*
X140275251Y-131877900D01*
X140374749Y-131877900D01*
X140374751Y-131877900D01*
X140470864Y-131852147D01*
X140557036Y-131802395D01*
X140557045Y-131802385D01*
X140561813Y-131798728D01*
X140626981Y-131773530D01*
X140695427Y-131787564D01*
X140724987Y-131809418D01*
X140742964Y-131827395D01*
X140829136Y-131877147D01*
X140925249Y-131902900D01*
X140925251Y-131902900D01*
X141024749Y-131902900D01*
X141024751Y-131902900D01*
X141120864Y-131877147D01*
X141207036Y-131827395D01*
X141225012Y-131809418D01*
X141286332Y-131775933D01*
X141356024Y-131780916D01*
X141388182Y-131798725D01*
X141392963Y-131802394D01*
X141392964Y-131802395D01*
X141436263Y-131827394D01*
X141475848Y-131850249D01*
X141479136Y-131852147D01*
X141575249Y-131877900D01*
X141575251Y-131877900D01*
X141674749Y-131877900D01*
X141674751Y-131877900D01*
X141770864Y-131852147D01*
X141774151Y-131850249D01*
X142547100Y-131850249D01*
X142547100Y-131949750D01*
X142572853Y-132045865D01*
X142591349Y-132077900D01*
X142622605Y-132132036D01*
X142692964Y-132202395D01*
X142779136Y-132252147D01*
X142875249Y-132277900D01*
X142875251Y-132277900D01*
X142974749Y-132277900D01*
X142974751Y-132277900D01*
X143070864Y-132252147D01*
X143157036Y-132202395D01*
X143227395Y-132132036D01*
X143277147Y-132045864D01*
X143302900Y-131949751D01*
X143302900Y-131850249D01*
X143277147Y-131754136D01*
X143274615Y-131749751D01*
X143248272Y-131704123D01*
X143248271Y-131704122D01*
X143227395Y-131667964D01*
X143209680Y-131650249D01*
X146097100Y-131650249D01*
X146097100Y-131749751D01*
X146104115Y-131775933D01*
X146122853Y-131845865D01*
X146141349Y-131877900D01*
X146172605Y-131932036D01*
X146242964Y-132002395D01*
X146329136Y-132052147D01*
X146425249Y-132077900D01*
X146425251Y-132077900D01*
X146524749Y-132077900D01*
X146524751Y-132077900D01*
X146620864Y-132052147D01*
X146707036Y-132002395D01*
X146777395Y-131932036D01*
X146827147Y-131845864D01*
X146852900Y-131749751D01*
X146852900Y-131650249D01*
X148097100Y-131650249D01*
X148097100Y-131749751D01*
X148104115Y-131775933D01*
X148122853Y-131845865D01*
X148141349Y-131877900D01*
X148172605Y-131932036D01*
X148242964Y-132002395D01*
X148329136Y-132052147D01*
X148425249Y-132077900D01*
X148425251Y-132077900D01*
X148524749Y-132077900D01*
X148524751Y-132077900D01*
X148620864Y-132052147D01*
X148707036Y-132002395D01*
X148777395Y-131932036D01*
X148827147Y-131845864D01*
X148852900Y-131749751D01*
X148852900Y-131650249D01*
X148827147Y-131554136D01*
X148823519Y-131547853D01*
X148808651Y-131522100D01*
X148777395Y-131467964D01*
X148707036Y-131397605D01*
X148663950Y-131372729D01*
X148620865Y-131347853D01*
X148572807Y-131334976D01*
X148524751Y-131322100D01*
X148425249Y-131322100D01*
X148329134Y-131347853D01*
X148242964Y-131397605D01*
X148242961Y-131397607D01*
X148172607Y-131467961D01*
X148172605Y-131467964D01*
X148122853Y-131554134D01*
X148109789Y-131602891D01*
X148097100Y-131650249D01*
X146852900Y-131650249D01*
X146827147Y-131554136D01*
X146823519Y-131547853D01*
X146808651Y-131522100D01*
X146777395Y-131467964D01*
X146707036Y-131397605D01*
X146663950Y-131372729D01*
X146620865Y-131347853D01*
X146572807Y-131334976D01*
X146524751Y-131322100D01*
X146425249Y-131322100D01*
X146329134Y-131347853D01*
X146242964Y-131397605D01*
X146242961Y-131397607D01*
X146172607Y-131467961D01*
X146172605Y-131467964D01*
X146122853Y-131554134D01*
X146109789Y-131602891D01*
X146097100Y-131650249D01*
X143209680Y-131650249D01*
X143157036Y-131597605D01*
X143113950Y-131572729D01*
X143070865Y-131547853D01*
X143022807Y-131534976D01*
X142974751Y-131522100D01*
X142875249Y-131522100D01*
X142779134Y-131547853D01*
X142692964Y-131597605D01*
X142692961Y-131597607D01*
X142622607Y-131667961D01*
X142622605Y-131667964D01*
X142572853Y-131754134D01*
X142547100Y-131850249D01*
X141774151Y-131850249D01*
X141857036Y-131802395D01*
X141927395Y-131732036D01*
X141977147Y-131645864D01*
X142002900Y-131549751D01*
X142002900Y-131450249D01*
X141977147Y-131354136D01*
X141973519Y-131347853D01*
X141958651Y-131322100D01*
X141927395Y-131267964D01*
X141857036Y-131197605D01*
X141813950Y-131172729D01*
X141770865Y-131147853D01*
X141722807Y-131134976D01*
X141674751Y-131122100D01*
X141575249Y-131122100D01*
X141479134Y-131147853D01*
X141392964Y-131197605D01*
X141392960Y-131197608D01*
X141374985Y-131215583D01*
X141313662Y-131249067D01*
X141243970Y-131244081D01*
X141211819Y-131226275D01*
X141207039Y-131222607D01*
X141194873Y-131215583D01*
X141179724Y-131206836D01*
X141120865Y-131172853D01*
X141072807Y-131159976D01*
X141024751Y-131147100D01*
X140925249Y-131147100D01*
X140829134Y-131172853D01*
X140742957Y-131222609D01*
X140738176Y-131226278D01*
X140673006Y-131251470D01*
X140604562Y-131237430D01*
X140575012Y-131215581D01*
X140557038Y-131197607D01*
X140557036Y-131197605D01*
X140513950Y-131172729D01*
X140470865Y-131147853D01*
X140422807Y-131134976D01*
X140374751Y-131122100D01*
X140275249Y-131122100D01*
X140179134Y-131147853D01*
X140092964Y-131197605D01*
X140092961Y-131197607D01*
X140022607Y-131267961D01*
X140022605Y-131267964D01*
X139972853Y-131354134D01*
X139946336Y-131453099D01*
X139909970Y-131512759D01*
X139847123Y-131543288D01*
X139794469Y-131540780D01*
X139724752Y-131522100D01*
X139724751Y-131522100D01*
X139625249Y-131522100D01*
X139529134Y-131547853D01*
X139442964Y-131597605D01*
X139442961Y-131597607D01*
X139372607Y-131667961D01*
X139372605Y-131667964D01*
X139322853Y-131754134D01*
X139297100Y-131850249D01*
X138752900Y-131850249D01*
X138727147Y-131754136D01*
X138677395Y-131667964D01*
X138607036Y-131597605D01*
X138563950Y-131572729D01*
X138520865Y-131547853D01*
X138472807Y-131534976D01*
X138424751Y-131522100D01*
X138325249Y-131522100D01*
X138229134Y-131547853D01*
X138142964Y-131597605D01*
X138142961Y-131597607D01*
X138072607Y-131667961D01*
X138072605Y-131667964D01*
X138022853Y-131754134D01*
X137997100Y-131850249D01*
X137452900Y-131850249D01*
X137427147Y-131754136D01*
X137377395Y-131667964D01*
X137307036Y-131597605D01*
X137263950Y-131572729D01*
X137220865Y-131547853D01*
X137172807Y-131534976D01*
X137124751Y-131522100D01*
X137025249Y-131522100D01*
X136929134Y-131547853D01*
X136842964Y-131597605D01*
X136842958Y-131597609D01*
X136837677Y-131602891D01*
X136776353Y-131636373D01*
X136706661Y-131631386D01*
X136662323Y-131602891D01*
X136657041Y-131597609D01*
X136657038Y-131597607D01*
X136657036Y-131597605D01*
X136613950Y-131572729D01*
X136570865Y-131547853D01*
X136522807Y-131534976D01*
X136474751Y-131522100D01*
X136375249Y-131522100D01*
X136279134Y-131547853D01*
X136192964Y-131597605D01*
X136192958Y-131597609D01*
X136187677Y-131602891D01*
X136126353Y-131636373D01*
X136056661Y-131631386D01*
X136012323Y-131602891D01*
X136007041Y-131597609D01*
X136007038Y-131597607D01*
X136007036Y-131597605D01*
X135963950Y-131572729D01*
X135920865Y-131547853D01*
X135872807Y-131534976D01*
X135824751Y-131522100D01*
X135725249Y-131522100D01*
X135629134Y-131547853D01*
X135542964Y-131597605D01*
X135542961Y-131597607D01*
X135472607Y-131667961D01*
X135472605Y-131667964D01*
X135422853Y-131754134D01*
X135397100Y-131850249D01*
X127025500Y-131850249D01*
X127025500Y-130809756D01*
X127027027Y-130790359D01*
X127035862Y-130734575D01*
X127035863Y-130734573D01*
X127047848Y-130697680D01*
X127069011Y-130656146D01*
X127091810Y-130624767D01*
X127124767Y-130591810D01*
X127156146Y-130569011D01*
X127197680Y-130547848D01*
X127234566Y-130535863D01*
X127290370Y-130527025D01*
X127309757Y-130525500D01*
X127751553Y-130525500D01*
X127751554Y-130525500D01*
X127849616Y-130493637D01*
X127933032Y-130433032D01*
X127993637Y-130349616D01*
X128025500Y-130251554D01*
X128025500Y-130200000D01*
X128025500Y-130191715D01*
X128025500Y-130100249D01*
X138047100Y-130100249D01*
X138047100Y-130199751D01*
X138049135Y-130207344D01*
X138072853Y-130295865D01*
X138075097Y-130299751D01*
X138122605Y-130382036D01*
X138192964Y-130452395D01*
X138279136Y-130502147D01*
X138375249Y-130527900D01*
X138375251Y-130527900D01*
X138474749Y-130527900D01*
X138474751Y-130527900D01*
X138570864Y-130502147D01*
X138657036Y-130452395D01*
X138702735Y-130406695D01*
X138764056Y-130373211D01*
X138833747Y-130378195D01*
X138889681Y-130420066D01*
X138897404Y-130431773D01*
X138897603Y-130432033D01*
X138897605Y-130432036D01*
X138967964Y-130502395D01*
X139054136Y-130552147D01*
X139150249Y-130577900D01*
X139150251Y-130577900D01*
X139249749Y-130577900D01*
X139249751Y-130577900D01*
X139345864Y-130552147D01*
X139432036Y-130502395D01*
X139493586Y-130440844D01*
X139554905Y-130407362D01*
X139624597Y-130412346D01*
X139680531Y-130454217D01*
X139688650Y-130466526D01*
X139697605Y-130482036D01*
X139767964Y-130552395D01*
X139812183Y-130577925D01*
X139854132Y-130602145D01*
X139854136Y-130602147D01*
X139950249Y-130627900D01*
X139950251Y-130627900D01*
X140049749Y-130627900D01*
X140049751Y-130627900D01*
X140145864Y-130602147D01*
X140228870Y-130554223D01*
X140296770Y-130537749D01*
X140362797Y-130560601D01*
X140405988Y-130615521D01*
X140410645Y-130629513D01*
X140413711Y-130640957D01*
X140419154Y-130650384D01*
X140463464Y-130727130D01*
X140533823Y-130797489D01*
X140619995Y-130847241D01*
X140716108Y-130872994D01*
X140716110Y-130872994D01*
X140815608Y-130872994D01*
X140815610Y-130872994D01*
X140911723Y-130847241D01*
X140997895Y-130797489D01*
X141068254Y-130727130D01*
X141118006Y-130640958D01*
X141143759Y-130544845D01*
X141143759Y-130445343D01*
X141118006Y-130349230D01*
X141068254Y-130263058D01*
X140997895Y-130192699D01*
X140997892Y-130192697D01*
X140997888Y-130192694D01*
X140966392Y-130174509D01*
X140966389Y-130174509D01*
X140911724Y-130142947D01*
X140861799Y-130129570D01*
X140815610Y-130117194D01*
X140716108Y-130117194D01*
X140619995Y-130142947D01*
X140619994Y-130142947D01*
X140619992Y-130142948D01*
X140619991Y-130142948D01*
X140536987Y-130190871D01*
X140469087Y-130207344D01*
X140403060Y-130184491D01*
X140359869Y-130129570D01*
X140355212Y-130115576D01*
X140352147Y-130104136D01*
X140335469Y-130075249D01*
X142072100Y-130075249D01*
X142072100Y-130174751D01*
X142076908Y-130192694D01*
X142097853Y-130270865D01*
X142114531Y-130299751D01*
X142147605Y-130357036D01*
X142217964Y-130427395D01*
X142304136Y-130477147D01*
X142400249Y-130502900D01*
X142400251Y-130502900D01*
X142499749Y-130502900D01*
X142499751Y-130502900D01*
X142595864Y-130477147D01*
X142682036Y-130427395D01*
X142752395Y-130357036D01*
X142802147Y-130270864D01*
X142827900Y-130174751D01*
X142827900Y-130075249D01*
X142802147Y-129979136D01*
X142752395Y-129892964D01*
X142682036Y-129822605D01*
X142595864Y-129772853D01*
X142499751Y-129747100D01*
X142400249Y-129747100D01*
X142304134Y-129772853D01*
X142217964Y-129822605D01*
X142217961Y-129822607D01*
X142147607Y-129892961D01*
X142147605Y-129892964D01*
X142097853Y-129979134D01*
X142091155Y-130004134D01*
X142072100Y-130075249D01*
X140335469Y-130075249D01*
X140302395Y-130017964D01*
X140232036Y-129947605D01*
X140180692Y-129917961D01*
X140145865Y-129897853D01*
X140097807Y-129884976D01*
X140049751Y-129872100D01*
X139950249Y-129872100D01*
X139854134Y-129897853D01*
X139767964Y-129947604D01*
X139706416Y-130009153D01*
X139645092Y-130042637D01*
X139575401Y-130037652D01*
X139519467Y-129995781D01*
X139511348Y-129983471D01*
X139508844Y-129979134D01*
X139502395Y-129967964D01*
X139432036Y-129897605D01*
X139387861Y-129872100D01*
X139345865Y-129847853D01*
X139297807Y-129834976D01*
X139249751Y-129822100D01*
X139150249Y-129822100D01*
X139054134Y-129847853D01*
X138967964Y-129897605D01*
X138967960Y-129897608D01*
X138922264Y-129943304D01*
X138860941Y-129976788D01*
X138791249Y-129971803D01*
X138735316Y-129929931D01*
X138727595Y-129918225D01*
X138727397Y-129917967D01*
X138727395Y-129917964D01*
X138657036Y-129847605D01*
X138612861Y-129822100D01*
X138570865Y-129797853D01*
X138522807Y-129784976D01*
X138474751Y-129772100D01*
X138375249Y-129772100D01*
X138279134Y-129797853D01*
X138192964Y-129847605D01*
X138192961Y-129847607D01*
X138122607Y-129917961D01*
X138122605Y-129917964D01*
X138072853Y-130004134D01*
X138053088Y-130077900D01*
X138047100Y-130100249D01*
X128025500Y-130100249D01*
X128025500Y-129650249D01*
X148122100Y-129650249D01*
X148122100Y-129749751D01*
X148128088Y-129772100D01*
X148147853Y-129845865D01*
X148172729Y-129888950D01*
X148197605Y-129932036D01*
X148267964Y-130002395D01*
X148354136Y-130052147D01*
X148450249Y-130077900D01*
X148450251Y-130077900D01*
X148549749Y-130077900D01*
X148549751Y-130077900D01*
X148645864Y-130052147D01*
X148732036Y-130002395D01*
X148802395Y-129932036D01*
X148852147Y-129845864D01*
X148877900Y-129749751D01*
X148877900Y-129650249D01*
X148852147Y-129554136D01*
X148802395Y-129467964D01*
X148732036Y-129397605D01*
X148688950Y-129372729D01*
X148645865Y-129347853D01*
X148597807Y-129334976D01*
X148549751Y-129322100D01*
X148450249Y-129322100D01*
X148354134Y-129347853D01*
X148267964Y-129397605D01*
X148267961Y-129397607D01*
X148197607Y-129467961D01*
X148197605Y-129467964D01*
X148147853Y-129554134D01*
X148122100Y-129650249D01*
X128025500Y-129650249D01*
X128025500Y-127309756D01*
X128027027Y-127290359D01*
X128035862Y-127234575D01*
X128035863Y-127234573D01*
X128047848Y-127197680D01*
X128069011Y-127156146D01*
X128091810Y-127124767D01*
X128124767Y-127091810D01*
X128156146Y-127069011D01*
X128197680Y-127047848D01*
X128234566Y-127035863D01*
X128290370Y-127027025D01*
X128309757Y-127025500D01*
X134990243Y-127025500D01*
X135009640Y-127027027D01*
G37*
%TD.AperFunction*%
%TD*%
M02*
