%TF.GenerationSoftware,KiCad,Pcbnew,9.0.7*%
%TF.CreationDate,2026-02-26T21:49:05+01:00*%
%TF.ProjectId,Expansion_Card,45787061-6e73-4696-9f6e-5f436172642e,X1*%
%TF.SameCoordinates,Original*%
%TF.FileFunction,Soldermask,Top*%
%TF.FilePolarity,Negative*%
%FSLAX46Y46*%
G04 Gerber Fmt 4.6, Leading zero omitted, Abs format (unit mm)*
G04 Created by KiCad (PCBNEW 9.0.7) date 2026-02-26 21:49:05*
%MOMM*%
%LPD*%
G01*
G04 APERTURE LIST*
G04 Aperture macros list*
%AMRoundRect*
0 Rectangle with rounded corners*
0 $1 Rounding radius*
0 $2 $3 $4 $5 $6 $7 $8 $9 X,Y pos of 4 corners*
0 Add a 4 corners polygon primitive as box body*
4,1,4,$2,$3,$4,$5,$6,$7,$8,$9,$2,$3,0*
0 Add four circle primitives for the rounded corners*
1,1,$1+$1,$2,$3*
1,1,$1+$1,$4,$5*
1,1,$1+$1,$6,$7*
1,1,$1+$1,$8,$9*
0 Add four rect primitives between the rounded corners*
20,1,$1+$1,$2,$3,$4,$5,0*
20,1,$1+$1,$4,$5,$6,$7,0*
20,1,$1+$1,$6,$7,$8,$9,0*
20,1,$1+$1,$8,$9,$2,$3,0*%
G04 Aperture macros list end*
%ADD10C,0.100000*%
%ADD11O,1.354000X2.504000*%
%ADD12RoundRect,0.102000X0.575000X-0.850000X0.575000X0.850000X-0.575000X0.850000X-0.575000X-0.850000X0*%
%ADD13R,0.380000X1.000000*%
%ADD14R,0.700000X1.150000*%
%ADD15RoundRect,0.140000X-0.140000X-0.170000X0.140000X-0.170000X0.140000X0.170000X-0.140000X0.170000X0*%
%ADD16RoundRect,0.075000X-0.175000X-0.175000X0.175000X-0.175000X0.175000X0.175000X-0.175000X0.175000X0*%
%ADD17C,2.200000*%
%ADD18RoundRect,0.096750X-0.665250X-0.225750X0.665250X-0.225750X0.665250X0.225750X-0.665250X0.225750X0*%
%ADD19RoundRect,0.100000X-0.100000X0.850000X-0.100000X-0.850000X0.100000X-0.850000X0.100000X0.850000X0*%
%ADD20R,1.600000X1.600000*%
%ADD21RoundRect,0.062500X-0.062500X-0.375000X0.062500X-0.375000X0.062500X0.375000X-0.062500X0.375000X0*%
%ADD22RoundRect,0.062500X-0.375000X-0.062500X0.375000X-0.062500X0.375000X0.062500X-0.375000X0.062500X0*%
%ADD23R,0.350000X0.650000*%
%ADD24R,2.400000X1.550000*%
%ADD25C,1.000000*%
%ADD26RoundRect,0.150000X-0.150000X-0.200000X0.150000X-0.200000X0.150000X0.200000X-0.150000X0.200000X0*%
%ADD27RoundRect,0.140000X-0.170000X0.140000X-0.170000X-0.140000X0.170000X-0.140000X0.170000X0.140000X0*%
%ADD28RoundRect,0.140000X0.170000X-0.140000X0.170000X0.140000X-0.170000X0.140000X-0.170000X-0.140000X0*%
G04 APERTURE END LIST*
D10*
X135300000Y-128500000D02*
X129500000Y-128500000D01*
X129500000Y-132000000D01*
X128500000Y-132000000D01*
X128500000Y-157000000D01*
X127000000Y-157000000D01*
X127000000Y-130500000D01*
X128000000Y-130500000D01*
X128000000Y-127000000D01*
X135300000Y-127000000D01*
X135300000Y-128500000D01*
G36*
X135300000Y-128500000D02*
G01*
X129500000Y-128500000D01*
X129500000Y-132000000D01*
X128500000Y-132000000D01*
X128500000Y-157000000D01*
X127000000Y-157000000D01*
X127000000Y-130500000D01*
X128000000Y-130500000D01*
X128000000Y-127000000D01*
X135300000Y-127000000D01*
X135300000Y-128500000D01*
G37*
X151989287Y-130500000D02*
X152989287Y-130500000D01*
X152989287Y-157000000D01*
X151489287Y-157000000D01*
X151489287Y-132000000D01*
X150489287Y-132000000D01*
X150489287Y-128500000D01*
X144689287Y-128500000D01*
X144689287Y-127000000D01*
X151989287Y-127000000D01*
X151989287Y-130500000D01*
G36*
X151989287Y-130500000D02*
G01*
X152989287Y-130500000D01*
X152989287Y-157000000D01*
X151489287Y-157000000D01*
X151489287Y-132000000D01*
X150489287Y-132000000D01*
X150489287Y-128500000D01*
X144689287Y-128500000D01*
X144689287Y-127000000D01*
X151989287Y-127000000D01*
X151989287Y-130500000D01*
G37*
D11*
%TO.C,J1*%
X140725000Y-154550000D03*
D12*
X148250000Y-145600000D03*
D11*
X140725000Y-151300000D03*
D12*
X140800000Y-145600000D03*
D11*
X148325000Y-154550000D03*
%TD*%
%TO.C,J2*%
X131425000Y-154550000D03*
D12*
X138950000Y-145600000D03*
D11*
X131425000Y-151300000D03*
D12*
X131500000Y-145600000D03*
D11*
X139025000Y-154550000D03*
%TD*%
D13*
%TO.C,P1*%
X137250000Y-129040000D03*
X137750000Y-129040000D03*
X138250000Y-129040000D03*
X138750000Y-129040000D03*
X139250000Y-129040000D03*
X139750000Y-129040000D03*
X140250000Y-129040000D03*
X140750000Y-129040000D03*
X141250000Y-129040000D03*
X141750000Y-129040000D03*
X142250000Y-129040000D03*
X142750000Y-129040000D03*
D14*
X136580000Y-129880000D03*
%TD*%
D15*
%TO.C,C1*%
X129520000Y-133400000D03*
X130480000Y-133400000D03*
%TD*%
D16*
%TO.C,JP3*%
X149250000Y-132950000D03*
X149950000Y-132950000D03*
X150650000Y-132950000D03*
%TD*%
D17*
%TO.C,H1*%
X128700000Y-146500000D03*
%TD*%
%TO.C,H2*%
X151300000Y-146500000D03*
%TD*%
D18*
%TO.C,P2*%
X132939000Y-140796500D03*
X135225000Y-140796500D03*
X137511000Y-140796500D03*
%TD*%
%TO.C,P3*%
X146811000Y-140796500D03*
X144525000Y-140796500D03*
X142239000Y-140796500D03*
%TD*%
D19*
%TO.C,U2*%
X144225000Y-131900000D03*
X143575000Y-131900000D03*
X142925000Y-131900000D03*
X142275000Y-131900000D03*
X141625000Y-131900000D03*
X140975000Y-131900000D03*
X140325000Y-131900000D03*
X139675000Y-131900000D03*
X139025000Y-131900000D03*
X138375000Y-131900000D03*
X137725000Y-131900000D03*
X137075000Y-131900000D03*
X136425000Y-131900000D03*
X135775000Y-131900000D03*
X135775000Y-138900000D03*
X136425000Y-138900000D03*
X137075000Y-138900000D03*
X137725000Y-138900000D03*
X138375000Y-138900000D03*
X139025000Y-138900000D03*
X139675000Y-138900000D03*
X140325000Y-138900000D03*
X140975000Y-138900000D03*
X141625000Y-138900000D03*
X142275000Y-138900000D03*
X142925000Y-138900000D03*
X143575000Y-138900000D03*
X144225000Y-138900000D03*
%TD*%
D20*
%TO.C,U3*%
X148900000Y-136600000D03*
D21*
X148150000Y-135162500D03*
X148650000Y-135162500D03*
X149150000Y-135162500D03*
X149650000Y-135162500D03*
D22*
X150337500Y-135850000D03*
X150337500Y-136350000D03*
X150337500Y-136850000D03*
X150337500Y-137350000D03*
D21*
X149650000Y-138037500D03*
X149150000Y-138037500D03*
X148650000Y-138037500D03*
X148150000Y-138037500D03*
D22*
X147462500Y-137350000D03*
X147462500Y-136850000D03*
X147462500Y-136350000D03*
X147462500Y-135850000D03*
%TD*%
D23*
%TO.C,U4*%
X129525000Y-137550000D03*
X130175000Y-137550000D03*
X130825000Y-137550000D03*
X131475000Y-137550000D03*
X131475000Y-134450000D03*
X130825000Y-134450000D03*
X130175000Y-134450000D03*
X129525000Y-134450000D03*
D24*
X130500000Y-136000000D03*
%TD*%
D25*
%TO.C,TP5*%
X146475000Y-131700000D03*
%TD*%
D26*
%TO.C,D1*%
X131000000Y-139800000D03*
X129600000Y-139800000D03*
%TD*%
D27*
%TO.C,C13*%
X146100000Y-135980000D03*
X146100000Y-135020000D03*
%TD*%
D28*
%TO.C,C12*%
X146100000Y-137220000D03*
X146100000Y-138180000D03*
%TD*%
D25*
%TO.C,TP6*%
X148475000Y-131700000D03*
%TD*%
%TO.C,TP7*%
X148500000Y-129700000D03*
%TD*%
D15*
%TO.C,C2*%
X129520000Y-138600000D03*
X130480000Y-138600000D03*
%TD*%
M02*
