%TF.GenerationSoftware,KiCad,Pcbnew,9.0.7*%
%TF.CreationDate,2026-02-26T21:49:05+01:00*%
%TF.ProjectId,Expansion_Card,45787061-6e73-4696-9f6e-5f436172642e,X1*%
%TF.SameCoordinates,Original*%
%TF.FileFunction,Legend,Bot*%
%TF.FilePolarity,Positive*%
%FSLAX46Y46*%
G04 Gerber Fmt 4.6, Leading zero omitted, Abs format (unit mm)*
G04 Created by KiCad (PCBNEW 9.0.7) date 2026-02-26 21:49:05*
%MOMM*%
%LPD*%
G01*
G04 APERTURE LIST*
%ADD10C,0.300000*%
%ADD11C,0.120000*%
G04 APERTURE END LIST*
D10*
X147642856Y-138678328D02*
X146785714Y-138678328D01*
X147214285Y-140178328D02*
X147214285Y-138678328D01*
X146428571Y-138678328D02*
X145428571Y-140178328D01*
X145428571Y-138678328D02*
X146428571Y-140178328D01*
X134149999Y-140278328D02*
X134649999Y-139564042D01*
X135007142Y-140278328D02*
X135007142Y-138778328D01*
X135007142Y-138778328D02*
X134435713Y-138778328D01*
X134435713Y-138778328D02*
X134292856Y-138849757D01*
X134292856Y-138849757D02*
X134221427Y-138921185D01*
X134221427Y-138921185D02*
X134149999Y-139064042D01*
X134149999Y-139064042D02*
X134149999Y-139278328D01*
X134149999Y-139278328D02*
X134221427Y-139421185D01*
X134221427Y-139421185D02*
X134292856Y-139492614D01*
X134292856Y-139492614D02*
X134435713Y-139564042D01*
X134435713Y-139564042D02*
X135007142Y-139564042D01*
X133649999Y-138778328D02*
X132649999Y-140278328D01*
X132649999Y-138778328D02*
X133649999Y-140278328D01*
D11*
%TO.C,R9*%
X130153641Y-137220000D02*
X129846359Y-137220000D01*
X130153641Y-137980000D02*
X129846359Y-137980000D01*
%TO.C,R6*%
X129846359Y-136980000D02*
X130153641Y-136980000D01*
X129846359Y-136220000D02*
X130153641Y-136220000D01*
%TO.C,C17*%
X148707836Y-133590000D02*
X148492164Y-133590000D01*
X148707836Y-134310000D02*
X148492164Y-134310000D01*
%TO.C,R8*%
X134080000Y-134953641D02*
X134080000Y-134646359D01*
X133320000Y-134953641D02*
X133320000Y-134646359D01*
%TO.C,R7*%
X133080000Y-134953641D02*
X133080000Y-134646359D01*
X132320000Y-134953641D02*
X132320000Y-134646359D01*
%TO.C,C21*%
X135060000Y-134907836D02*
X135060000Y-134692164D01*
X134340000Y-134907836D02*
X134340000Y-134692164D01*
%TO.C,C20*%
X131340000Y-134692164D02*
X131340000Y-134907836D01*
X132060000Y-134692164D02*
X132060000Y-134907836D01*
%TO.C,C19*%
X133060000Y-136807836D02*
X133060000Y-136592164D01*
X132340000Y-136807836D02*
X132340000Y-136592164D01*
%TO.C,C18*%
X134060000Y-136807836D02*
X134060000Y-136592164D01*
X133340000Y-136807836D02*
X133340000Y-136592164D01*
%TO.C,C8*%
X138660000Y-138007836D02*
X138660000Y-137792164D01*
X137940000Y-138007836D02*
X137940000Y-137792164D01*
%TO.C,R5*%
X139853641Y-138020000D02*
X139546359Y-138020000D01*
X139853641Y-138780000D02*
X139546359Y-138780000D01*
%TO.C,C14*%
X150060000Y-138907836D02*
X150060000Y-138692164D01*
X149340000Y-138907836D02*
X149340000Y-138692164D01*
%TO.C,C7*%
X136740000Y-138007836D02*
X136740000Y-137792164D01*
X137460000Y-138007836D02*
X137460000Y-137792164D01*
%TO.C,C3*%
X137760000Y-135292164D02*
X137760000Y-135507836D01*
X137040000Y-135292164D02*
X137040000Y-135507836D01*
%TO.C,C6*%
X136160000Y-132792164D02*
X136160000Y-133007836D01*
X135440000Y-132792164D02*
X135440000Y-133007836D01*
%TO.C,R2*%
X141046359Y-132120000D02*
X141353641Y-132120000D01*
X141046359Y-132880000D02*
X141353641Y-132880000D01*
%TO.C,C4*%
X141640000Y-135507836D02*
X141640000Y-135292164D01*
X142360000Y-135507836D02*
X142360000Y-135292164D01*
%TO.C,C5*%
X138760000Y-132792164D02*
X138760000Y-133007836D01*
X138040000Y-132792164D02*
X138040000Y-133007836D01*
%TO.C,C10*%
X139340000Y-133007836D02*
X139340000Y-132792164D01*
X140060000Y-133007836D02*
X140060000Y-132792164D01*
%TO.C,C9*%
X140740000Y-138007836D02*
X140740000Y-137792164D01*
X141460000Y-138007836D02*
X141460000Y-137792164D01*
%TO.C,C15*%
X150040000Y-137007836D02*
X150040000Y-136792164D01*
X150760000Y-137007836D02*
X150760000Y-136792164D01*
%TO.C,C11*%
X142340000Y-133007836D02*
X142340000Y-132792164D01*
X143060000Y-133007836D02*
X143060000Y-132792164D01*
%TO.C,C16*%
X150760000Y-134392164D02*
X150760000Y-134607836D01*
X150040000Y-134392164D02*
X150040000Y-134607836D01*
%TO.C,Y1*%
X137990000Y-133940000D02*
X141410000Y-133940000D01*
X137990000Y-136860000D02*
X137990000Y-133940000D01*
%TO.C,R4*%
X144080000Y-134053641D02*
X144080000Y-133746359D01*
X143320000Y-134053641D02*
X143320000Y-133746359D01*
%TO.C,R3*%
X144320000Y-134053641D02*
X144320000Y-133746359D01*
X145080000Y-134053641D02*
X145080000Y-133746359D01*
%TO.C,R1*%
X138828641Y-130645000D02*
X138521359Y-130645000D01*
X138828641Y-131405000D02*
X138521359Y-131405000D01*
%TD*%
M02*
