%TF.GenerationSoftware,KiCad,Pcbnew,9.0.7*%
%TF.CreationDate,2026-02-26T21:49:05+01:00*%
%TF.ProjectId,Expansion_Card,45787061-6e73-4696-9f6e-5f436172642e,X1*%
%TF.SameCoordinates,Original*%
%TF.FileFunction,Copper,L5,Inr*%
%TF.FilePolarity,Positive*%
%FSLAX46Y46*%
G04 Gerber Fmt 4.6, Leading zero omitted, Abs format (unit mm)*
G04 Created by KiCad (PCBNEW 9.0.7) date 2026-02-26 21:49:05*
%MOMM*%
%LPD*%
G01*
G04 APERTURE LIST*
%TA.AperFunction,ComponentPad*%
%ADD10O,1.150000X2.300000*%
%TD*%
%TA.AperFunction,HeatsinkPad*%
%ADD11C,0.500000*%
%TD*%
%TA.AperFunction,ViaPad*%
%ADD12C,0.450000*%
%TD*%
G04 APERTURE END LIST*
D10*
%TO.N,GND*%
%TO.C,J1*%
X140725000Y-154550000D03*
%TO.N,Net-(U3-OUTR)*%
X140725000Y-151300000D03*
%TO.N,GND*%
X148325000Y-154550000D03*
%TD*%
%TO.N,GND*%
%TO.C,J2*%
X131425000Y-154550000D03*
%TO.N,Net-(C19-Pad1)*%
X131425000Y-151300000D03*
%TO.N,GND*%
X139025000Y-154550000D03*
%TD*%
D11*
%TO.N,GND*%
%TO.C,U3*%
X149450000Y-137150000D03*
X149450000Y-136050000D03*
X148350000Y-137150000D03*
X148350000Y-136050000D03*
%TD*%
D12*
%TO.N,GND*%
X136580000Y-129880000D03*
X130481000Y-135855000D03*
%TO.N,Net-(U4-FB)*%
X131531000Y-138600000D03*
%TO.N,GND*%
X148250000Y-127750000D03*
X151250000Y-128000000D03*
X152250000Y-143000000D03*
X149750000Y-127750000D03*
X150500000Y-127750000D03*
X151250000Y-129500000D03*
X152250000Y-150500000D03*
X152250000Y-149000000D03*
X152250000Y-131000000D03*
X152250000Y-134750000D03*
X151250000Y-130250000D03*
X152250000Y-138500000D03*
X151250000Y-128750000D03*
X152250000Y-140750000D03*
X152250000Y-136250000D03*
X152250000Y-140000000D03*
X152250000Y-137000000D03*
X152250000Y-132500000D03*
X152250000Y-137750000D03*
X152250000Y-144500000D03*
X152250000Y-143750000D03*
X152250000Y-141500000D03*
X152250000Y-133250000D03*
X152250000Y-134000000D03*
X152250000Y-142250000D03*
X152250000Y-139250000D03*
X152250000Y-148250000D03*
X152250000Y-149750000D03*
X152250000Y-151250000D03*
X149000000Y-127750000D03*
X151250000Y-131000000D03*
X152250000Y-135500000D03*
X152250000Y-131750000D03*
X145250000Y-127750000D03*
X146000000Y-127750000D03*
X146750000Y-127750000D03*
X147500000Y-127750000D03*
X152250000Y-153500000D03*
X152250000Y-154250000D03*
X152250000Y-152000000D03*
X152250000Y-152750000D03*
X152250000Y-155000000D03*
X152250000Y-155750000D03*
X152250000Y-156500000D03*
X134750000Y-127750000D03*
X134000000Y-127750000D03*
X133250000Y-127750000D03*
X132500000Y-127750000D03*
X131750000Y-127750000D03*
X131000000Y-127750000D03*
X130250000Y-127750000D03*
X129500000Y-127750000D03*
X128750000Y-128000000D03*
X128750000Y-128750000D03*
X128750000Y-129500000D03*
X128750000Y-130250000D03*
X128750000Y-131000000D03*
X127750000Y-131000000D03*
X127750000Y-131750000D03*
X127750000Y-132500000D03*
X127750000Y-133250000D03*
X127750000Y-134000000D03*
X127750000Y-134750000D03*
X127750000Y-135500000D03*
X127750000Y-136250000D03*
X127750000Y-137000000D03*
X127750000Y-137750000D03*
X127750000Y-138500000D03*
X127750000Y-139250000D03*
X127750000Y-140000000D03*
X127750000Y-140750000D03*
X127750000Y-141500000D03*
X127750000Y-142250000D03*
X127750000Y-143000000D03*
X127750000Y-143750000D03*
X127750000Y-144500000D03*
X127750000Y-148250000D03*
X127750000Y-149000000D03*
X127750000Y-149750000D03*
X127750000Y-150500000D03*
X127750000Y-151250000D03*
X127750000Y-152000000D03*
X127750000Y-152750000D03*
X127750000Y-153500000D03*
X127750000Y-154250000D03*
X127750000Y-155000000D03*
X127750000Y-155750000D03*
X127750000Y-156500000D03*
X148120000Y-133950000D03*
%TO.N,Net-(P2-OUT)*%
X133900000Y-139900000D03*
%TO.N,GND*%
X140904981Y-140804890D03*
X147998000Y-140894113D03*
%TO.N,VCC*%
X132439000Y-140139000D03*
X139075000Y-140700000D03*
%TO.N,Net-(P3-IN)*%
X143275000Y-140252000D03*
%TO.N,Net-(U2-HID2)*%
X148500000Y-129700000D03*
%TO.N,Net-(U2-HID1)*%
X148475000Y-131700000D03*
%TO.N,Net-(U2-HID0)*%
X146475000Y-131700000D03*
%TO.N,/USB_DP*%
X144700000Y-134410000D03*
%TO.N,/USB_DN*%
X143700000Y-134410000D03*
%TO.N,VBUS*%
X142450000Y-130125000D03*
%TO.N,/USB_DP*%
X140000000Y-130250000D03*
%TO.N,Net-(U2-HID0)*%
X141625000Y-131500000D03*
%TO.N,Net-(U2-HID1)*%
X140975000Y-131525000D03*
%TO.N,VBUS*%
X138425000Y-130150000D03*
%TO.N,GND*%
X143400000Y-129875000D03*
%TO.N,Net-(U3-OUTL)*%
X148250000Y-145700000D03*
X147500000Y-135050000D03*
%TO.N,Net-(U3-OUTR)*%
X148150000Y-139375000D03*
%TO.N,Net-(C18-Pad1)*%
X139000000Y-145700000D03*
X133700000Y-137180000D03*
%TO.N,Net-(C19-Pad1)*%
X132700000Y-137180000D03*
%TO.N,GND*%
X131475000Y-137550000D03*
X130480000Y-133400000D03*
%TO.N,VBUS*%
X129520000Y-134445000D03*
X129520000Y-133400000D03*
%TO.N,VCC*%
X129525000Y-138595000D03*
X129600000Y-139800000D03*
%TO.N,/EN*%
X131550000Y-133425000D03*
%TO.N,VCCI*%
X131000000Y-139800000D03*
%TO.N,GND*%
X130480000Y-138600000D03*
X134700000Y-135280000D03*
X131700000Y-135280000D03*
%TO.N,Net-(U2-VINL)*%
X133700000Y-134290000D03*
%TO.N,Net-(U2-VINR)*%
X132700000Y-134290000D03*
%TO.N,Net-(U2-VINL)*%
X137075000Y-131900000D03*
%TO.N,Net-(U2-VINR)*%
X136425000Y-131900000D03*
%TO.N,/EN*%
X144225000Y-138900000D03*
%TO.N,VDDI*%
X143575000Y-138900000D03*
%TO.N,GND*%
X142925000Y-138900000D03*
%TO.N,Net-(U2-VOUTL)*%
X136425000Y-138900000D03*
%TO.N,Net-(U2-VOUTR)*%
X135775000Y-138900000D03*
%TO.N,GND*%
X135225000Y-140886500D03*
%TO.N,VCC*%
X144525000Y-140886500D03*
%TO.N,GND*%
X135800000Y-133380000D03*
%TO.N,Net-(U2-VCOM)*%
X135775000Y-131900000D03*
%TO.N,GND*%
X138400000Y-133380000D03*
X139700000Y-133380000D03*
X142700000Y-133380000D03*
%TO.N,/USB_DN*%
X140765859Y-130495094D03*
%TO.N,Net-(U2-D-)*%
X143700000Y-133410000D03*
%TO.N,VBUS*%
X142925000Y-131900000D03*
%TO.N,Net-(P1-CC)*%
X139200000Y-130200000D03*
%TO.N,VDDI*%
X139675000Y-131900000D03*
%TO.N,VCCI*%
X138375000Y-131900000D03*
%TO.N,GND*%
X137400000Y-135880000D03*
X142000000Y-134920000D03*
X140575000Y-134700000D03*
X138825000Y-136100000D03*
X137100000Y-137420000D03*
X138300000Y-137420000D03*
X141100000Y-137420000D03*
%TO.N,Net-(U2-VCCP1I)*%
X137075000Y-138900000D03*
%TO.N,Net-(U2-VCCXI)*%
X140975000Y-138900000D03*
%TO.N,Net-(U2-VCCP2I)*%
X138375000Y-138900000D03*
%TO.N,Net-(U2-XTO)*%
X139175000Y-137350000D03*
%TO.N,Net-(U2-XTI)*%
X140225000Y-137350000D03*
%TO.N,Net-(U2-VOUTR)*%
X146100000Y-138180000D03*
%TO.N,Net-(U2-VOUTL)*%
X146100000Y-135000000D03*
%TO.N,VBUS*%
X150650000Y-132950000D03*
%TO.N,VCC*%
X149250000Y-132950000D03*
%TO.N,Net-(JP3-C)*%
X149080000Y-133950000D03*
%TO.N,/EN*%
X149749999Y-134541398D03*
%TO.N,GND*%
X150400000Y-134020000D03*
%TO.N,Net-(U3-HPVDD)*%
X150400000Y-134980000D03*
%TO.N,Net-(U3-CPP)*%
X151100000Y-136349999D03*
%TO.N,Net-(U3-CPN)*%
X151100000Y-137350000D03*
%TO.N,Net-(U3-HPVSS)*%
X149700000Y-138037500D03*
%TO.N,GND*%
X149700000Y-139300000D03*
X150650000Y-141775000D03*
X150650000Y-140875000D03*
%TO.N,VCC*%
X148700000Y-141775000D03*
X148700000Y-140875000D03*
%TO.N,/G1*%
X149400000Y-141775000D03*
%TO.N,/G0*%
X149400000Y-140875000D03*
%TO.N,Net-(U2-D+)*%
X144700000Y-133400000D03*
%TO.N,Net-(U2-HID2)*%
X140325000Y-131500000D03*
%TD*%
%TA.AperFunction,Conductor*%
%TO.N,VBUS*%
G36*
X135009640Y-127027027D02*
G01*
X135037135Y-127031381D01*
X135065425Y-127035862D01*
X135102320Y-127047849D01*
X135143850Y-127069010D01*
X135175235Y-127091813D01*
X135208186Y-127124764D01*
X135230990Y-127156150D01*
X135252149Y-127197677D01*
X135264137Y-127234573D01*
X135272973Y-127290357D01*
X135274500Y-127309756D01*
X135274500Y-127442124D01*
X135254815Y-127509163D01*
X135202011Y-127554918D01*
X135132853Y-127564862D01*
X135069297Y-127535837D01*
X135053437Y-127519006D01*
X134982038Y-127447607D01*
X134982036Y-127447605D01*
X134938950Y-127422729D01*
X134895865Y-127397853D01*
X134847807Y-127384976D01*
X134799751Y-127372100D01*
X134700249Y-127372100D01*
X134604134Y-127397853D01*
X134517964Y-127447605D01*
X134517961Y-127447607D01*
X134462681Y-127502888D01*
X134401358Y-127536373D01*
X134331666Y-127531389D01*
X134287319Y-127502888D01*
X134232038Y-127447607D01*
X134232036Y-127447605D01*
X134188950Y-127422729D01*
X134145865Y-127397853D01*
X134097807Y-127384976D01*
X134049751Y-127372100D01*
X133950249Y-127372100D01*
X133854134Y-127397853D01*
X133767964Y-127447605D01*
X133767961Y-127447607D01*
X133712681Y-127502888D01*
X133651358Y-127536373D01*
X133581666Y-127531389D01*
X133537319Y-127502888D01*
X133482038Y-127447607D01*
X133482036Y-127447605D01*
X133438950Y-127422729D01*
X133395865Y-127397853D01*
X133347807Y-127384976D01*
X133299751Y-127372100D01*
X133200249Y-127372100D01*
X133104134Y-127397853D01*
X133017964Y-127447605D01*
X133017961Y-127447607D01*
X132962681Y-127502888D01*
X132901358Y-127536373D01*
X132831666Y-127531389D01*
X132787319Y-127502888D01*
X132732038Y-127447607D01*
X132732036Y-127447605D01*
X132688950Y-127422729D01*
X132645865Y-127397853D01*
X132597807Y-127384976D01*
X132549751Y-127372100D01*
X132450249Y-127372100D01*
X132354134Y-127397853D01*
X132267964Y-127447605D01*
X132267961Y-127447607D01*
X132212681Y-127502888D01*
X132151358Y-127536373D01*
X132081666Y-127531389D01*
X132037319Y-127502888D01*
X131982038Y-127447607D01*
X131982036Y-127447605D01*
X131938950Y-127422729D01*
X131895865Y-127397853D01*
X131847807Y-127384976D01*
X131799751Y-127372100D01*
X131700249Y-127372100D01*
X131604134Y-127397853D01*
X131517964Y-127447605D01*
X131517961Y-127447607D01*
X131462681Y-127502888D01*
X131401358Y-127536373D01*
X131331666Y-127531389D01*
X131287319Y-127502888D01*
X131232038Y-127447607D01*
X131232036Y-127447605D01*
X131188950Y-127422729D01*
X131145865Y-127397853D01*
X131097807Y-127384976D01*
X131049751Y-127372100D01*
X130950249Y-127372100D01*
X130854134Y-127397853D01*
X130767964Y-127447605D01*
X130767961Y-127447607D01*
X130712681Y-127502888D01*
X130651358Y-127536373D01*
X130581666Y-127531389D01*
X130537319Y-127502888D01*
X130482038Y-127447607D01*
X130482036Y-127447605D01*
X130438950Y-127422729D01*
X130395865Y-127397853D01*
X130347807Y-127384976D01*
X130299751Y-127372100D01*
X130200249Y-127372100D01*
X130104134Y-127397853D01*
X130017964Y-127447605D01*
X130017961Y-127447607D01*
X129962681Y-127502888D01*
X129901358Y-127536373D01*
X129831666Y-127531389D01*
X129787319Y-127502888D01*
X129732038Y-127447607D01*
X129732036Y-127447605D01*
X129688950Y-127422729D01*
X129645865Y-127397853D01*
X129597807Y-127384976D01*
X129549751Y-127372100D01*
X129450249Y-127372100D01*
X129354134Y-127397853D01*
X129267964Y-127447605D01*
X129267961Y-127447607D01*
X129197607Y-127517961D01*
X129197605Y-127517964D01*
X129147852Y-127604136D01*
X129145771Y-127611904D01*
X129109402Y-127671562D01*
X129046553Y-127702087D01*
X128977178Y-127693788D01*
X128963998Y-127687190D01*
X128895867Y-127647854D01*
X128895864Y-127647853D01*
X128799751Y-127622100D01*
X128700249Y-127622100D01*
X128604134Y-127647853D01*
X128517964Y-127697605D01*
X128517961Y-127697607D01*
X128447607Y-127767961D01*
X128447605Y-127767964D01*
X128397853Y-127854134D01*
X128386672Y-127895864D01*
X128372100Y-127950249D01*
X128372100Y-128049751D01*
X128373341Y-128054382D01*
X128397853Y-128145865D01*
X128408765Y-128164764D01*
X128447605Y-128232036D01*
X128447607Y-128232038D01*
X128502888Y-128287319D01*
X128536373Y-128348642D01*
X128531389Y-128418334D01*
X128502888Y-128462681D01*
X128447607Y-128517961D01*
X128447605Y-128517964D01*
X128397853Y-128604134D01*
X128372100Y-128700249D01*
X128372100Y-128799750D01*
X128397853Y-128895865D01*
X128412986Y-128922075D01*
X128447605Y-128982036D01*
X128447607Y-128982038D01*
X128502888Y-129037319D01*
X128536373Y-129098642D01*
X128531389Y-129168334D01*
X128502888Y-129212681D01*
X128447607Y-129267961D01*
X128447605Y-129267964D01*
X128397853Y-129354134D01*
X128386205Y-129397607D01*
X128372100Y-129450249D01*
X128372100Y-129549751D01*
X128373275Y-129554136D01*
X128397853Y-129645865D01*
X128422729Y-129688950D01*
X128447605Y-129732036D01*
X128447607Y-129732038D01*
X128502888Y-129787319D01*
X128536373Y-129848642D01*
X128531389Y-129918334D01*
X128502888Y-129962681D01*
X128447607Y-130017961D01*
X128447605Y-130017964D01*
X128397853Y-130104134D01*
X128372100Y-130200249D01*
X128372100Y-130299750D01*
X128397853Y-130395865D01*
X128418737Y-130432036D01*
X128447605Y-130482036D01*
X128447607Y-130482038D01*
X128502888Y-130537319D01*
X128536373Y-130598642D01*
X128531389Y-130668334D01*
X128502888Y-130712681D01*
X128447607Y-130767961D01*
X128447605Y-130767964D01*
X128397853Y-130854134D01*
X128392800Y-130872993D01*
X128372100Y-130950249D01*
X128372100Y-131049751D01*
X128389920Y-131116257D01*
X128397853Y-131145865D01*
X128399001Y-131147853D01*
X128447605Y-131232036D01*
X128517964Y-131302395D01*
X128604136Y-131352147D01*
X128700249Y-131377900D01*
X128700251Y-131377900D01*
X128799749Y-131377900D01*
X128799751Y-131377900D01*
X128895864Y-131352147D01*
X128982036Y-131302395D01*
X129052395Y-131232036D01*
X129102147Y-131145864D01*
X129127900Y-131049751D01*
X129127900Y-130950249D01*
X129102147Y-130854136D01*
X129052395Y-130767964D01*
X128997112Y-130712681D01*
X128963627Y-130651358D01*
X128968611Y-130581666D01*
X128997112Y-130537319D01*
X129008931Y-130525500D01*
X129052395Y-130482036D01*
X129102147Y-130395864D01*
X129127900Y-130299751D01*
X129127900Y-130200249D01*
X129102147Y-130104136D01*
X129052395Y-130017964D01*
X128997112Y-129962681D01*
X128992773Y-129954735D01*
X128985526Y-129949310D01*
X128976291Y-129924550D01*
X128963627Y-129901358D01*
X128964272Y-129892328D01*
X128961109Y-129883846D01*
X128966725Y-129858025D01*
X128968611Y-129831666D01*
X128969522Y-129830249D01*
X136202100Y-129830249D01*
X136202100Y-129929751D01*
X136212338Y-129967961D01*
X136227853Y-130025865D01*
X136244175Y-130054134D01*
X136277605Y-130112036D01*
X136347964Y-130182395D01*
X136434136Y-130232147D01*
X136530249Y-130257900D01*
X136530251Y-130257900D01*
X136629749Y-130257900D01*
X136629751Y-130257900D01*
X136725864Y-130232147D01*
X136812036Y-130182395D01*
X136844182Y-130150249D01*
X138822100Y-130150249D01*
X138822100Y-130249751D01*
X138825665Y-130263055D01*
X138847853Y-130345865D01*
X138849795Y-130349228D01*
X138897605Y-130432036D01*
X138967964Y-130502395D01*
X139054136Y-130552147D01*
X139150249Y-130577900D01*
X139150251Y-130577900D01*
X139249749Y-130577900D01*
X139249751Y-130577900D01*
X139345864Y-130552147D01*
X139432036Y-130502395D01*
X139493586Y-130440844D01*
X139554905Y-130407362D01*
X139624597Y-130412346D01*
X139680531Y-130454217D01*
X139688650Y-130466526D01*
X139697605Y-130482036D01*
X139767964Y-130552395D01*
X139836237Y-130591813D01*
X139854132Y-130602145D01*
X139854136Y-130602147D01*
X139950249Y-130627900D01*
X139950251Y-130627900D01*
X140049749Y-130627900D01*
X140049751Y-130627900D01*
X140145864Y-130602147D01*
X140228870Y-130554223D01*
X140296770Y-130537749D01*
X140362797Y-130560601D01*
X140405988Y-130615521D01*
X140410645Y-130629513D01*
X140413711Y-130640957D01*
X140421381Y-130654241D01*
X140463464Y-130727130D01*
X140533823Y-130797489D01*
X140619995Y-130847241D01*
X140716108Y-130872994D01*
X140716110Y-130872994D01*
X140815608Y-130872994D01*
X140815610Y-130872994D01*
X140911723Y-130847241D01*
X140997895Y-130797489D01*
X141068254Y-130727130D01*
X141118006Y-130640958D01*
X141143759Y-130544845D01*
X141143759Y-130445343D01*
X141118006Y-130349230D01*
X141068254Y-130263058D01*
X140997895Y-130192699D01*
X140954809Y-130167823D01*
X140911724Y-130142947D01*
X140861799Y-130129570D01*
X140815610Y-130117194D01*
X140716108Y-130117194D01*
X140619995Y-130142947D01*
X140619994Y-130142947D01*
X140619992Y-130142948D01*
X140619991Y-130142948D01*
X140536987Y-130190871D01*
X140469087Y-130207344D01*
X140403060Y-130184491D01*
X140359869Y-130129570D01*
X140355212Y-130115576D01*
X140354264Y-130112038D01*
X140352147Y-130104136D01*
X140302395Y-130017964D01*
X140232036Y-129947605D01*
X140232034Y-129947604D01*
X140232032Y-129947602D01*
X140192033Y-129924509D01*
X140192032Y-129924508D01*
X140145869Y-129897855D01*
X140145866Y-129897854D01*
X140145865Y-129897853D01*
X140145864Y-129897853D01*
X140049751Y-129872100D01*
X139950249Y-129872100D01*
X139854134Y-129897853D01*
X139767964Y-129947604D01*
X139706416Y-130009153D01*
X139645092Y-130042637D01*
X139575401Y-130037652D01*
X139519467Y-129995781D01*
X139511348Y-129983471D01*
X139502395Y-129967964D01*
X139432036Y-129897605D01*
X139387861Y-129872100D01*
X139345865Y-129847853D01*
X139280164Y-129830249D01*
X139261503Y-129825249D01*
X143022100Y-129825249D01*
X143022100Y-129924751D01*
X143030134Y-129954735D01*
X143047853Y-130020865D01*
X143060424Y-130042637D01*
X143097605Y-130107036D01*
X143167964Y-130177395D01*
X143254136Y-130227147D01*
X143350249Y-130252900D01*
X143350251Y-130252900D01*
X143449749Y-130252900D01*
X143449751Y-130252900D01*
X143545864Y-130227147D01*
X143632036Y-130177395D01*
X143702395Y-130107036D01*
X143752147Y-130020864D01*
X143777900Y-129924751D01*
X143777900Y-129825249D01*
X143752147Y-129729136D01*
X143752146Y-129729134D01*
X143752146Y-129729133D01*
X143737706Y-129704124D01*
X143706601Y-129650249D01*
X148122100Y-129650249D01*
X148122100Y-129749750D01*
X148147853Y-129845865D01*
X148164675Y-129875000D01*
X148197605Y-129932036D01*
X148267964Y-130002395D01*
X148354136Y-130052147D01*
X148450249Y-130077900D01*
X148450251Y-130077900D01*
X148549749Y-130077900D01*
X148549751Y-130077900D01*
X148645864Y-130052147D01*
X148732036Y-130002395D01*
X148802395Y-129932036D01*
X148852147Y-129845864D01*
X148877900Y-129749751D01*
X148877900Y-129650249D01*
X148852147Y-129554136D01*
X148802395Y-129467964D01*
X148732036Y-129397605D01*
X148688950Y-129372729D01*
X148645865Y-129347853D01*
X148597807Y-129334976D01*
X148549751Y-129322100D01*
X148450249Y-129322100D01*
X148354134Y-129347853D01*
X148267964Y-129397605D01*
X148267961Y-129397607D01*
X148197607Y-129467961D01*
X148197605Y-129467964D01*
X148147853Y-129554134D01*
X148122100Y-129650249D01*
X143706601Y-129650249D01*
X143702395Y-129642964D01*
X143632036Y-129572605D01*
X143588950Y-129547729D01*
X143545865Y-129522853D01*
X143497807Y-129509976D01*
X143449751Y-129497100D01*
X143350249Y-129497100D01*
X143254134Y-129522853D01*
X143167964Y-129572605D01*
X143167961Y-129572607D01*
X143097607Y-129642961D01*
X143097605Y-129642964D01*
X143047853Y-129729134D01*
X143024693Y-129815573D01*
X143022100Y-129825249D01*
X139261503Y-129825249D01*
X139249751Y-129822100D01*
X139150249Y-129822100D01*
X139054134Y-129847853D01*
X138967964Y-129897605D01*
X138967961Y-129897607D01*
X138897607Y-129967961D01*
X138897605Y-129967964D01*
X138847853Y-130054134D01*
X138824056Y-130142948D01*
X138822100Y-130150249D01*
X136844182Y-130150249D01*
X136882395Y-130112036D01*
X136932147Y-130025864D01*
X136957900Y-129929751D01*
X136957900Y-129830249D01*
X136932147Y-129734136D01*
X136929258Y-129729133D01*
X136914819Y-129704123D01*
X136882395Y-129647964D01*
X136812036Y-129577605D01*
X136763789Y-129549749D01*
X136725865Y-129527853D01*
X136677807Y-129514976D01*
X136629751Y-129502100D01*
X136530249Y-129502100D01*
X136434134Y-129527853D01*
X136347964Y-129577605D01*
X136347961Y-129577607D01*
X136277607Y-129647961D01*
X136277605Y-129647964D01*
X136227853Y-129734134D01*
X136223669Y-129749750D01*
X136202100Y-129830249D01*
X128969522Y-129830249D01*
X128974429Y-129822612D01*
X128975961Y-129815573D01*
X128997112Y-129787319D01*
X129049990Y-129734441D01*
X129050297Y-129734134D01*
X129052395Y-129732036D01*
X129102147Y-129645864D01*
X129127900Y-129549751D01*
X129127900Y-129450249D01*
X129102147Y-129354136D01*
X129098519Y-129347853D01*
X129083651Y-129322100D01*
X129052395Y-129267964D01*
X128997112Y-129212681D01*
X128963627Y-129151358D01*
X128968611Y-129081666D01*
X128997112Y-129037319D01*
X129008932Y-129025499D01*
X129052395Y-128982036D01*
X129102147Y-128895864D01*
X129127900Y-128799751D01*
X129127900Y-128700249D01*
X129102147Y-128604136D01*
X129052395Y-128517964D01*
X128997112Y-128462681D01*
X128963627Y-128401358D01*
X128968611Y-128331666D01*
X128982240Y-128305294D01*
X128988825Y-128295605D01*
X129052395Y-128232036D01*
X129102147Y-128145864D01*
X129109656Y-128117837D01*
X129121448Y-128100490D01*
X129132884Y-128091085D01*
X129140590Y-128078443D01*
X129159325Y-128069341D01*
X129175414Y-128056111D01*
X129190118Y-128054382D01*
X129203436Y-128047913D01*
X129224119Y-128050385D01*
X129244806Y-128047954D01*
X129258110Y-128054449D01*
X129272812Y-128056207D01*
X129285997Y-128062806D01*
X129354136Y-128102147D01*
X129450249Y-128127900D01*
X129450251Y-128127900D01*
X129549749Y-128127900D01*
X129549751Y-128127900D01*
X129645864Y-128102147D01*
X129732036Y-128052395D01*
X129787319Y-127997112D01*
X129848642Y-127963627D01*
X129918334Y-127968611D01*
X129962681Y-127997112D01*
X130017964Y-128052395D01*
X130104136Y-128102147D01*
X130200249Y-128127900D01*
X130200251Y-128127900D01*
X130299749Y-128127900D01*
X130299751Y-128127900D01*
X130395864Y-128102147D01*
X130482036Y-128052395D01*
X130537319Y-127997112D01*
X130598642Y-127963627D01*
X130668334Y-127968611D01*
X130712681Y-127997112D01*
X130767964Y-128052395D01*
X130854136Y-128102147D01*
X130950249Y-128127900D01*
X130950251Y-128127900D01*
X131049749Y-128127900D01*
X131049751Y-128127900D01*
X131145864Y-128102147D01*
X131232036Y-128052395D01*
X131287319Y-127997112D01*
X131348642Y-127963627D01*
X131418334Y-127968611D01*
X131462681Y-127997112D01*
X131517964Y-128052395D01*
X131604136Y-128102147D01*
X131700249Y-128127900D01*
X131700251Y-128127900D01*
X131799749Y-128127900D01*
X131799751Y-128127900D01*
X131895864Y-128102147D01*
X131982036Y-128052395D01*
X132037319Y-127997112D01*
X132098642Y-127963627D01*
X132168334Y-127968611D01*
X132212681Y-127997112D01*
X132267964Y-128052395D01*
X132354136Y-128102147D01*
X132450249Y-128127900D01*
X132450251Y-128127900D01*
X132549749Y-128127900D01*
X132549751Y-128127900D01*
X132645864Y-128102147D01*
X132732036Y-128052395D01*
X132787319Y-127997112D01*
X132848642Y-127963627D01*
X132918334Y-127968611D01*
X132962681Y-127997112D01*
X133017964Y-128052395D01*
X133104136Y-128102147D01*
X133200249Y-128127900D01*
X133200251Y-128127900D01*
X133299749Y-128127900D01*
X133299751Y-128127900D01*
X133395864Y-128102147D01*
X133482036Y-128052395D01*
X133537319Y-127997112D01*
X133598642Y-127963627D01*
X133668334Y-127968611D01*
X133712681Y-127997112D01*
X133767964Y-128052395D01*
X133854136Y-128102147D01*
X133950249Y-128127900D01*
X133950251Y-128127900D01*
X134049749Y-128127900D01*
X134049751Y-128127900D01*
X134145864Y-128102147D01*
X134232036Y-128052395D01*
X134287319Y-127997112D01*
X134348642Y-127963627D01*
X134418334Y-127968611D01*
X134462681Y-127997112D01*
X134517964Y-128052395D01*
X134604136Y-128102147D01*
X134700249Y-128127900D01*
X134700251Y-128127900D01*
X134799749Y-128127900D01*
X134799751Y-128127900D01*
X134895864Y-128102147D01*
X134982036Y-128052395D01*
X135052395Y-127982036D01*
X135052395Y-127982035D01*
X135058142Y-127976289D01*
X135059127Y-127977274D01*
X135108554Y-127941185D01*
X135178300Y-127937031D01*
X135239220Y-127971245D01*
X135271972Y-128032962D01*
X135274500Y-128057875D01*
X135274500Y-128751555D01*
X135306362Y-128849614D01*
X135306364Y-128849618D01*
X135366967Y-128933031D01*
X135366968Y-128933032D01*
X135434416Y-128982036D01*
X135450384Y-128993637D01*
X135548446Y-129025500D01*
X135548447Y-129025500D01*
X136701553Y-129025500D01*
X136701554Y-129025500D01*
X136799616Y-128993637D01*
X136883032Y-128933032D01*
X136943637Y-128849616D01*
X136975500Y-128751554D01*
X136975500Y-128700000D01*
X136975500Y-128691715D01*
X136975500Y-128349756D01*
X136977027Y-128330359D01*
X136985862Y-128274575D01*
X136985863Y-128274573D01*
X136997848Y-128237680D01*
X137019011Y-128196146D01*
X137041810Y-128164767D01*
X137074767Y-128131810D01*
X137106146Y-128109011D01*
X137147680Y-128087848D01*
X137184566Y-128075863D01*
X137240370Y-128067025D01*
X137259757Y-128065500D01*
X142740243Y-128065500D01*
X142759640Y-128067027D01*
X142773285Y-128069188D01*
X142815425Y-128075862D01*
X142852320Y-128087849D01*
X142893850Y-128109010D01*
X142925235Y-128131813D01*
X142958186Y-128164764D01*
X142980990Y-128196150D01*
X143002149Y-128237677D01*
X143014137Y-128274573D01*
X143018544Y-128302395D01*
X143022575Y-128327848D01*
X143022973Y-128330357D01*
X143024500Y-128349756D01*
X143024500Y-128751555D01*
X143056362Y-128849614D01*
X143056364Y-128849618D01*
X143116967Y-128933031D01*
X143116968Y-128933032D01*
X143184416Y-128982036D01*
X143200384Y-128993637D01*
X143298446Y-129025500D01*
X143298447Y-129025500D01*
X144451553Y-129025500D01*
X144451554Y-129025500D01*
X144549616Y-128993637D01*
X144633032Y-128933032D01*
X144693637Y-128849616D01*
X144725500Y-128751554D01*
X144725500Y-128700000D01*
X144725500Y-128691715D01*
X144725500Y-128057875D01*
X144745185Y-127990836D01*
X144797989Y-127945081D01*
X144867147Y-127935137D01*
X144930703Y-127964162D01*
X144946554Y-127980985D01*
X144947605Y-127982036D01*
X145017964Y-128052395D01*
X145104136Y-128102147D01*
X145200249Y-128127900D01*
X145200251Y-128127900D01*
X145299749Y-128127900D01*
X145299751Y-128127900D01*
X145395864Y-128102147D01*
X145482036Y-128052395D01*
X145537319Y-127997112D01*
X145598642Y-127963627D01*
X145668334Y-127968611D01*
X145712681Y-127997112D01*
X145767964Y-128052395D01*
X145854136Y-128102147D01*
X145950249Y-128127900D01*
X145950251Y-128127900D01*
X146049749Y-128127900D01*
X146049751Y-128127900D01*
X146145864Y-128102147D01*
X146232036Y-128052395D01*
X146287319Y-127997112D01*
X146348642Y-127963627D01*
X146418334Y-127968611D01*
X146462681Y-127997112D01*
X146517964Y-128052395D01*
X146604136Y-128102147D01*
X146700249Y-128127900D01*
X146700251Y-128127900D01*
X146799749Y-128127900D01*
X146799751Y-128127900D01*
X146895864Y-128102147D01*
X146982036Y-128052395D01*
X147037319Y-127997112D01*
X147098642Y-127963627D01*
X147168334Y-127968611D01*
X147212681Y-127997112D01*
X147267964Y-128052395D01*
X147354136Y-128102147D01*
X147450249Y-128127900D01*
X147450251Y-128127900D01*
X147549749Y-128127900D01*
X147549751Y-128127900D01*
X147645864Y-128102147D01*
X147732036Y-128052395D01*
X147787319Y-127997112D01*
X147848642Y-127963627D01*
X147918334Y-127968611D01*
X147962681Y-127997112D01*
X148017964Y-128052395D01*
X148104136Y-128102147D01*
X148200249Y-128127900D01*
X148200251Y-128127900D01*
X148299749Y-128127900D01*
X148299751Y-128127900D01*
X148395864Y-128102147D01*
X148482036Y-128052395D01*
X148537319Y-127997112D01*
X148598642Y-127963627D01*
X148668334Y-127968611D01*
X148712681Y-127997112D01*
X148767964Y-128052395D01*
X148854136Y-128102147D01*
X148950249Y-128127900D01*
X148950251Y-128127900D01*
X149049749Y-128127900D01*
X149049751Y-128127900D01*
X149145864Y-128102147D01*
X149232036Y-128052395D01*
X149287319Y-127997112D01*
X149348642Y-127963627D01*
X149418334Y-127968611D01*
X149462681Y-127997112D01*
X149517964Y-128052395D01*
X149604136Y-128102147D01*
X149700249Y-128127900D01*
X149700251Y-128127900D01*
X149799749Y-128127900D01*
X149799751Y-128127900D01*
X149895864Y-128102147D01*
X149982036Y-128052395D01*
X150037319Y-127997112D01*
X150098642Y-127963627D01*
X150168334Y-127968611D01*
X150212681Y-127997112D01*
X150267964Y-128052395D01*
X150354136Y-128102147D01*
X150450249Y-128127900D01*
X150450251Y-128127900D01*
X150549749Y-128127900D01*
X150549751Y-128127900D01*
X150645864Y-128102147D01*
X150713997Y-128062809D01*
X150781896Y-128046336D01*
X150847924Y-128069188D01*
X150878550Y-128100489D01*
X150890344Y-128117840D01*
X150897853Y-128145864D01*
X150947605Y-128232036D01*
X151011173Y-128295604D01*
X151017759Y-128305293D01*
X151025018Y-128327848D01*
X151036373Y-128348642D01*
X151035525Y-128360492D01*
X151039166Y-128371803D01*
X151033079Y-128394700D01*
X151031389Y-128418334D01*
X151023557Y-128430519D01*
X151021216Y-128439328D01*
X151013186Y-128446655D01*
X151002888Y-128462681D01*
X150947607Y-128517961D01*
X150947605Y-128517964D01*
X150897853Y-128604134D01*
X150872100Y-128700249D01*
X150872100Y-128799750D01*
X150897853Y-128895865D01*
X150912986Y-128922075D01*
X150947605Y-128982036D01*
X150947607Y-128982038D01*
X151002888Y-129037319D01*
X151036373Y-129098642D01*
X151031389Y-129168334D01*
X151002888Y-129212681D01*
X150947607Y-129267961D01*
X150947605Y-129267964D01*
X150897853Y-129354134D01*
X150886205Y-129397607D01*
X150872100Y-129450249D01*
X150872100Y-129549751D01*
X150873275Y-129554136D01*
X150897853Y-129645865D01*
X150922729Y-129688950D01*
X150947605Y-129732036D01*
X150947607Y-129732038D01*
X151002888Y-129787319D01*
X151036373Y-129848642D01*
X151031389Y-129918334D01*
X151002888Y-129962681D01*
X150947607Y-130017961D01*
X150947605Y-130017964D01*
X150897853Y-130104134D01*
X150872100Y-130200249D01*
X150872100Y-130299750D01*
X150897853Y-130395865D01*
X150918737Y-130432036D01*
X150947605Y-130482036D01*
X150947607Y-130482038D01*
X151002888Y-130537319D01*
X151036373Y-130598642D01*
X151031389Y-130668334D01*
X151002888Y-130712681D01*
X150947607Y-130767961D01*
X150947605Y-130767964D01*
X150897853Y-130854134D01*
X150892800Y-130872993D01*
X150872100Y-130950249D01*
X150872100Y-131049751D01*
X150884976Y-131097807D01*
X150897853Y-131145865D01*
X150899001Y-131147853D01*
X150947605Y-131232036D01*
X151017964Y-131302395D01*
X151104136Y-131352147D01*
X151200249Y-131377900D01*
X151200251Y-131377900D01*
X151299749Y-131377900D01*
X151299751Y-131377900D01*
X151395864Y-131352147D01*
X151482036Y-131302395D01*
X151552395Y-131232036D01*
X151602147Y-131145864D01*
X151627900Y-131049751D01*
X151627900Y-130950249D01*
X151602147Y-130854136D01*
X151552395Y-130767964D01*
X151497112Y-130712681D01*
X151463627Y-130651358D01*
X151468611Y-130581666D01*
X151497112Y-130537319D01*
X151508931Y-130525500D01*
X151552395Y-130482036D01*
X151602147Y-130395864D01*
X151627900Y-130299751D01*
X151627900Y-130200249D01*
X151602147Y-130104136D01*
X151552395Y-130017964D01*
X151497112Y-129962681D01*
X151463627Y-129901358D01*
X151468611Y-129831666D01*
X151497112Y-129787319D01*
X151552395Y-129732036D01*
X151602147Y-129645864D01*
X151627900Y-129549751D01*
X151627900Y-129450249D01*
X151602147Y-129354136D01*
X151598519Y-129347853D01*
X151583651Y-129322100D01*
X151552395Y-129267964D01*
X151497112Y-129212681D01*
X151463627Y-129151358D01*
X151468611Y-129081666D01*
X151497112Y-129037319D01*
X151508932Y-129025499D01*
X151552395Y-128982036D01*
X151602147Y-128895864D01*
X151627900Y-128799751D01*
X151627900Y-128700249D01*
X151602147Y-128604136D01*
X151552395Y-128517964D01*
X151497112Y-128462681D01*
X151463627Y-128401358D01*
X151468611Y-128331666D01*
X151497112Y-128287319D01*
X151509858Y-128274573D01*
X151552395Y-128232036D01*
X151602147Y-128145864D01*
X151627900Y-128049751D01*
X151627900Y-127950249D01*
X151602147Y-127854136D01*
X151552395Y-127767964D01*
X151482036Y-127697605D01*
X151436929Y-127671562D01*
X151395865Y-127647853D01*
X151347807Y-127634976D01*
X151299751Y-127622100D01*
X151200249Y-127622100D01*
X151104136Y-127647853D01*
X151104135Y-127647853D01*
X151104133Y-127647854D01*
X151104132Y-127647854D01*
X151036001Y-127687190D01*
X150968101Y-127703663D01*
X150902074Y-127680810D01*
X150858883Y-127625889D01*
X150854228Y-127611904D01*
X150852147Y-127604136D01*
X150802395Y-127517964D01*
X150732036Y-127447605D01*
X150688950Y-127422729D01*
X150645865Y-127397853D01*
X150597807Y-127384976D01*
X150549751Y-127372100D01*
X150450249Y-127372100D01*
X150354134Y-127397853D01*
X150267964Y-127447605D01*
X150267961Y-127447607D01*
X150212681Y-127502888D01*
X150151358Y-127536373D01*
X150081666Y-127531389D01*
X150037319Y-127502888D01*
X149982038Y-127447607D01*
X149982036Y-127447605D01*
X149938950Y-127422729D01*
X149895865Y-127397853D01*
X149847807Y-127384976D01*
X149799751Y-127372100D01*
X149700249Y-127372100D01*
X149604134Y-127397853D01*
X149517964Y-127447605D01*
X149517961Y-127447607D01*
X149462681Y-127502888D01*
X149401358Y-127536373D01*
X149331666Y-127531389D01*
X149287319Y-127502888D01*
X149232038Y-127447607D01*
X149232036Y-127447605D01*
X149188950Y-127422729D01*
X149145865Y-127397853D01*
X149097807Y-127384976D01*
X149049751Y-127372100D01*
X148950249Y-127372100D01*
X148854134Y-127397853D01*
X148767964Y-127447605D01*
X148767961Y-127447607D01*
X148712681Y-127502888D01*
X148651358Y-127536373D01*
X148581666Y-127531389D01*
X148537319Y-127502888D01*
X148482038Y-127447607D01*
X148482036Y-127447605D01*
X148438950Y-127422729D01*
X148395865Y-127397853D01*
X148347807Y-127384976D01*
X148299751Y-127372100D01*
X148200249Y-127372100D01*
X148104134Y-127397853D01*
X148017964Y-127447605D01*
X148017961Y-127447607D01*
X147962681Y-127502888D01*
X147901358Y-127536373D01*
X147831666Y-127531389D01*
X147787319Y-127502888D01*
X147732038Y-127447607D01*
X147732036Y-127447605D01*
X147688950Y-127422729D01*
X147645865Y-127397853D01*
X147597807Y-127384976D01*
X147549751Y-127372100D01*
X147450249Y-127372100D01*
X147354134Y-127397853D01*
X147267964Y-127447605D01*
X147267961Y-127447607D01*
X147212681Y-127502888D01*
X147151358Y-127536373D01*
X147081666Y-127531389D01*
X147037319Y-127502888D01*
X146982038Y-127447607D01*
X146982036Y-127447605D01*
X146938950Y-127422729D01*
X146895865Y-127397853D01*
X146847807Y-127384976D01*
X146799751Y-127372100D01*
X146700249Y-127372100D01*
X146604134Y-127397853D01*
X146517964Y-127447605D01*
X146517961Y-127447607D01*
X146462681Y-127502888D01*
X146401358Y-127536373D01*
X146331666Y-127531389D01*
X146287319Y-127502888D01*
X146232038Y-127447607D01*
X146232036Y-127447605D01*
X146188950Y-127422729D01*
X146145865Y-127397853D01*
X146097807Y-127384976D01*
X146049751Y-127372100D01*
X145950249Y-127372100D01*
X145854134Y-127397853D01*
X145767964Y-127447605D01*
X145767961Y-127447607D01*
X145712681Y-127502888D01*
X145651358Y-127536373D01*
X145581666Y-127531389D01*
X145537319Y-127502888D01*
X145482038Y-127447607D01*
X145482036Y-127447605D01*
X145438950Y-127422729D01*
X145395865Y-127397853D01*
X145347807Y-127384976D01*
X145299751Y-127372100D01*
X145200249Y-127372100D01*
X145104134Y-127397853D01*
X145017964Y-127447605D01*
X145017961Y-127447607D01*
X144941858Y-127523711D01*
X144940873Y-127522726D01*
X144923654Y-127535297D01*
X144901011Y-127554918D01*
X144895739Y-127555675D01*
X144891437Y-127558817D01*
X144861520Y-127560596D01*
X144831853Y-127564862D01*
X144827006Y-127562648D01*
X144821691Y-127562965D01*
X144795564Y-127548289D01*
X144768297Y-127535837D01*
X144765416Y-127531355D01*
X144760773Y-127528747D01*
X144746725Y-127502270D01*
X144730523Y-127477059D01*
X144729472Y-127469753D01*
X144728026Y-127467027D01*
X144725500Y-127442124D01*
X144725500Y-127309756D01*
X144727027Y-127290359D01*
X144735862Y-127234575D01*
X144747848Y-127197680D01*
X144769011Y-127156146D01*
X144791810Y-127124767D01*
X144824767Y-127091810D01*
X144856146Y-127069011D01*
X144897680Y-127047848D01*
X144934566Y-127035863D01*
X144990370Y-127027025D01*
X145009757Y-127025500D01*
X151690243Y-127025500D01*
X151709640Y-127027027D01*
X151737135Y-127031381D01*
X151765425Y-127035862D01*
X151767665Y-127036590D01*
X151768914Y-127036465D01*
X151802320Y-127047849D01*
X151843850Y-127069010D01*
X151875235Y-127091813D01*
X151908186Y-127124764D01*
X151930990Y-127156150D01*
X151952149Y-127197677D01*
X151964137Y-127234573D01*
X151972973Y-127290357D01*
X151974500Y-127309756D01*
X151974500Y-130251555D01*
X152006237Y-130349230D01*
X152006363Y-130349616D01*
X152066968Y-130433032D01*
X152093704Y-130452456D01*
X152136368Y-130507784D01*
X152142347Y-130577397D01*
X152109742Y-130639193D01*
X152082819Y-130660159D01*
X152017967Y-130697602D01*
X152017961Y-130697607D01*
X151947607Y-130767961D01*
X151947605Y-130767964D01*
X151897853Y-130854134D01*
X151892800Y-130872993D01*
X151872100Y-130950249D01*
X151872100Y-131049751D01*
X151889920Y-131116257D01*
X151897853Y-131145865D01*
X151899001Y-131147853D01*
X151947605Y-131232036D01*
X151947607Y-131232038D01*
X152002888Y-131287319D01*
X152036373Y-131348642D01*
X152031389Y-131418334D01*
X152002888Y-131462681D01*
X151947607Y-131517961D01*
X151947605Y-131517964D01*
X151897853Y-131604134D01*
X151872100Y-131700249D01*
X151872100Y-131799751D01*
X151884414Y-131845709D01*
X151897853Y-131895865D01*
X151901915Y-131902900D01*
X151947605Y-131982036D01*
X151947607Y-131982038D01*
X152002888Y-132037319D01*
X152036373Y-132098642D01*
X152031389Y-132168334D01*
X152002888Y-132212681D01*
X151947607Y-132267961D01*
X151947605Y-132267964D01*
X151897853Y-132354134D01*
X151872100Y-132450249D01*
X151872100Y-132549750D01*
X151897853Y-132645865D01*
X151922729Y-132688950D01*
X151947605Y-132732036D01*
X151947607Y-132732038D01*
X152002888Y-132787319D01*
X152036373Y-132848642D01*
X152031389Y-132918334D01*
X152002888Y-132962681D01*
X151947607Y-133017961D01*
X151947605Y-133017964D01*
X151897853Y-133104134D01*
X151878072Y-133177961D01*
X151872100Y-133200249D01*
X151872100Y-133299751D01*
X151874854Y-133310029D01*
X151897853Y-133395865D01*
X151917417Y-133429749D01*
X151947605Y-133482036D01*
X151947607Y-133482038D01*
X152002888Y-133537319D01*
X152036373Y-133598642D01*
X152031389Y-133668334D01*
X152002888Y-133712681D01*
X151947607Y-133767961D01*
X151947605Y-133767964D01*
X151897853Y-133854134D01*
X151892494Y-133874136D01*
X151872100Y-133950249D01*
X151872100Y-134049751D01*
X151877459Y-134069750D01*
X151897853Y-134145865D01*
X151916384Y-134177961D01*
X151947605Y-134232036D01*
X151947607Y-134232038D01*
X152002888Y-134287319D01*
X152036373Y-134348642D01*
X152031389Y-134418334D01*
X152002888Y-134462681D01*
X151947607Y-134517961D01*
X151947605Y-134517964D01*
X151897853Y-134604134D01*
X151872100Y-134700249D01*
X151872100Y-134718100D01*
X151852415Y-134785139D01*
X151799611Y-134830894D01*
X151748100Y-134842100D01*
X150881011Y-134842100D01*
X150867892Y-134842646D01*
X150841618Y-134844841D01*
X150841413Y-134842393D01*
X150782444Y-134835858D01*
X150728184Y-134791839D01*
X150722897Y-134783474D01*
X150702395Y-134747964D01*
X150632036Y-134677605D01*
X150584655Y-134650249D01*
X150545865Y-134627853D01*
X150535895Y-134625182D01*
X150515712Y-134619774D01*
X150456054Y-134583411D01*
X150425524Y-134520564D01*
X150433818Y-134451188D01*
X150478303Y-134397310D01*
X150515711Y-134380226D01*
X150545864Y-134372147D01*
X150632036Y-134322395D01*
X150702395Y-134252036D01*
X150752147Y-134165864D01*
X150777900Y-134069751D01*
X150777900Y-133970249D01*
X150752147Y-133874136D01*
X150702395Y-133787964D01*
X150632036Y-133717605D01*
X150588950Y-133692729D01*
X150545865Y-133667853D01*
X150479794Y-133650150D01*
X150449751Y-133642100D01*
X150350249Y-133642100D01*
X150321947Y-133649683D01*
X150313991Y-133651815D01*
X150244141Y-133650150D01*
X150186279Y-133610986D01*
X150158777Y-133546757D01*
X150157900Y-133532039D01*
X150157900Y-132124008D01*
X150157899Y-132123997D01*
X150154291Y-132090435D01*
X150143085Y-132038924D01*
X150108127Y-131969086D01*
X150062372Y-131916282D01*
X150057317Y-131910722D01*
X149987526Y-131868181D01*
X149932921Y-131852147D01*
X149920484Y-131848495D01*
X149876002Y-131842100D01*
X149876000Y-131842100D01*
X148976900Y-131842100D01*
X148909861Y-131822415D01*
X148864106Y-131769611D01*
X148852900Y-131718100D01*
X148852900Y-131650251D01*
X148852900Y-131650249D01*
X148827147Y-131554136D01*
X148823519Y-131547853D01*
X148806261Y-131517961D01*
X148777395Y-131467964D01*
X148707036Y-131397605D01*
X148663950Y-131372729D01*
X148620865Y-131347853D01*
X148560452Y-131331666D01*
X148524751Y-131322100D01*
X148425249Y-131322100D01*
X148329134Y-131347853D01*
X148242964Y-131397605D01*
X148242961Y-131397607D01*
X148172607Y-131467961D01*
X148172605Y-131467964D01*
X148122853Y-131554134D01*
X148097100Y-131650249D01*
X148097100Y-131718100D01*
X148077415Y-131785139D01*
X148024611Y-131830894D01*
X147973100Y-131842100D01*
X146976900Y-131842100D01*
X146909861Y-131822415D01*
X146864106Y-131769611D01*
X146852900Y-131718100D01*
X146852900Y-131650251D01*
X146852900Y-131650249D01*
X146827147Y-131554136D01*
X146823519Y-131547853D01*
X146806261Y-131517961D01*
X146777395Y-131467964D01*
X146707036Y-131397605D01*
X146663950Y-131372729D01*
X146620865Y-131347853D01*
X146560452Y-131331666D01*
X146524751Y-131322100D01*
X146425249Y-131322100D01*
X146329134Y-131347853D01*
X146242964Y-131397605D01*
X146242961Y-131397607D01*
X146172607Y-131467961D01*
X146172605Y-131467964D01*
X146122853Y-131554134D01*
X146097100Y-131650249D01*
X146097100Y-131751196D01*
X146077415Y-131818235D01*
X146028605Y-131862080D01*
X145969088Y-131891871D01*
X145969085Y-131891874D01*
X145916287Y-131937623D01*
X145910722Y-131942683D01*
X145910720Y-131942685D01*
X145868181Y-132012474D01*
X145848495Y-132079515D01*
X145842100Y-132123997D01*
X145842100Y-134498107D01*
X145845708Y-134531663D01*
X145853582Y-134567853D01*
X145856915Y-134583176D01*
X145857033Y-134583411D01*
X145858748Y-134586837D01*
X145859314Y-134589978D01*
X145859496Y-134590492D01*
X145859412Y-134590521D01*
X145862049Y-134605136D01*
X145870162Y-134621867D01*
X145868124Y-134638805D01*
X145871154Y-134655597D01*
X145864037Y-134672777D01*
X145861817Y-134691236D01*
X145847851Y-134711855D01*
X145844416Y-134720148D01*
X145843426Y-134721360D01*
X145839686Y-134725882D01*
X145797605Y-134767964D01*
X145780747Y-134797161D01*
X145774119Y-134805178D01*
X145753439Y-134819152D01*
X145735374Y-134836377D01*
X145724990Y-134838377D01*
X145716229Y-134844299D01*
X145691274Y-134844875D01*
X145666767Y-134849598D01*
X145660913Y-134848898D01*
X145613626Y-134842100D01*
X145613621Y-134842100D01*
X145100327Y-134842100D01*
X145033288Y-134822415D01*
X144987533Y-134769611D01*
X144977589Y-134700453D01*
X144999055Y-134649492D01*
X144998331Y-134649074D01*
X145001661Y-134643304D01*
X145001955Y-134642609D01*
X145002389Y-134642041D01*
X145002395Y-134642036D01*
X145052147Y-134555864D01*
X145077900Y-134459751D01*
X145077900Y-134360249D01*
X145052147Y-134264136D01*
X145002395Y-134177964D01*
X144932036Y-134107605D01*
X144866470Y-134069750D01*
X144845865Y-134057853D01*
X144797807Y-134044976D01*
X144749751Y-134032100D01*
X144650249Y-134032100D01*
X144554134Y-134057853D01*
X144467964Y-134107605D01*
X144467961Y-134107607D01*
X144397607Y-134177961D01*
X144397605Y-134177964D01*
X144347853Y-134264134D01*
X144335735Y-134309362D01*
X144325422Y-134347853D01*
X144319997Y-134368099D01*
X144317003Y-134367296D01*
X144294671Y-134417776D01*
X144236346Y-134456246D01*
X144166481Y-134457076D01*
X144107258Y-134420002D01*
X144082491Y-134367432D01*
X144080003Y-134368099D01*
X144074790Y-134348642D01*
X144052147Y-134264136D01*
X144002395Y-134177964D01*
X143932036Y-134107605D01*
X143866470Y-134069750D01*
X143845865Y-134057853D01*
X143801505Y-134045967D01*
X143749751Y-134032100D01*
X143650249Y-134032100D01*
X143613348Y-134041987D01*
X143554134Y-134057853D01*
X143467964Y-134107605D01*
X143467961Y-134107607D01*
X143397607Y-134177961D01*
X143397605Y-134177964D01*
X143347853Y-134264134D01*
X143322100Y-134360249D01*
X143322100Y-134459750D01*
X143347853Y-134555865D01*
X143363621Y-134583175D01*
X143389416Y-134627853D01*
X143397606Y-134642037D01*
X143398045Y-134642609D01*
X143398265Y-134643178D01*
X143401669Y-134649074D01*
X143400749Y-134649604D01*
X143423243Y-134707777D01*
X143409207Y-134776222D01*
X143360396Y-134826214D01*
X143299673Y-134842100D01*
X142462978Y-134842100D01*
X142395939Y-134822415D01*
X142355591Y-134780101D01*
X142349534Y-134769611D01*
X142302395Y-134687964D01*
X142232036Y-134617605D01*
X142185126Y-134590521D01*
X142145865Y-134567853D01*
X142094663Y-134554134D01*
X142049751Y-134542100D01*
X141950249Y-134542100D01*
X141854134Y-134567853D01*
X141767964Y-134617605D01*
X141767961Y-134617607D01*
X141697607Y-134687961D01*
X141697605Y-134687964D01*
X141644409Y-134780101D01*
X141593841Y-134828316D01*
X141537022Y-134842100D01*
X141076900Y-134842100D01*
X141009861Y-134822415D01*
X140964106Y-134769611D01*
X140952900Y-134718100D01*
X140952900Y-134650251D01*
X140952900Y-134650249D01*
X140927147Y-134554136D01*
X140877395Y-134467964D01*
X140807036Y-134397605D01*
X140755931Y-134368099D01*
X140720865Y-134347853D01*
X140660452Y-134331666D01*
X140624751Y-134322100D01*
X140525249Y-134322100D01*
X140429134Y-134347853D01*
X140342964Y-134397605D01*
X140342961Y-134397607D01*
X140272607Y-134467961D01*
X140272605Y-134467964D01*
X140222853Y-134554134D01*
X140197100Y-134650249D01*
X140197100Y-134718100D01*
X140177415Y-134785139D01*
X140124611Y-134830894D01*
X140073100Y-134842100D01*
X135177801Y-134842100D01*
X135168435Y-134842378D01*
X135168421Y-134842378D01*
X135168415Y-134842379D01*
X135161865Y-134842769D01*
X135153690Y-134843256D01*
X135100923Y-134855726D01*
X135036723Y-134883218D01*
X135029866Y-134886349D01*
X135029861Y-134886352D01*
X134994274Y-134917188D01*
X134930717Y-134946211D01*
X134861559Y-134936266D01*
X134851077Y-134930862D01*
X134845866Y-134927854D01*
X134845865Y-134927853D01*
X134845864Y-134927853D01*
X134749751Y-134902100D01*
X134650249Y-134902100D01*
X134554136Y-134927853D01*
X134554135Y-134927853D01*
X134554133Y-134927854D01*
X134554128Y-134927855D01*
X134552102Y-134929026D01*
X134550175Y-134929493D01*
X134546622Y-134930965D01*
X134546392Y-134930410D01*
X134484202Y-134945496D01*
X134418175Y-134922642D01*
X134410667Y-134915978D01*
X134410347Y-134916366D01*
X134403513Y-134910723D01*
X134403512Y-134910722D01*
X134401141Y-134909277D01*
X134388195Y-134901385D01*
X134333721Y-134868181D01*
X134266682Y-134848496D01*
X134266679Y-134848495D01*
X134222197Y-134842100D01*
X134222195Y-134842100D01*
X133962309Y-134842100D01*
X133895270Y-134822415D01*
X133849515Y-134769611D01*
X133839571Y-134700453D01*
X133868596Y-134636897D01*
X133900306Y-134610714D01*
X133932036Y-134592395D01*
X134002395Y-134522036D01*
X134052147Y-134435864D01*
X134077900Y-134339751D01*
X134077900Y-134240249D01*
X134052147Y-134144136D01*
X134002395Y-134057964D01*
X133932036Y-133987605D01*
X133867338Y-133950251D01*
X133845865Y-133937853D01*
X133783097Y-133921035D01*
X133749751Y-133912100D01*
X133650249Y-133912100D01*
X133554134Y-133937853D01*
X133467964Y-133987605D01*
X133467961Y-133987607D01*
X133397607Y-134057961D01*
X133397605Y-134057964D01*
X133347853Y-134144134D01*
X133338790Y-134177961D01*
X133322100Y-134240249D01*
X133322100Y-134339751D01*
X133331545Y-134375000D01*
X133347853Y-134435865D01*
X133361644Y-134459751D01*
X133397605Y-134522036D01*
X133467964Y-134592395D01*
X133499692Y-134610713D01*
X133547907Y-134661281D01*
X133561129Y-134729888D01*
X133535161Y-134794753D01*
X133478246Y-134835280D01*
X133437691Y-134842100D01*
X132962309Y-134842100D01*
X132895270Y-134822415D01*
X132849515Y-134769611D01*
X132839571Y-134700453D01*
X132868596Y-134636897D01*
X132900306Y-134610714D01*
X132932036Y-134592395D01*
X133002395Y-134522036D01*
X133052147Y-134435864D01*
X133077900Y-134339751D01*
X133077900Y-134240249D01*
X133052147Y-134144136D01*
X133002395Y-134057964D01*
X132932036Y-133987605D01*
X132867338Y-133950251D01*
X132845865Y-133937853D01*
X132783097Y-133921035D01*
X132749751Y-133912100D01*
X132650249Y-133912100D01*
X132554134Y-133937853D01*
X132467964Y-133987605D01*
X132467961Y-133987607D01*
X132397607Y-134057961D01*
X132397605Y-134057964D01*
X132347853Y-134144134D01*
X132338789Y-134177964D01*
X132322100Y-134240249D01*
X132322100Y-134339751D01*
X132327592Y-134360249D01*
X132347853Y-134435865D01*
X132361644Y-134459751D01*
X132397605Y-134522036D01*
X132467964Y-134592395D01*
X132499692Y-134610713D01*
X132547907Y-134661281D01*
X132561129Y-134729888D01*
X132535161Y-134794753D01*
X132478246Y-134835280D01*
X132437691Y-134842100D01*
X132177801Y-134842100D01*
X132168435Y-134842378D01*
X132168421Y-134842378D01*
X132168415Y-134842379D01*
X132161865Y-134842769D01*
X132153690Y-134843256D01*
X132100923Y-134855726D01*
X132036723Y-134883218D01*
X132029866Y-134886349D01*
X132029861Y-134886352D01*
X131994274Y-134917188D01*
X131930717Y-134946211D01*
X131861559Y-134936266D01*
X131851077Y-134930862D01*
X131845866Y-134927854D01*
X131845865Y-134927853D01*
X131845864Y-134927853D01*
X131749751Y-134902100D01*
X131650249Y-134902100D01*
X131554136Y-134927853D01*
X131554135Y-134927853D01*
X131554133Y-134927854D01*
X131554128Y-134927855D01*
X131552102Y-134929026D01*
X131550175Y-134929493D01*
X131546622Y-134930965D01*
X131546392Y-134930410D01*
X131484202Y-134945496D01*
X131418175Y-134922642D01*
X131410667Y-134915978D01*
X131410347Y-134916366D01*
X131403513Y-134910723D01*
X131403512Y-134910722D01*
X131401141Y-134909277D01*
X131388195Y-134901385D01*
X131333721Y-134868181D01*
X131266682Y-134848496D01*
X131266679Y-134848495D01*
X131222197Y-134842100D01*
X131222195Y-134842100D01*
X128251900Y-134842100D01*
X128184861Y-134822415D01*
X128139106Y-134769611D01*
X128127900Y-134718100D01*
X128127900Y-134700251D01*
X128127900Y-134700249D01*
X128102147Y-134604136D01*
X128052395Y-134517964D01*
X127997112Y-134462681D01*
X127963627Y-134401358D01*
X127968611Y-134331666D01*
X127997112Y-134287319D01*
X128020297Y-134264134D01*
X128052395Y-134232036D01*
X128102147Y-134145864D01*
X128127900Y-134049751D01*
X128127900Y-133950249D01*
X128102147Y-133854136D01*
X128052395Y-133767964D01*
X127997112Y-133712681D01*
X127963627Y-133651358D01*
X127968611Y-133581666D01*
X127997112Y-133537319D01*
X128008567Y-133525864D01*
X128052395Y-133482036D01*
X128102147Y-133395864D01*
X128114369Y-133350249D01*
X130102100Y-133350249D01*
X130102100Y-133449751D01*
X130104839Y-133459974D01*
X130127853Y-133545865D01*
X130152729Y-133588950D01*
X130177605Y-133632036D01*
X130247964Y-133702395D01*
X130334136Y-133752147D01*
X130430249Y-133777900D01*
X130430251Y-133777900D01*
X130529749Y-133777900D01*
X130529751Y-133777900D01*
X130625864Y-133752147D01*
X130712036Y-133702395D01*
X130782395Y-133632036D01*
X130832147Y-133545864D01*
X130857900Y-133449751D01*
X130857900Y-133375249D01*
X131172100Y-133375249D01*
X131172100Y-133474750D01*
X131197853Y-133570865D01*
X131213891Y-133598642D01*
X131247605Y-133657036D01*
X131317964Y-133727395D01*
X131404136Y-133777147D01*
X131500249Y-133802900D01*
X131500251Y-133802900D01*
X131599749Y-133802900D01*
X131599751Y-133802900D01*
X131695864Y-133777147D01*
X131782036Y-133727395D01*
X131852395Y-133657036D01*
X131902147Y-133570864D01*
X131927900Y-133474751D01*
X131927900Y-133375249D01*
X131915842Y-133330249D01*
X135422100Y-133330249D01*
X135422100Y-133429751D01*
X135427459Y-133449750D01*
X135447853Y-133525865D01*
X135463171Y-133552395D01*
X135497605Y-133612036D01*
X135567964Y-133682395D01*
X135654136Y-133732147D01*
X135750249Y-133757900D01*
X135750251Y-133757900D01*
X135849749Y-133757900D01*
X135849751Y-133757900D01*
X135945864Y-133732147D01*
X136032036Y-133682395D01*
X136102395Y-133612036D01*
X136152147Y-133525864D01*
X136177900Y-133429751D01*
X136177900Y-133330249D01*
X138022100Y-133330249D01*
X138022100Y-133429751D01*
X138027459Y-133449750D01*
X138047853Y-133525865D01*
X138063171Y-133552395D01*
X138097605Y-133612036D01*
X138167964Y-133682395D01*
X138254136Y-133732147D01*
X138350249Y-133757900D01*
X138350251Y-133757900D01*
X138449749Y-133757900D01*
X138449751Y-133757900D01*
X138545864Y-133732147D01*
X138632036Y-133682395D01*
X138702395Y-133612036D01*
X138752147Y-133525864D01*
X138777900Y-133429751D01*
X138777900Y-133330249D01*
X139322100Y-133330249D01*
X139322100Y-133429751D01*
X139327459Y-133449750D01*
X139347853Y-133525865D01*
X139363171Y-133552395D01*
X139397605Y-133612036D01*
X139467964Y-133682395D01*
X139554136Y-133732147D01*
X139650249Y-133757900D01*
X139650251Y-133757900D01*
X139749749Y-133757900D01*
X139749751Y-133757900D01*
X139845864Y-133732147D01*
X139932036Y-133682395D01*
X140002395Y-133612036D01*
X140052147Y-133525864D01*
X140077900Y-133429751D01*
X140077900Y-133330249D01*
X142322100Y-133330249D01*
X142322100Y-133429751D01*
X142327459Y-133449750D01*
X142347853Y-133525865D01*
X142363171Y-133552395D01*
X142397605Y-133612036D01*
X142467964Y-133682395D01*
X142554136Y-133732147D01*
X142650249Y-133757900D01*
X142650251Y-133757900D01*
X142749749Y-133757900D01*
X142749751Y-133757900D01*
X142845864Y-133732147D01*
X142932036Y-133682395D01*
X143002395Y-133612036D01*
X143052147Y-133525864D01*
X143077900Y-133429751D01*
X143077900Y-133360249D01*
X143322100Y-133360249D01*
X143322100Y-133459751D01*
X143326119Y-133474749D01*
X143347853Y-133555865D01*
X143356513Y-133570864D01*
X143397605Y-133642036D01*
X143467964Y-133712395D01*
X143554136Y-133762147D01*
X143650249Y-133787900D01*
X143749751Y-133787900D01*
X143845864Y-133762147D01*
X143932036Y-133712395D01*
X144002395Y-133642036D01*
X144052147Y-133555864D01*
X144077900Y-133459751D01*
X144077900Y-133360249D01*
X144075221Y-133350249D01*
X144322100Y-133350249D01*
X144322100Y-133449751D01*
X144324620Y-133459159D01*
X144324621Y-133459161D01*
X144347853Y-133545865D01*
X144372729Y-133588950D01*
X144397605Y-133632036D01*
X144467964Y-133702395D01*
X144554136Y-133752147D01*
X144650249Y-133777900D01*
X144650251Y-133777900D01*
X144749749Y-133777900D01*
X144749751Y-133777900D01*
X144845864Y-133752147D01*
X144932036Y-133702395D01*
X145002395Y-133632036D01*
X145052147Y-133545864D01*
X145077900Y-133449751D01*
X145077900Y-133350249D01*
X145052147Y-133254136D01*
X145002395Y-133167964D01*
X144932036Y-133097605D01*
X144888950Y-133072729D01*
X144845865Y-133047853D01*
X144787072Y-133032100D01*
X144749751Y-133022100D01*
X144650249Y-133022100D01*
X144554134Y-133047853D01*
X144467964Y-133097605D01*
X144467961Y-133097607D01*
X144397607Y-133167961D01*
X144397605Y-133167964D01*
X144347853Y-133254134D01*
X144332877Y-133310027D01*
X144322100Y-133350249D01*
X144075221Y-133350249D01*
X144052147Y-133264136D01*
X144002395Y-133177964D01*
X143932036Y-133107605D01*
X143880075Y-133077605D01*
X143845865Y-133057853D01*
X143797807Y-133044976D01*
X143749751Y-133032100D01*
X143650249Y-133032100D01*
X143554134Y-133057853D01*
X143467964Y-133107605D01*
X143467961Y-133107607D01*
X143397607Y-133177961D01*
X143397605Y-133177964D01*
X143347853Y-133264135D01*
X143347853Y-133264136D01*
X143322100Y-133360249D01*
X143077900Y-133360249D01*
X143077900Y-133330249D01*
X143052147Y-133234136D01*
X143002395Y-133147964D01*
X142932036Y-133077605D01*
X142880505Y-133047853D01*
X142845865Y-133027853D01*
X142797807Y-133014976D01*
X142749751Y-133002100D01*
X142650249Y-133002100D01*
X142554134Y-133027853D01*
X142467964Y-133077605D01*
X142467961Y-133077607D01*
X142397607Y-133147961D01*
X142397605Y-133147964D01*
X142347853Y-133234134D01*
X142335796Y-133279134D01*
X142322100Y-133330249D01*
X140077900Y-133330249D01*
X140052147Y-133234136D01*
X140002395Y-133147964D01*
X139932036Y-133077605D01*
X139880505Y-133047853D01*
X139845865Y-133027853D01*
X139797807Y-133014976D01*
X139749751Y-133002100D01*
X139650249Y-133002100D01*
X139554134Y-133027853D01*
X139467964Y-133077605D01*
X139467961Y-133077607D01*
X139397607Y-133147961D01*
X139397605Y-133147964D01*
X139347853Y-133234134D01*
X139335796Y-133279134D01*
X139322100Y-133330249D01*
X138777900Y-133330249D01*
X138752147Y-133234136D01*
X138702395Y-133147964D01*
X138632036Y-133077605D01*
X138580505Y-133047853D01*
X138545865Y-133027853D01*
X138497807Y-133014976D01*
X138449751Y-133002100D01*
X138350249Y-133002100D01*
X138254134Y-133027853D01*
X138167964Y-133077605D01*
X138167961Y-133077607D01*
X138097607Y-133147961D01*
X138097605Y-133147964D01*
X138047853Y-133234134D01*
X138035796Y-133279134D01*
X138022100Y-133330249D01*
X136177900Y-133330249D01*
X136152147Y-133234136D01*
X136102395Y-133147964D01*
X136032036Y-133077605D01*
X135980505Y-133047853D01*
X135945865Y-133027853D01*
X135897807Y-133014976D01*
X135849751Y-133002100D01*
X135750249Y-133002100D01*
X135654134Y-133027853D01*
X135567964Y-133077605D01*
X135567961Y-133077607D01*
X135497607Y-133147961D01*
X135497605Y-133147964D01*
X135447853Y-133234134D01*
X135435796Y-133279134D01*
X135422100Y-133330249D01*
X131915842Y-133330249D01*
X131902147Y-133279136D01*
X131852395Y-133192964D01*
X131782036Y-133122605D01*
X131738735Y-133097605D01*
X131695865Y-133072853D01*
X131639882Y-133057853D01*
X131599751Y-133047100D01*
X131500249Y-133047100D01*
X131404134Y-133072853D01*
X131317964Y-133122605D01*
X131317961Y-133122607D01*
X131247607Y-133192961D01*
X131247605Y-133192964D01*
X131197853Y-133279134D01*
X131172100Y-133375249D01*
X130857900Y-133375249D01*
X130857900Y-133350249D01*
X130832147Y-133254136D01*
X130782395Y-133167964D01*
X130712036Y-133097605D01*
X130668950Y-133072729D01*
X130625865Y-133047853D01*
X130567072Y-133032100D01*
X130529751Y-133022100D01*
X130430249Y-133022100D01*
X130334134Y-133047853D01*
X130247964Y-133097605D01*
X130247961Y-133097607D01*
X130177607Y-133167961D01*
X130177605Y-133167964D01*
X130127853Y-133254134D01*
X130112877Y-133310027D01*
X130102100Y-133350249D01*
X128114369Y-133350249D01*
X128127900Y-133299751D01*
X128127900Y-133200249D01*
X128102147Y-133104136D01*
X128098377Y-133097607D01*
X128086829Y-133077605D01*
X128052395Y-133017964D01*
X127997112Y-132962681D01*
X127963627Y-132901358D01*
X127968611Y-132831666D01*
X127997112Y-132787319D01*
X128052395Y-132732036D01*
X128102147Y-132645864D01*
X128127900Y-132549751D01*
X128127900Y-132450249D01*
X128102147Y-132354136D01*
X128052395Y-132267964D01*
X127997112Y-132212681D01*
X127963627Y-132151358D01*
X127968611Y-132081666D01*
X127997112Y-132037319D01*
X128021957Y-132012474D01*
X128052395Y-131982036D01*
X128102147Y-131895864D01*
X128114369Y-131850249D01*
X135397100Y-131850249D01*
X135397100Y-131949751D01*
X135402281Y-131969086D01*
X135422853Y-132045865D01*
X135447729Y-132088950D01*
X135472605Y-132132036D01*
X135542964Y-132202395D01*
X135629136Y-132252147D01*
X135725249Y-132277900D01*
X135725251Y-132277900D01*
X135824749Y-132277900D01*
X135824751Y-132277900D01*
X135920864Y-132252147D01*
X136007036Y-132202395D01*
X136012319Y-132197112D01*
X136073642Y-132163627D01*
X136143334Y-132168611D01*
X136187681Y-132197112D01*
X136192964Y-132202395D01*
X136279136Y-132252147D01*
X136375249Y-132277900D01*
X136375251Y-132277900D01*
X136474749Y-132277900D01*
X136474751Y-132277900D01*
X136570864Y-132252147D01*
X136657036Y-132202395D01*
X136662319Y-132197112D01*
X136723642Y-132163627D01*
X136793334Y-132168611D01*
X136837681Y-132197112D01*
X136842964Y-132202395D01*
X136929136Y-132252147D01*
X137025249Y-132277900D01*
X137025251Y-132277900D01*
X137124749Y-132277900D01*
X137124751Y-132277900D01*
X137220864Y-132252147D01*
X137307036Y-132202395D01*
X137377395Y-132132036D01*
X137427147Y-132045864D01*
X137452900Y-131949751D01*
X137452900Y-131850249D01*
X137997100Y-131850249D01*
X137997100Y-131949751D01*
X138002281Y-131969086D01*
X138022853Y-132045865D01*
X138047729Y-132088950D01*
X138072605Y-132132036D01*
X138142964Y-132202395D01*
X138229136Y-132252147D01*
X138325249Y-132277900D01*
X138325251Y-132277900D01*
X138424749Y-132277900D01*
X138424751Y-132277900D01*
X138520864Y-132252147D01*
X138607036Y-132202395D01*
X138677395Y-132132036D01*
X138727147Y-132045864D01*
X138752900Y-131949751D01*
X138752900Y-131850249D01*
X139297100Y-131850249D01*
X139297100Y-131949751D01*
X139302281Y-131969086D01*
X139322853Y-132045865D01*
X139347729Y-132088950D01*
X139372605Y-132132036D01*
X139442964Y-132202395D01*
X139529136Y-132252147D01*
X139625249Y-132277900D01*
X139625251Y-132277900D01*
X139724749Y-132277900D01*
X139724751Y-132277900D01*
X139820864Y-132252147D01*
X139907036Y-132202395D01*
X139977395Y-132132036D01*
X140027147Y-132045864D01*
X140052900Y-131949751D01*
X140052900Y-131949748D01*
X140053663Y-131946901D01*
X140090028Y-131887241D01*
X140152874Y-131856711D01*
X140205529Y-131859218D01*
X140275249Y-131877900D01*
X140275251Y-131877900D01*
X140374749Y-131877900D01*
X140374751Y-131877900D01*
X140470864Y-131852147D01*
X140557036Y-131802395D01*
X140557045Y-131802385D01*
X140561813Y-131798728D01*
X140626981Y-131773530D01*
X140695427Y-131787564D01*
X140724987Y-131809418D01*
X140742964Y-131827395D01*
X140829136Y-131877147D01*
X140925249Y-131902900D01*
X140925251Y-131902900D01*
X141024749Y-131902900D01*
X141024751Y-131902900D01*
X141120864Y-131877147D01*
X141207036Y-131827395D01*
X141225012Y-131809418D01*
X141286332Y-131775933D01*
X141356024Y-131780916D01*
X141388182Y-131798725D01*
X141392963Y-131802394D01*
X141392964Y-131802395D01*
X141436263Y-131827394D01*
X141475848Y-131850249D01*
X141479136Y-131852147D01*
X141575249Y-131877900D01*
X141575251Y-131877900D01*
X141674749Y-131877900D01*
X141674751Y-131877900D01*
X141770864Y-131852147D01*
X141857036Y-131802395D01*
X141927395Y-131732036D01*
X141977147Y-131645864D01*
X142002900Y-131549751D01*
X142002900Y-131450249D01*
X141977147Y-131354136D01*
X141973519Y-131347853D01*
X141958651Y-131322100D01*
X141927395Y-131267964D01*
X141857036Y-131197605D01*
X141813950Y-131172729D01*
X141770865Y-131147853D01*
X141722807Y-131134976D01*
X141674751Y-131122100D01*
X141575249Y-131122100D01*
X141479134Y-131147853D01*
X141392964Y-131197605D01*
X141392960Y-131197608D01*
X141374985Y-131215583D01*
X141313662Y-131249067D01*
X141243970Y-131244081D01*
X141211819Y-131226275D01*
X141207039Y-131222607D01*
X141194873Y-131215583D01*
X141179724Y-131206836D01*
X141120865Y-131172853D01*
X141072807Y-131159976D01*
X141024751Y-131147100D01*
X140925249Y-131147100D01*
X140829134Y-131172853D01*
X140742957Y-131222609D01*
X140738176Y-131226278D01*
X140673006Y-131251470D01*
X140604562Y-131237430D01*
X140575012Y-131215581D01*
X140557038Y-131197607D01*
X140557036Y-131197605D01*
X140513950Y-131172729D01*
X140470865Y-131147853D01*
X140422807Y-131134976D01*
X140374751Y-131122100D01*
X140275249Y-131122100D01*
X140179134Y-131147853D01*
X140092964Y-131197605D01*
X140092961Y-131197607D01*
X140022607Y-131267961D01*
X140022605Y-131267964D01*
X139972853Y-131354134D01*
X139946336Y-131453099D01*
X139909970Y-131512759D01*
X139847123Y-131543288D01*
X139794469Y-131540780D01*
X139724752Y-131522100D01*
X139724751Y-131522100D01*
X139625249Y-131522100D01*
X139529134Y-131547853D01*
X139442964Y-131597605D01*
X139442961Y-131597607D01*
X139372607Y-131667961D01*
X139372605Y-131667964D01*
X139322853Y-131754134D01*
X139302286Y-131830894D01*
X139297100Y-131850249D01*
X138752900Y-131850249D01*
X138727147Y-131754136D01*
X138677395Y-131667964D01*
X138607036Y-131597605D01*
X138563950Y-131572729D01*
X138520865Y-131547853D01*
X138472807Y-131534976D01*
X138424751Y-131522100D01*
X138325249Y-131522100D01*
X138229134Y-131547853D01*
X138142964Y-131597605D01*
X138142961Y-131597607D01*
X138072607Y-131667961D01*
X138072605Y-131667964D01*
X138022853Y-131754134D01*
X138002286Y-131830894D01*
X137997100Y-131850249D01*
X137452900Y-131850249D01*
X137427147Y-131754136D01*
X137377395Y-131667964D01*
X137307036Y-131597605D01*
X137263950Y-131572729D01*
X137220865Y-131547853D01*
X137172807Y-131534976D01*
X137124751Y-131522100D01*
X137025249Y-131522100D01*
X136929134Y-131547853D01*
X136842964Y-131597605D01*
X136842958Y-131597609D01*
X136837677Y-131602891D01*
X136776353Y-131636373D01*
X136706661Y-131631386D01*
X136662323Y-131602891D01*
X136657041Y-131597609D01*
X136657038Y-131597607D01*
X136657036Y-131597605D01*
X136613950Y-131572729D01*
X136570865Y-131547853D01*
X136522807Y-131534976D01*
X136474751Y-131522100D01*
X136375249Y-131522100D01*
X136279134Y-131547853D01*
X136192964Y-131597605D01*
X136192958Y-131597609D01*
X136187677Y-131602891D01*
X136126353Y-131636373D01*
X136056661Y-131631386D01*
X136012323Y-131602891D01*
X136007041Y-131597609D01*
X136007038Y-131597607D01*
X136007036Y-131597605D01*
X135963950Y-131572729D01*
X135920865Y-131547853D01*
X135872807Y-131534976D01*
X135824751Y-131522100D01*
X135725249Y-131522100D01*
X135629134Y-131547853D01*
X135542964Y-131597605D01*
X135542961Y-131597607D01*
X135472607Y-131667961D01*
X135472605Y-131667964D01*
X135422853Y-131754134D01*
X135402286Y-131830894D01*
X135397100Y-131850249D01*
X128114369Y-131850249D01*
X128127900Y-131799751D01*
X128127900Y-131700249D01*
X128102147Y-131604136D01*
X128098377Y-131597607D01*
X128073279Y-131554136D01*
X128052395Y-131517964D01*
X127997112Y-131462681D01*
X127963627Y-131401358D01*
X127968611Y-131331666D01*
X127997112Y-131287319D01*
X128016470Y-131267961D01*
X128052395Y-131232036D01*
X128102147Y-131145864D01*
X128127900Y-131049751D01*
X128127900Y-130950249D01*
X128102147Y-130854136D01*
X128052395Y-130767964D01*
X127982036Y-130697605D01*
X127944370Y-130675858D01*
X127917180Y-130660159D01*
X127868965Y-130609591D01*
X127855744Y-130540984D01*
X127881713Y-130476120D01*
X127906292Y-130452459D01*
X127933032Y-130433032D01*
X127993637Y-130349616D01*
X128025500Y-130251554D01*
X128025500Y-130200000D01*
X128025500Y-130191715D01*
X128025500Y-127309756D01*
X128027027Y-127290359D01*
X128035862Y-127234575D01*
X128035863Y-127234573D01*
X128047848Y-127197680D01*
X128069011Y-127156146D01*
X128091810Y-127124767D01*
X128124767Y-127091810D01*
X128156146Y-127069011D01*
X128197680Y-127047848D01*
X128234566Y-127035863D01*
X128290370Y-127027025D01*
X128309757Y-127025500D01*
X134990243Y-127025500D01*
X135009640Y-127027027D01*
G37*
%TD.AperFunction*%
%TD*%
%TA.AperFunction,Conductor*%
%TO.N,VCC*%
G36*
X146221079Y-132004150D02*
G01*
X146234825Y-132003496D01*
X146267591Y-132016614D01*
X146329130Y-132052144D01*
X146329131Y-132052144D01*
X146329136Y-132052147D01*
X146425249Y-132077900D01*
X146425251Y-132077900D01*
X146524749Y-132077900D01*
X146524751Y-132077900D01*
X146620864Y-132052147D01*
X146633664Y-132044756D01*
X146682409Y-132016614D01*
X146744410Y-132000000D01*
X148205590Y-132000000D01*
X148267591Y-132016614D01*
X148329130Y-132052144D01*
X148329131Y-132052144D01*
X148329136Y-132052147D01*
X148425249Y-132077900D01*
X148425251Y-132077900D01*
X148524749Y-132077900D01*
X148524751Y-132077900D01*
X148620864Y-132052147D01*
X148633664Y-132044756D01*
X148682409Y-132016614D01*
X148744410Y-132000000D01*
X149876000Y-132000000D01*
X149943039Y-132019685D01*
X149988794Y-132072489D01*
X150000000Y-132124000D01*
X150000000Y-134055555D01*
X149980315Y-134122594D01*
X149927511Y-134168349D01*
X149858353Y-134178293D01*
X149843912Y-134175331D01*
X149799750Y-134163498D01*
X149700248Y-134163498D01*
X149599339Y-134190536D01*
X149529489Y-134188873D01*
X149471627Y-134149710D01*
X149444123Y-134085481D01*
X149447471Y-134038671D01*
X149457900Y-133999751D01*
X149457900Y-133900249D01*
X149432147Y-133804136D01*
X149431433Y-133802900D01*
X149405452Y-133757900D01*
X149382395Y-133717964D01*
X149312036Y-133647605D01*
X149268950Y-133622729D01*
X149225865Y-133597853D01*
X149177807Y-133584976D01*
X149129751Y-133572100D01*
X149030249Y-133572100D01*
X148934134Y-133597853D01*
X148847964Y-133647605D01*
X148847961Y-133647607D01*
X148777607Y-133717961D01*
X148777605Y-133717964D01*
X148727853Y-133804135D01*
X148719775Y-133834285D01*
X148683410Y-133893946D01*
X148620563Y-133924475D01*
X148551188Y-133916180D01*
X148497310Y-133871695D01*
X148480225Y-133834285D01*
X148472147Y-133804136D01*
X148422395Y-133717964D01*
X148352036Y-133647605D01*
X148308950Y-133622729D01*
X148265865Y-133597853D01*
X148217807Y-133584976D01*
X148169751Y-133572100D01*
X148070249Y-133572100D01*
X147974134Y-133597853D01*
X147887964Y-133647605D01*
X147887961Y-133647607D01*
X147817607Y-133717961D01*
X147817605Y-133717964D01*
X147767853Y-133804134D01*
X147742100Y-133900249D01*
X147742100Y-133999750D01*
X147767853Y-134095865D01*
X147783286Y-134122594D01*
X147817605Y-134182036D01*
X147887964Y-134252395D01*
X147962588Y-134295480D01*
X147971908Y-134300861D01*
X147974136Y-134302147D01*
X148070249Y-134327900D01*
X148070251Y-134327900D01*
X148169749Y-134327900D01*
X148169751Y-134327900D01*
X148265864Y-134302147D01*
X148352036Y-134252395D01*
X148422395Y-134182036D01*
X148472147Y-134095864D01*
X148480225Y-134065712D01*
X148516589Y-134006054D01*
X148579436Y-133975524D01*
X148648812Y-133983818D01*
X148702690Y-134028303D01*
X148719773Y-134065711D01*
X148725071Y-134085481D01*
X148727853Y-134095865D01*
X148743286Y-134122594D01*
X148777605Y-134182036D01*
X148847964Y-134252395D01*
X148922588Y-134295480D01*
X148931908Y-134300861D01*
X148934136Y-134302147D01*
X149030249Y-134327900D01*
X149030251Y-134327900D01*
X149129748Y-134327900D01*
X149129751Y-134327900D01*
X149225864Y-134302147D01*
X149225868Y-134302144D01*
X149230658Y-134300861D01*
X149300508Y-134302524D01*
X149358371Y-134341686D01*
X149385875Y-134405914D01*
X149382527Y-134452728D01*
X149372099Y-134491645D01*
X149372099Y-134591148D01*
X149397852Y-134687263D01*
X149422728Y-134730348D01*
X149447604Y-134773434D01*
X149517963Y-134843793D01*
X149604135Y-134893545D01*
X149700248Y-134919298D01*
X149700250Y-134919298D01*
X149799748Y-134919298D01*
X149799750Y-134919298D01*
X149843908Y-134907466D01*
X149913755Y-134909127D01*
X149971618Y-134948289D01*
X149983676Y-134965743D01*
X150000000Y-134994324D01*
X150000000Y-135000000D01*
X150003241Y-135000000D01*
X150015800Y-135021989D01*
X150019212Y-135036347D01*
X150027898Y-135051392D01*
X150047853Y-135125864D01*
X150097605Y-135212036D01*
X150167964Y-135282395D01*
X150242588Y-135325480D01*
X150249982Y-135329749D01*
X150254136Y-135332147D01*
X150350249Y-135357900D01*
X150350251Y-135357900D01*
X150449749Y-135357900D01*
X150449751Y-135357900D01*
X150545864Y-135332147D01*
X150632036Y-135282395D01*
X150702395Y-135212036D01*
X150752147Y-135125864D01*
X150761245Y-135091907D01*
X150797609Y-135032247D01*
X150860456Y-135001717D01*
X150881020Y-135000000D01*
X151914207Y-135000000D01*
X151943647Y-135008644D01*
X151973634Y-135015168D01*
X151978649Y-135018922D01*
X151981246Y-135019685D01*
X152001888Y-135036319D01*
X152002888Y-135037319D01*
X152036373Y-135098642D01*
X152031389Y-135168334D01*
X152002888Y-135212681D01*
X151947607Y-135267961D01*
X151947605Y-135267964D01*
X151897853Y-135354134D01*
X151878088Y-135427900D01*
X151872100Y-135450249D01*
X151872100Y-135549751D01*
X151879563Y-135577605D01*
X151897853Y-135645865D01*
X151899065Y-135647964D01*
X151947605Y-135732036D01*
X151947607Y-135732038D01*
X152002888Y-135787319D01*
X152036373Y-135848642D01*
X152031389Y-135918334D01*
X152002888Y-135962681D01*
X151947607Y-136017961D01*
X151947605Y-136017964D01*
X151897853Y-136104134D01*
X151872100Y-136200249D01*
X151872100Y-136299750D01*
X151897853Y-136395865D01*
X151922729Y-136438950D01*
X151947605Y-136482036D01*
X151947607Y-136482038D01*
X152002888Y-136537319D01*
X152036373Y-136598642D01*
X152031389Y-136668334D01*
X152002888Y-136712681D01*
X151947607Y-136767961D01*
X151947605Y-136767964D01*
X151897853Y-136854134D01*
X151891564Y-136877607D01*
X151872100Y-136950249D01*
X151872100Y-137049751D01*
X151884749Y-137096957D01*
X151897853Y-137145865D01*
X151922158Y-137187961D01*
X151947605Y-137232036D01*
X151947607Y-137232038D01*
X152002888Y-137287319D01*
X152036373Y-137348642D01*
X152031389Y-137418334D01*
X152002888Y-137462681D01*
X151947607Y-137517961D01*
X151947605Y-137517964D01*
X151897853Y-137604134D01*
X151881662Y-137664562D01*
X151872100Y-137700249D01*
X151872100Y-137799751D01*
X151873630Y-137805460D01*
X151897853Y-137895865D01*
X151916349Y-137927900D01*
X151947605Y-137982036D01*
X151947607Y-137982038D01*
X152002888Y-138037319D01*
X152036373Y-138098642D01*
X152031389Y-138168334D01*
X152002888Y-138212681D01*
X151947607Y-138267961D01*
X151947605Y-138267964D01*
X151897853Y-138354134D01*
X151872100Y-138450249D01*
X151872100Y-138549751D01*
X151884922Y-138597605D01*
X151897853Y-138645865D01*
X151922729Y-138688950D01*
X151947605Y-138732036D01*
X151947607Y-138732038D01*
X152002888Y-138787319D01*
X152036373Y-138848642D01*
X152031389Y-138918334D01*
X152002888Y-138962681D01*
X151947607Y-139017961D01*
X151947605Y-139017964D01*
X151897853Y-139104134D01*
X151872100Y-139200249D01*
X151872100Y-139299750D01*
X151897853Y-139395865D01*
X151914531Y-139424751D01*
X151947605Y-139482036D01*
X151947607Y-139482038D01*
X152002888Y-139537319D01*
X152036373Y-139598642D01*
X152031389Y-139668334D01*
X152002888Y-139712681D01*
X151947607Y-139767961D01*
X151947605Y-139767964D01*
X151897853Y-139854134D01*
X151872100Y-139950249D01*
X151872100Y-140049750D01*
X151897853Y-140145865D01*
X151916349Y-140177900D01*
X151947605Y-140232036D01*
X151947607Y-140232038D01*
X152002888Y-140287319D01*
X152036373Y-140348642D01*
X152031389Y-140418334D01*
X152002888Y-140462681D01*
X151947607Y-140517961D01*
X151947605Y-140517964D01*
X151897853Y-140604134D01*
X151872100Y-140700249D01*
X151872100Y-140799750D01*
X151897853Y-140895865D01*
X151914531Y-140924751D01*
X151947605Y-140982036D01*
X151947607Y-140982038D01*
X152002888Y-141037319D01*
X152036373Y-141098642D01*
X152031389Y-141168334D01*
X152002888Y-141212681D01*
X151947607Y-141267961D01*
X151947605Y-141267964D01*
X151897853Y-141354134D01*
X151872100Y-141450249D01*
X151872100Y-141549750D01*
X151897853Y-141645865D01*
X151922729Y-141688950D01*
X151947605Y-141732036D01*
X151947607Y-141732038D01*
X152002888Y-141787319D01*
X152036373Y-141848642D01*
X152031389Y-141918334D01*
X152002888Y-141962681D01*
X151947607Y-142017961D01*
X151947605Y-142017964D01*
X151897853Y-142104134D01*
X151872100Y-142200249D01*
X151872100Y-142299750D01*
X151897853Y-142395865D01*
X151922729Y-142438950D01*
X151947605Y-142482036D01*
X151947607Y-142482038D01*
X152002888Y-142537319D01*
X152036373Y-142598642D01*
X152031389Y-142668334D01*
X152002888Y-142712681D01*
X151947607Y-142767961D01*
X151947605Y-142767964D01*
X151897853Y-142854134D01*
X151891995Y-142876000D01*
X151883395Y-142908094D01*
X151847031Y-142967753D01*
X151784185Y-142998283D01*
X151763621Y-143000000D01*
X147824500Y-143000000D01*
X147757461Y-142980315D01*
X147711706Y-142927511D01*
X147700500Y-142876000D01*
X147700500Y-141367228D01*
X147720185Y-141300189D01*
X147772989Y-141254434D01*
X147842147Y-141244490D01*
X147856570Y-141247448D01*
X147948249Y-141272013D01*
X147948252Y-141272013D01*
X148047749Y-141272013D01*
X148047751Y-141272013D01*
X148143864Y-141246260D01*
X148230036Y-141196508D01*
X148300395Y-141126149D01*
X148350147Y-141039977D01*
X148375900Y-140943864D01*
X148375900Y-140844362D01*
X148370779Y-140825249D01*
X149022100Y-140825249D01*
X149022100Y-140924751D01*
X149027221Y-140943862D01*
X149047853Y-141020865D01*
X149072729Y-141063950D01*
X149097605Y-141107036D01*
X149167964Y-141177395D01*
X149231045Y-141213815D01*
X149237623Y-141217613D01*
X149285838Y-141268181D01*
X149299060Y-141336788D01*
X149273092Y-141401653D01*
X149237623Y-141432387D01*
X149167964Y-141472605D01*
X149167961Y-141472607D01*
X149097607Y-141542961D01*
X149097605Y-141542964D01*
X149047853Y-141629134D01*
X149022100Y-141725249D01*
X149022100Y-141824751D01*
X149029441Y-141852147D01*
X149047853Y-141920865D01*
X149063292Y-141947605D01*
X149097605Y-142007036D01*
X149167964Y-142077395D01*
X149254136Y-142127147D01*
X149350249Y-142152900D01*
X149350251Y-142152900D01*
X149449749Y-142152900D01*
X149449751Y-142152900D01*
X149545864Y-142127147D01*
X149632036Y-142077395D01*
X149702395Y-142007036D01*
X149752147Y-141920864D01*
X149777900Y-141824751D01*
X149777900Y-141725249D01*
X149752147Y-141629136D01*
X149702395Y-141542964D01*
X149632036Y-141472605D01*
X149562376Y-141432386D01*
X149514161Y-141381820D01*
X149500939Y-141313213D01*
X149526907Y-141248348D01*
X149562377Y-141217613D01*
X149568955Y-141213815D01*
X149632036Y-141177395D01*
X149702395Y-141107036D01*
X149752147Y-141020864D01*
X149777900Y-140924751D01*
X149777900Y-140825249D01*
X150272100Y-140825249D01*
X150272100Y-140924751D01*
X150277221Y-140943862D01*
X150297853Y-141020865D01*
X150322729Y-141063950D01*
X150347605Y-141107036D01*
X150417964Y-141177395D01*
X150481045Y-141213815D01*
X150487623Y-141217613D01*
X150535838Y-141268181D01*
X150549060Y-141336788D01*
X150523092Y-141401653D01*
X150487623Y-141432387D01*
X150417964Y-141472605D01*
X150417961Y-141472607D01*
X150347607Y-141542961D01*
X150347605Y-141542964D01*
X150297853Y-141629134D01*
X150272100Y-141725249D01*
X150272100Y-141824751D01*
X150279441Y-141852147D01*
X150297853Y-141920865D01*
X150313292Y-141947605D01*
X150347605Y-142007036D01*
X150417964Y-142077395D01*
X150504136Y-142127147D01*
X150600249Y-142152900D01*
X150600251Y-142152900D01*
X150699749Y-142152900D01*
X150699751Y-142152900D01*
X150795864Y-142127147D01*
X150882036Y-142077395D01*
X150952395Y-142007036D01*
X151002147Y-141920864D01*
X151027900Y-141824751D01*
X151027900Y-141725249D01*
X151002147Y-141629136D01*
X150952395Y-141542964D01*
X150882036Y-141472605D01*
X150812376Y-141432386D01*
X150764161Y-141381820D01*
X150750939Y-141313213D01*
X150776907Y-141248348D01*
X150812377Y-141217613D01*
X150818955Y-141213815D01*
X150882036Y-141177395D01*
X150952395Y-141107036D01*
X151002147Y-141020864D01*
X151027900Y-140924751D01*
X151027900Y-140825249D01*
X151002147Y-140729136D01*
X150952395Y-140642964D01*
X150882036Y-140572605D01*
X150838950Y-140547729D01*
X150795865Y-140522853D01*
X150719893Y-140502497D01*
X150699751Y-140497100D01*
X150600249Y-140497100D01*
X150504134Y-140522853D01*
X150417964Y-140572605D01*
X150417961Y-140572607D01*
X150347607Y-140642961D01*
X150347605Y-140642964D01*
X150297853Y-140729134D01*
X150278932Y-140799750D01*
X150272100Y-140825249D01*
X149777900Y-140825249D01*
X149752147Y-140729136D01*
X149702395Y-140642964D01*
X149632036Y-140572605D01*
X149588950Y-140547729D01*
X149545865Y-140522853D01*
X149469893Y-140502497D01*
X149449751Y-140497100D01*
X149350249Y-140497100D01*
X149254134Y-140522853D01*
X149167964Y-140572605D01*
X149167961Y-140572607D01*
X149097607Y-140642961D01*
X149097605Y-140642964D01*
X149047853Y-140729134D01*
X149028932Y-140799750D01*
X149022100Y-140825249D01*
X148370779Y-140825249D01*
X148350147Y-140748249D01*
X148300395Y-140662077D01*
X148230036Y-140591718D01*
X148186950Y-140566842D01*
X148143865Y-140541966D01*
X148072532Y-140522853D01*
X148047751Y-140516213D01*
X147948249Y-140516213D01*
X147852134Y-140541966D01*
X147765964Y-140591718D01*
X147765961Y-140591720D01*
X147695607Y-140662074D01*
X147695605Y-140662077D01*
X147645853Y-140748247D01*
X147632053Y-140799751D01*
X147620100Y-140844362D01*
X147620100Y-140943864D01*
X147645036Y-141036928D01*
X147645853Y-141039977D01*
X147650196Y-141047499D01*
X147666669Y-141115399D01*
X147643817Y-141181426D01*
X147588896Y-141224617D01*
X147542809Y-141233500D01*
X141364437Y-141233500D01*
X141349500Y-141248437D01*
X141349500Y-142876000D01*
X141329815Y-142943039D01*
X141277011Y-142988794D01*
X141225500Y-143000000D01*
X138524500Y-143000000D01*
X138457461Y-142980315D01*
X138411706Y-142927511D01*
X138400500Y-142876000D01*
X138400500Y-141248438D01*
X138385562Y-141233500D01*
X135675796Y-141233500D01*
X135608757Y-141213815D01*
X135563002Y-141161011D01*
X135553058Y-141091853D01*
X135568409Y-141047501D01*
X135577144Y-141032371D01*
X135577144Y-141032368D01*
X135577147Y-141032364D01*
X135602900Y-140936251D01*
X135602900Y-140836749D01*
X135581033Y-140755139D01*
X140527081Y-140755139D01*
X140527081Y-140854641D01*
X140538127Y-140895865D01*
X140552834Y-140950755D01*
X140570894Y-140982035D01*
X140602586Y-141036926D01*
X140672945Y-141107285D01*
X140759117Y-141157037D01*
X140855230Y-141182790D01*
X140855232Y-141182790D01*
X140954730Y-141182790D01*
X140954732Y-141182790D01*
X141050845Y-141157037D01*
X141137017Y-141107285D01*
X141207376Y-141036926D01*
X141257128Y-140950754D01*
X141282881Y-140854641D01*
X141282881Y-140755139D01*
X141257128Y-140659026D01*
X141207376Y-140572854D01*
X141137017Y-140502495D01*
X141093931Y-140477619D01*
X141050846Y-140452743D01*
X141002788Y-140439866D01*
X140954732Y-140426990D01*
X140855230Y-140426990D01*
X140759115Y-140452743D01*
X140672945Y-140502495D01*
X140672942Y-140502497D01*
X140602588Y-140572851D01*
X140602586Y-140572854D01*
X140552834Y-140659024D01*
X140530967Y-140740636D01*
X140527081Y-140755139D01*
X135581033Y-140755139D01*
X135577147Y-140740636D01*
X135527395Y-140654464D01*
X135457036Y-140584105D01*
X135413950Y-140559229D01*
X135370865Y-140534353D01*
X135309687Y-140517961D01*
X135274751Y-140508600D01*
X135175249Y-140508600D01*
X135079134Y-140534353D01*
X134992964Y-140584105D01*
X134992961Y-140584107D01*
X134922607Y-140654461D01*
X134922605Y-140654464D01*
X134872853Y-140740634D01*
X134857013Y-140799751D01*
X134847100Y-140836749D01*
X134847100Y-140936251D01*
X134859368Y-140982038D01*
X134872854Y-141032366D01*
X134872855Y-141032371D01*
X134881591Y-141047501D01*
X134898064Y-141115401D01*
X134875211Y-141181428D01*
X134820290Y-141224618D01*
X134774204Y-141233500D01*
X132064437Y-141233500D01*
X132049500Y-141248437D01*
X132049500Y-142876000D01*
X132029815Y-142943039D01*
X131977011Y-142988794D01*
X131925500Y-143000000D01*
X128236379Y-143000000D01*
X128169340Y-142980315D01*
X128123585Y-142927511D01*
X128116606Y-142908098D01*
X128102147Y-142854136D01*
X128052395Y-142767964D01*
X127997112Y-142712681D01*
X127963627Y-142651358D01*
X127968611Y-142581666D01*
X127997112Y-142537319D01*
X128052395Y-142482036D01*
X128102147Y-142395864D01*
X128127900Y-142299751D01*
X128127900Y-142200249D01*
X128102147Y-142104136D01*
X128052395Y-142017964D01*
X127997112Y-141962681D01*
X127963627Y-141901358D01*
X127968611Y-141831666D01*
X127997112Y-141787319D01*
X128052395Y-141732036D01*
X128102147Y-141645864D01*
X128127900Y-141549751D01*
X128127900Y-141450249D01*
X128102147Y-141354136D01*
X128052395Y-141267964D01*
X127997112Y-141212681D01*
X127963627Y-141151358D01*
X127968611Y-141081666D01*
X127997112Y-141037319D01*
X128013567Y-141020864D01*
X128052395Y-140982036D01*
X128102147Y-140895864D01*
X128127900Y-140799751D01*
X128127900Y-140700249D01*
X128102147Y-140604136D01*
X128052395Y-140517964D01*
X127997112Y-140462681D01*
X127963627Y-140401358D01*
X127968611Y-140331666D01*
X127997112Y-140287319D01*
X128006532Y-140277899D01*
X128052395Y-140232036D01*
X128102147Y-140145864D01*
X128127900Y-140049751D01*
X128127900Y-139950249D01*
X128102147Y-139854136D01*
X128099903Y-139850249D01*
X128078315Y-139812857D01*
X128078312Y-139812854D01*
X128052395Y-139767964D01*
X128034680Y-139750249D01*
X130622100Y-139750249D01*
X130622100Y-139849751D01*
X130623275Y-139854136D01*
X130647853Y-139945865D01*
X130672729Y-139988950D01*
X130697605Y-140032036D01*
X130767964Y-140102395D01*
X130854136Y-140152147D01*
X130950249Y-140177900D01*
X130950251Y-140177900D01*
X131049749Y-140177900D01*
X131049751Y-140177900D01*
X131145864Y-140152147D01*
X131232036Y-140102395D01*
X131302395Y-140032036D01*
X131352147Y-139945864D01*
X131377767Y-139850249D01*
X133522100Y-139850249D01*
X133522100Y-139949751D01*
X133522234Y-139950251D01*
X133547853Y-140045865D01*
X133550097Y-140049751D01*
X133597605Y-140132036D01*
X133667964Y-140202395D01*
X133754136Y-140252147D01*
X133850249Y-140277900D01*
X133850251Y-140277900D01*
X133949749Y-140277900D01*
X133949751Y-140277900D01*
X134045864Y-140252147D01*
X134132036Y-140202395D01*
X134132182Y-140202249D01*
X142897100Y-140202249D01*
X142897100Y-140301750D01*
X142922853Y-140397865D01*
X142924870Y-140401358D01*
X142972605Y-140484036D01*
X143042964Y-140554395D01*
X143129136Y-140604147D01*
X143225249Y-140629900D01*
X143225251Y-140629900D01*
X143324749Y-140629900D01*
X143324751Y-140629900D01*
X143420864Y-140604147D01*
X143507036Y-140554395D01*
X143577395Y-140484036D01*
X143627147Y-140397864D01*
X143652900Y-140301751D01*
X143652900Y-140202249D01*
X143627147Y-140106136D01*
X143577395Y-140019964D01*
X143507036Y-139949605D01*
X143463950Y-139924729D01*
X143420865Y-139899853D01*
X143372807Y-139886976D01*
X143324751Y-139874100D01*
X143225249Y-139874100D01*
X143129134Y-139899853D01*
X143042964Y-139949605D01*
X143042961Y-139949607D01*
X142972607Y-140019961D01*
X142972605Y-140019964D01*
X142922853Y-140106134D01*
X142897100Y-140202249D01*
X134132182Y-140202249D01*
X134202395Y-140132036D01*
X134252147Y-140045864D01*
X134277900Y-139949751D01*
X134277900Y-139850249D01*
X134252147Y-139754136D01*
X134251433Y-139752900D01*
X134236564Y-139727146D01*
X134202395Y-139667964D01*
X134132036Y-139597605D01*
X134080692Y-139567961D01*
X134045865Y-139547853D01*
X133997807Y-139534976D01*
X133949751Y-139522100D01*
X133850249Y-139522100D01*
X133754134Y-139547853D01*
X133667964Y-139597605D01*
X133667961Y-139597607D01*
X133597607Y-139667961D01*
X133597605Y-139667964D01*
X133547853Y-139754134D01*
X133532119Y-139812857D01*
X133522100Y-139850249D01*
X131377767Y-139850249D01*
X131377900Y-139849751D01*
X131377900Y-139750249D01*
X131352147Y-139654136D01*
X131348519Y-139647853D01*
X131327014Y-139610605D01*
X131302395Y-139567964D01*
X131232036Y-139497605D01*
X131188950Y-139472729D01*
X131145865Y-139447853D01*
X131097807Y-139434976D01*
X131049751Y-139422100D01*
X130950249Y-139422100D01*
X130854134Y-139447853D01*
X130767964Y-139497605D01*
X130767961Y-139497607D01*
X130697607Y-139567961D01*
X130697605Y-139567964D01*
X130647853Y-139654134D01*
X130634615Y-139703540D01*
X130622100Y-139750249D01*
X128034680Y-139750249D01*
X127992748Y-139708317D01*
X127988838Y-139703540D01*
X127977530Y-139676820D01*
X127963627Y-139651358D01*
X127964079Y-139645034D01*
X127961608Y-139639195D01*
X127966541Y-139610605D01*
X127968611Y-139581666D01*
X127972608Y-139575446D01*
X127973489Y-139570343D01*
X127981510Y-139561593D01*
X127997112Y-139537319D01*
X128013567Y-139520864D01*
X128052395Y-139482036D01*
X128102147Y-139395864D01*
X128121068Y-139325249D01*
X147772100Y-139325249D01*
X147772100Y-139424751D01*
X147778290Y-139447853D01*
X147797853Y-139520865D01*
X147821368Y-139561593D01*
X147847605Y-139607036D01*
X147917964Y-139677395D01*
X148004136Y-139727147D01*
X148100249Y-139752900D01*
X148100251Y-139752900D01*
X148199749Y-139752900D01*
X148199751Y-139752900D01*
X148295864Y-139727147D01*
X148382036Y-139677395D01*
X148452395Y-139607036D01*
X148502147Y-139520864D01*
X148527900Y-139424751D01*
X148527900Y-139325249D01*
X148507804Y-139250249D01*
X149322100Y-139250249D01*
X149322100Y-139349750D01*
X149347853Y-139445865D01*
X149368737Y-139482036D01*
X149397605Y-139532036D01*
X149467964Y-139602395D01*
X149554136Y-139652147D01*
X149650249Y-139677900D01*
X149650251Y-139677900D01*
X149749749Y-139677900D01*
X149749751Y-139677900D01*
X149845864Y-139652147D01*
X149932036Y-139602395D01*
X150002395Y-139532036D01*
X150052147Y-139445864D01*
X150077900Y-139349751D01*
X150077900Y-139250249D01*
X150052147Y-139154136D01*
X150002395Y-139067964D01*
X149932036Y-138997605D01*
X149871547Y-138962681D01*
X149845865Y-138947853D01*
X149797807Y-138934976D01*
X149749751Y-138922100D01*
X149650249Y-138922100D01*
X149554134Y-138947853D01*
X149467964Y-138997605D01*
X149467961Y-138997607D01*
X149397607Y-139067961D01*
X149397605Y-139067964D01*
X149347853Y-139154134D01*
X149322100Y-139250249D01*
X148507804Y-139250249D01*
X148502147Y-139229136D01*
X148452395Y-139142964D01*
X148382036Y-139072605D01*
X148338950Y-139047729D01*
X148295865Y-139022853D01*
X148247807Y-139009976D01*
X148199751Y-138997100D01*
X148100249Y-138997100D01*
X148004134Y-139022853D01*
X147917964Y-139072605D01*
X147917961Y-139072607D01*
X147847607Y-139142961D01*
X147847605Y-139142964D01*
X147797853Y-139229134D01*
X147778932Y-139299750D01*
X147772100Y-139325249D01*
X128121068Y-139325249D01*
X128127900Y-139299751D01*
X128127900Y-139200249D01*
X128102147Y-139104136D01*
X128052395Y-139017964D01*
X127997112Y-138962681D01*
X127963627Y-138901358D01*
X127968611Y-138831666D01*
X127997112Y-138787319D01*
X128004313Y-138780118D01*
X128052395Y-138732036D01*
X128102147Y-138645864D01*
X128127767Y-138550249D01*
X130102100Y-138550249D01*
X130102100Y-138649750D01*
X130127853Y-138745865D01*
X130151787Y-138787319D01*
X130177605Y-138832036D01*
X130247964Y-138902395D01*
X130322588Y-138945480D01*
X130329982Y-138949749D01*
X130334136Y-138952147D01*
X130430249Y-138977900D01*
X130430251Y-138977900D01*
X130529749Y-138977900D01*
X130529751Y-138977900D01*
X130625864Y-138952147D01*
X130712036Y-138902395D01*
X130782395Y-138832036D01*
X130832147Y-138745864D01*
X130857900Y-138649751D01*
X130857900Y-138550249D01*
X131153100Y-138550249D01*
X131153100Y-138649750D01*
X131178853Y-138745865D01*
X131202787Y-138787319D01*
X131228605Y-138832036D01*
X131298964Y-138902395D01*
X131373588Y-138945480D01*
X131380982Y-138949749D01*
X131385136Y-138952147D01*
X131481249Y-138977900D01*
X131481251Y-138977900D01*
X131580749Y-138977900D01*
X131580751Y-138977900D01*
X131676864Y-138952147D01*
X131763036Y-138902395D01*
X131815182Y-138850249D01*
X135397100Y-138850249D01*
X135397100Y-138949750D01*
X135422853Y-139045865D01*
X135438292Y-139072605D01*
X135472605Y-139132036D01*
X135542964Y-139202395D01*
X135617588Y-139245480D01*
X135625848Y-139250249D01*
X135629136Y-139252147D01*
X135725249Y-139277900D01*
X135725251Y-139277900D01*
X135824749Y-139277900D01*
X135824751Y-139277900D01*
X135920864Y-139252147D01*
X136007036Y-139202395D01*
X136012319Y-139197112D01*
X136073642Y-139163627D01*
X136143334Y-139168611D01*
X136187681Y-139197112D01*
X136192964Y-139202395D01*
X136267588Y-139245480D01*
X136275848Y-139250249D01*
X136279136Y-139252147D01*
X136375249Y-139277900D01*
X136375251Y-139277900D01*
X136474749Y-139277900D01*
X136474751Y-139277900D01*
X136570864Y-139252147D01*
X136657036Y-139202395D01*
X136662319Y-139197112D01*
X136723642Y-139163627D01*
X136793334Y-139168611D01*
X136837681Y-139197112D01*
X136842964Y-139202395D01*
X136917588Y-139245480D01*
X136925848Y-139250249D01*
X136929136Y-139252147D01*
X137025249Y-139277900D01*
X137025251Y-139277900D01*
X137124749Y-139277900D01*
X137124751Y-139277900D01*
X137220864Y-139252147D01*
X137307036Y-139202395D01*
X137377395Y-139132036D01*
X137427147Y-139045864D01*
X137452900Y-138949751D01*
X137452900Y-138850249D01*
X137997100Y-138850249D01*
X137997100Y-138949750D01*
X138022853Y-139045865D01*
X138038292Y-139072605D01*
X138072605Y-139132036D01*
X138142964Y-139202395D01*
X138217588Y-139245480D01*
X138225848Y-139250249D01*
X138229136Y-139252147D01*
X138325249Y-139277900D01*
X138325251Y-139277900D01*
X138424749Y-139277900D01*
X138424751Y-139277900D01*
X138520864Y-139252147D01*
X138607036Y-139202395D01*
X138677395Y-139132036D01*
X138727147Y-139045864D01*
X138752900Y-138949751D01*
X138752900Y-138850249D01*
X140597100Y-138850249D01*
X140597100Y-138949750D01*
X140622853Y-139045865D01*
X140638292Y-139072605D01*
X140672605Y-139132036D01*
X140742964Y-139202395D01*
X140817588Y-139245480D01*
X140825848Y-139250249D01*
X140829136Y-139252147D01*
X140925249Y-139277900D01*
X140925251Y-139277900D01*
X141024749Y-139277900D01*
X141024751Y-139277900D01*
X141120864Y-139252147D01*
X141207036Y-139202395D01*
X141277395Y-139132036D01*
X141327147Y-139045864D01*
X141352900Y-138949751D01*
X141352900Y-138850249D01*
X142547100Y-138850249D01*
X142547100Y-138949750D01*
X142572853Y-139045865D01*
X142588292Y-139072605D01*
X142622605Y-139132036D01*
X142692964Y-139202395D01*
X142767588Y-139245480D01*
X142775848Y-139250249D01*
X142779136Y-139252147D01*
X142875249Y-139277900D01*
X142875251Y-139277900D01*
X142974749Y-139277900D01*
X142974751Y-139277900D01*
X143070864Y-139252147D01*
X143157036Y-139202395D01*
X143162319Y-139197112D01*
X143223642Y-139163627D01*
X143293334Y-139168611D01*
X143337681Y-139197112D01*
X143342964Y-139202395D01*
X143417588Y-139245480D01*
X143425848Y-139250249D01*
X143429136Y-139252147D01*
X143525249Y-139277900D01*
X143525251Y-139277900D01*
X143624749Y-139277900D01*
X143624751Y-139277900D01*
X143720864Y-139252147D01*
X143807036Y-139202395D01*
X143812319Y-139197112D01*
X143873642Y-139163627D01*
X143943334Y-139168611D01*
X143987681Y-139197112D01*
X143992964Y-139202395D01*
X144067588Y-139245480D01*
X144075848Y-139250249D01*
X144079136Y-139252147D01*
X144175249Y-139277900D01*
X144175251Y-139277900D01*
X144274749Y-139277900D01*
X144274751Y-139277900D01*
X144370864Y-139252147D01*
X144457036Y-139202395D01*
X144527395Y-139132036D01*
X144577147Y-139045864D01*
X144602900Y-138949751D01*
X144602900Y-138850249D01*
X144577147Y-138754136D01*
X144527395Y-138667964D01*
X144457036Y-138597605D01*
X144388266Y-138557900D01*
X144370865Y-138547853D01*
X144312244Y-138532146D01*
X144274751Y-138522100D01*
X144175249Y-138522100D01*
X144079134Y-138547853D01*
X143992964Y-138597605D01*
X143992958Y-138597609D01*
X143987677Y-138602891D01*
X143926353Y-138636373D01*
X143856661Y-138631386D01*
X143812323Y-138602891D01*
X143807041Y-138597609D01*
X143807038Y-138597607D01*
X143807036Y-138597605D01*
X143738266Y-138557900D01*
X143720865Y-138547853D01*
X143662244Y-138532146D01*
X143624751Y-138522100D01*
X143525249Y-138522100D01*
X143429134Y-138547853D01*
X143342964Y-138597605D01*
X143342958Y-138597609D01*
X143337677Y-138602891D01*
X143276353Y-138636373D01*
X143206661Y-138631386D01*
X143162323Y-138602891D01*
X143157041Y-138597609D01*
X143157038Y-138597607D01*
X143157036Y-138597605D01*
X143088266Y-138557900D01*
X143070865Y-138547853D01*
X143012244Y-138532146D01*
X142974751Y-138522100D01*
X142875249Y-138522100D01*
X142779134Y-138547853D01*
X142692964Y-138597605D01*
X142692961Y-138597607D01*
X142622607Y-138667961D01*
X142622605Y-138667964D01*
X142572853Y-138754134D01*
X142547100Y-138850249D01*
X141352900Y-138850249D01*
X141327147Y-138754136D01*
X141277395Y-138667964D01*
X141207036Y-138597605D01*
X141138266Y-138557900D01*
X141120865Y-138547853D01*
X141062244Y-138532146D01*
X141024751Y-138522100D01*
X140925249Y-138522100D01*
X140829134Y-138547853D01*
X140742964Y-138597605D01*
X140742961Y-138597607D01*
X140672607Y-138667961D01*
X140672605Y-138667964D01*
X140622853Y-138754134D01*
X140597100Y-138850249D01*
X138752900Y-138850249D01*
X138727147Y-138754136D01*
X138677395Y-138667964D01*
X138607036Y-138597605D01*
X138538266Y-138557900D01*
X138520865Y-138547853D01*
X138462244Y-138532146D01*
X138424751Y-138522100D01*
X138325249Y-138522100D01*
X138229134Y-138547853D01*
X138142964Y-138597605D01*
X138142961Y-138597607D01*
X138072607Y-138667961D01*
X138072605Y-138667964D01*
X138022853Y-138754134D01*
X137997100Y-138850249D01*
X137452900Y-138850249D01*
X137427147Y-138754136D01*
X137377395Y-138667964D01*
X137307036Y-138597605D01*
X137238266Y-138557900D01*
X137220865Y-138547853D01*
X137162244Y-138532146D01*
X137124751Y-138522100D01*
X137025249Y-138522100D01*
X136929134Y-138547853D01*
X136842964Y-138597605D01*
X136842958Y-138597609D01*
X136837677Y-138602891D01*
X136776353Y-138636373D01*
X136706661Y-138631386D01*
X136662323Y-138602891D01*
X136657041Y-138597609D01*
X136657038Y-138597607D01*
X136657036Y-138597605D01*
X136588266Y-138557900D01*
X136570865Y-138547853D01*
X136512244Y-138532146D01*
X136474751Y-138522100D01*
X136375249Y-138522100D01*
X136279134Y-138547853D01*
X136192964Y-138597605D01*
X136192958Y-138597609D01*
X136187677Y-138602891D01*
X136126353Y-138636373D01*
X136056661Y-138631386D01*
X136012323Y-138602891D01*
X136007041Y-138597609D01*
X136007038Y-138597607D01*
X136007036Y-138597605D01*
X135938266Y-138557900D01*
X135920865Y-138547853D01*
X135862244Y-138532146D01*
X135824751Y-138522100D01*
X135725249Y-138522100D01*
X135629134Y-138547853D01*
X135542964Y-138597605D01*
X135542961Y-138597607D01*
X135472607Y-138667961D01*
X135472605Y-138667964D01*
X135422853Y-138754134D01*
X135397100Y-138850249D01*
X131815182Y-138850249D01*
X131833395Y-138832036D01*
X131883147Y-138745864D01*
X131908900Y-138649751D01*
X131908900Y-138550249D01*
X131883147Y-138454136D01*
X131833395Y-138367964D01*
X131763036Y-138297605D01*
X131711692Y-138267961D01*
X131676865Y-138247853D01*
X131668179Y-138245525D01*
X131580751Y-138222100D01*
X131481249Y-138222100D01*
X131385134Y-138247853D01*
X131298964Y-138297605D01*
X131298961Y-138297607D01*
X131228607Y-138367961D01*
X131228605Y-138367964D01*
X131178853Y-138454134D01*
X131153100Y-138550249D01*
X130857900Y-138550249D01*
X130832147Y-138454136D01*
X130782395Y-138367964D01*
X130712036Y-138297605D01*
X130660692Y-138267961D01*
X130625865Y-138247853D01*
X130558305Y-138229751D01*
X130529751Y-138222100D01*
X130430249Y-138222100D01*
X130334134Y-138247853D01*
X130247964Y-138297605D01*
X130247961Y-138297607D01*
X130177607Y-138367961D01*
X130177605Y-138367964D01*
X130127853Y-138454134D01*
X130102100Y-138550249D01*
X128127767Y-138550249D01*
X128127900Y-138549751D01*
X128127900Y-138450249D01*
X128102147Y-138354136D01*
X128052395Y-138267964D01*
X127997112Y-138212681D01*
X127963627Y-138151358D01*
X127965137Y-138130249D01*
X145722100Y-138130249D01*
X145722100Y-138229751D01*
X145732338Y-138267961D01*
X145747853Y-138325865D01*
X145755952Y-138339892D01*
X145797605Y-138412036D01*
X145867964Y-138482395D01*
X145954136Y-138532147D01*
X146050249Y-138557900D01*
X146050251Y-138557900D01*
X146149749Y-138557900D01*
X146149751Y-138557900D01*
X146245864Y-138532147D01*
X146332036Y-138482395D01*
X146402395Y-138412036D01*
X146452147Y-138325864D01*
X146477900Y-138229751D01*
X146477900Y-138130249D01*
X146452147Y-138034136D01*
X146402395Y-137947964D01*
X146332036Y-137877605D01*
X146288366Y-137852392D01*
X146245865Y-137827853D01*
X146197807Y-137814976D01*
X146149751Y-137802100D01*
X146050249Y-137802100D01*
X145954134Y-137827853D01*
X145867964Y-137877605D01*
X145867961Y-137877607D01*
X145797607Y-137947961D01*
X145797605Y-137947964D01*
X145747853Y-138034134D01*
X145733621Y-138087250D01*
X145722100Y-138130249D01*
X127965137Y-138130249D01*
X127968611Y-138081666D01*
X127997112Y-138037319D01*
X128000297Y-138034134D01*
X128052395Y-137982036D01*
X128102147Y-137895864D01*
X128127900Y-137799751D01*
X128127900Y-137700249D01*
X128102147Y-137604136D01*
X128102144Y-137604130D01*
X128078315Y-137562857D01*
X128078312Y-137562854D01*
X128052395Y-137517964D01*
X128034680Y-137500249D01*
X131097100Y-137500249D01*
X131097100Y-137599751D01*
X131098275Y-137604136D01*
X131122853Y-137695865D01*
X131141349Y-137727900D01*
X131172605Y-137782036D01*
X131242964Y-137852395D01*
X131329136Y-137902147D01*
X131425249Y-137927900D01*
X131425251Y-137927900D01*
X131524749Y-137927900D01*
X131524751Y-137927900D01*
X131620864Y-137902147D01*
X131707036Y-137852395D01*
X131777395Y-137782036D01*
X131827147Y-137695864D01*
X131852900Y-137599751D01*
X131852900Y-137500249D01*
X131827147Y-137404136D01*
X131823519Y-137397853D01*
X131802014Y-137360605D01*
X131777395Y-137317964D01*
X131707036Y-137247605D01*
X131687693Y-137236437D01*
X131675694Y-137229509D01*
X131675693Y-137229509D01*
X131620865Y-137197853D01*
X131572807Y-137184976D01*
X131524751Y-137172100D01*
X131425249Y-137172100D01*
X131329134Y-137197853D01*
X131242964Y-137247605D01*
X131242961Y-137247607D01*
X131172607Y-137317961D01*
X131172605Y-137317964D01*
X131122853Y-137404134D01*
X131109615Y-137453540D01*
X131097100Y-137500249D01*
X128034680Y-137500249D01*
X127992748Y-137458317D01*
X127988838Y-137453540D01*
X127977530Y-137426820D01*
X127963627Y-137401358D01*
X127964079Y-137395034D01*
X127961608Y-137389195D01*
X127966541Y-137360605D01*
X127968611Y-137331666D01*
X127972608Y-137325446D01*
X127973489Y-137320343D01*
X127981510Y-137311593D01*
X127997112Y-137287319D01*
X128022022Y-137262409D01*
X128052395Y-137232036D01*
X128102147Y-137145864D01*
X128106331Y-137130249D01*
X132322100Y-137130249D01*
X132322100Y-137229751D01*
X132327308Y-137249188D01*
X132347853Y-137325865D01*
X132367911Y-137360605D01*
X132397605Y-137412036D01*
X132467964Y-137482395D01*
X132554136Y-137532147D01*
X132650249Y-137557900D01*
X132650251Y-137557900D01*
X132749749Y-137557900D01*
X132749751Y-137557900D01*
X132845864Y-137532147D01*
X132932036Y-137482395D01*
X133002395Y-137412036D01*
X133052147Y-137325864D01*
X133077900Y-137229751D01*
X133077900Y-137130249D01*
X133322100Y-137130249D01*
X133322100Y-137229751D01*
X133327308Y-137249188D01*
X133347853Y-137325865D01*
X133367911Y-137360605D01*
X133397605Y-137412036D01*
X133467964Y-137482395D01*
X133554136Y-137532147D01*
X133650249Y-137557900D01*
X133650251Y-137557900D01*
X133749749Y-137557900D01*
X133749751Y-137557900D01*
X133845864Y-137532147D01*
X133932036Y-137482395D01*
X134002395Y-137412036D01*
X134026521Y-137370249D01*
X136722100Y-137370249D01*
X136722100Y-137469750D01*
X136747853Y-137565865D01*
X136749680Y-137569029D01*
X136797605Y-137652036D01*
X136867964Y-137722395D01*
X136954136Y-137772147D01*
X137050249Y-137797900D01*
X137050251Y-137797900D01*
X137149749Y-137797900D01*
X137149751Y-137797900D01*
X137245864Y-137772147D01*
X137332036Y-137722395D01*
X137402395Y-137652036D01*
X137452147Y-137565864D01*
X137477900Y-137469751D01*
X137477900Y-137370249D01*
X137922100Y-137370249D01*
X137922100Y-137469750D01*
X137947853Y-137565865D01*
X137949680Y-137569029D01*
X137997605Y-137652036D01*
X138067964Y-137722395D01*
X138154136Y-137772147D01*
X138250249Y-137797900D01*
X138250251Y-137797900D01*
X138349749Y-137797900D01*
X138349751Y-137797900D01*
X138445864Y-137772147D01*
X138532036Y-137722395D01*
X138602395Y-137652036D01*
X138650320Y-137569027D01*
X138700887Y-137520812D01*
X138769494Y-137507590D01*
X138834359Y-137533558D01*
X138865092Y-137569025D01*
X138872600Y-137582029D01*
X138872603Y-137582033D01*
X138872605Y-137582036D01*
X138942964Y-137652395D01*
X139017588Y-137695480D01*
X139025848Y-137700249D01*
X139029136Y-137702147D01*
X139125249Y-137727900D01*
X139125251Y-137727900D01*
X139224749Y-137727900D01*
X139224751Y-137727900D01*
X139320864Y-137702147D01*
X139407036Y-137652395D01*
X139477395Y-137582036D01*
X139527147Y-137495864D01*
X139552900Y-137399751D01*
X139552900Y-137300249D01*
X139847100Y-137300249D01*
X139847100Y-137399751D01*
X139850392Y-137412036D01*
X139872853Y-137495865D01*
X139893801Y-137532146D01*
X139922605Y-137582036D01*
X139992964Y-137652395D01*
X140067588Y-137695480D01*
X140075848Y-137700249D01*
X140079136Y-137702147D01*
X140175249Y-137727900D01*
X140175251Y-137727900D01*
X140274749Y-137727900D01*
X140274751Y-137727900D01*
X140370864Y-137702147D01*
X140457036Y-137652395D01*
X140527395Y-137582036D01*
X140534905Y-137569029D01*
X140585471Y-137520813D01*
X140654078Y-137507589D01*
X140718943Y-137533557D01*
X140749678Y-137569027D01*
X140783841Y-137628197D01*
X140797605Y-137652036D01*
X140867964Y-137722395D01*
X140954136Y-137772147D01*
X141050249Y-137797900D01*
X141050251Y-137797900D01*
X141149749Y-137797900D01*
X141149751Y-137797900D01*
X141245864Y-137772147D01*
X141332036Y-137722395D01*
X141402395Y-137652036D01*
X141452147Y-137565864D01*
X141477900Y-137469751D01*
X141477900Y-137370249D01*
X141452147Y-137274136D01*
X141402395Y-137187964D01*
X141332036Y-137117605D01*
X141296273Y-137096957D01*
X147947100Y-137096957D01*
X147947100Y-137203043D01*
X147973722Y-137302395D01*
X147974557Y-137305513D01*
X147974557Y-137305514D01*
X148026240Y-137395034D01*
X148027599Y-137397387D01*
X148102613Y-137472401D01*
X148194486Y-137525443D01*
X148296957Y-137552900D01*
X148296959Y-137552900D01*
X148403041Y-137552900D01*
X148403043Y-137552900D01*
X148505514Y-137525443D01*
X148597387Y-137472401D01*
X148672401Y-137397387D01*
X148725443Y-137305514D01*
X148752900Y-137203043D01*
X148752900Y-137096957D01*
X149047100Y-137096957D01*
X149047100Y-137203043D01*
X149073722Y-137302395D01*
X149074557Y-137305513D01*
X149074557Y-137305514D01*
X149126240Y-137395034D01*
X149127599Y-137397387D01*
X149202613Y-137472401D01*
X149294486Y-137525443D01*
X149389205Y-137550822D01*
X149448863Y-137587185D01*
X149479393Y-137650032D01*
X149471099Y-137719408D01*
X149444792Y-137758276D01*
X149397608Y-137805460D01*
X149397605Y-137805464D01*
X149347853Y-137891634D01*
X149322100Y-137987749D01*
X149322100Y-138087250D01*
X149347853Y-138183365D01*
X149356075Y-138197605D01*
X149397605Y-138269536D01*
X149467964Y-138339895D01*
X149554136Y-138389647D01*
X149650249Y-138415400D01*
X149650251Y-138415400D01*
X149749749Y-138415400D01*
X149749751Y-138415400D01*
X149845864Y-138389647D01*
X149932036Y-138339895D01*
X150002395Y-138269536D01*
X150052147Y-138183364D01*
X150077900Y-138087251D01*
X150077900Y-137987749D01*
X150052147Y-137891636D01*
X150002395Y-137805464D01*
X149932036Y-137735105D01*
X149845864Y-137685353D01*
X149768268Y-137664561D01*
X149708608Y-137628197D01*
X149678079Y-137565350D01*
X149686374Y-137495975D01*
X149712676Y-137457111D01*
X149772401Y-137397387D01*
X149825443Y-137305514D01*
X149826854Y-137300249D01*
X150722100Y-137300249D01*
X150722100Y-137399751D01*
X150725392Y-137412036D01*
X150747853Y-137495865D01*
X150768801Y-137532146D01*
X150797605Y-137582036D01*
X150867964Y-137652395D01*
X150942588Y-137695480D01*
X150950848Y-137700249D01*
X150954136Y-137702147D01*
X151050249Y-137727900D01*
X151050251Y-137727900D01*
X151149749Y-137727900D01*
X151149751Y-137727900D01*
X151245864Y-137702147D01*
X151332036Y-137652395D01*
X151402395Y-137582036D01*
X151452147Y-137495864D01*
X151477900Y-137399751D01*
X151477900Y-137300249D01*
X151452147Y-137204136D01*
X151451515Y-137203042D01*
X151433651Y-137172100D01*
X151402395Y-137117964D01*
X151332036Y-137047605D01*
X151288950Y-137022729D01*
X151245865Y-136997853D01*
X151206727Y-136987366D01*
X151149751Y-136972100D01*
X151050249Y-136972100D01*
X151008506Y-136983284D01*
X150954134Y-136997853D01*
X150867964Y-137047605D01*
X150867961Y-137047607D01*
X150797607Y-137117961D01*
X150797605Y-137117964D01*
X150747853Y-137204134D01*
X150722100Y-137300249D01*
X149826854Y-137300249D01*
X149852900Y-137203043D01*
X149852900Y-137096957D01*
X149825443Y-136994486D01*
X149772401Y-136902613D01*
X149697387Y-136827599D01*
X149697386Y-136827598D01*
X149605514Y-136774557D01*
X149503043Y-136747100D01*
X149396957Y-136747100D01*
X149294486Y-136774557D01*
X149294485Y-136774557D01*
X149202613Y-136827598D01*
X149127598Y-136902613D01*
X149074557Y-136994485D01*
X149074557Y-136994486D01*
X149047100Y-137096957D01*
X148752900Y-137096957D01*
X148725443Y-136994486D01*
X148672401Y-136902613D01*
X148597387Y-136827599D01*
X148597386Y-136827598D01*
X148505514Y-136774557D01*
X148403043Y-136747100D01*
X148296957Y-136747100D01*
X148194486Y-136774557D01*
X148194485Y-136774557D01*
X148102613Y-136827598D01*
X148027598Y-136902613D01*
X147974557Y-136994485D01*
X147974557Y-136994486D01*
X147947100Y-137096957D01*
X141296273Y-137096957D01*
X141288950Y-137092729D01*
X141245865Y-137067853D01*
X141178305Y-137049751D01*
X141149751Y-137042100D01*
X141050249Y-137042100D01*
X140954134Y-137067853D01*
X140867964Y-137117605D01*
X140867961Y-137117607D01*
X140797607Y-137187961D01*
X140797602Y-137187967D01*
X140790091Y-137200977D01*
X140739521Y-137249190D01*
X140670913Y-137262409D01*
X140606050Y-137236437D01*
X140575320Y-137200972D01*
X140573519Y-137197853D01*
X140527395Y-137117964D01*
X140457036Y-137047605D01*
X140413950Y-137022729D01*
X140370865Y-136997853D01*
X140322807Y-136984976D01*
X140274751Y-136972100D01*
X140175249Y-136972100D01*
X140079134Y-136997853D01*
X139992964Y-137047605D01*
X139992961Y-137047607D01*
X139922607Y-137117961D01*
X139922605Y-137117964D01*
X139872853Y-137204134D01*
X139847100Y-137300249D01*
X139552900Y-137300249D01*
X139527147Y-137204136D01*
X139526515Y-137203042D01*
X139508651Y-137172100D01*
X139477395Y-137117964D01*
X139407036Y-137047605D01*
X139363950Y-137022729D01*
X139320865Y-136997853D01*
X139272807Y-136984976D01*
X139224751Y-136972100D01*
X139125249Y-136972100D01*
X139029134Y-136997853D01*
X138942964Y-137047605D01*
X138942961Y-137047607D01*
X138872607Y-137117961D01*
X138872603Y-137117967D01*
X138824678Y-137200973D01*
X138774110Y-137249188D01*
X138705503Y-137262409D01*
X138640639Y-137236440D01*
X138609906Y-137200973D01*
X138608104Y-137197853D01*
X138602395Y-137187964D01*
X138532036Y-137117605D01*
X138488950Y-137092729D01*
X138445865Y-137067853D01*
X138378305Y-137049751D01*
X138349751Y-137042100D01*
X138250249Y-137042100D01*
X138154134Y-137067853D01*
X138067964Y-137117605D01*
X138067961Y-137117607D01*
X137997607Y-137187961D01*
X137997605Y-137187964D01*
X137947853Y-137274134D01*
X137922100Y-137370249D01*
X137477900Y-137370249D01*
X137452147Y-137274136D01*
X137402395Y-137187964D01*
X137332036Y-137117605D01*
X137288950Y-137092729D01*
X137245865Y-137067853D01*
X137178305Y-137049751D01*
X137149751Y-137042100D01*
X137050249Y-137042100D01*
X136954134Y-137067853D01*
X136867964Y-137117605D01*
X136867961Y-137117607D01*
X136797607Y-137187961D01*
X136797605Y-137187964D01*
X136747853Y-137274134D01*
X136722100Y-137370249D01*
X134026521Y-137370249D01*
X134052147Y-137325864D01*
X134077900Y-137229751D01*
X134077900Y-137130249D01*
X134052147Y-137034136D01*
X134002395Y-136947964D01*
X133932036Y-136877605D01*
X133888950Y-136852729D01*
X133845865Y-136827853D01*
X133797807Y-136814976D01*
X133749751Y-136802100D01*
X133650249Y-136802100D01*
X133554134Y-136827853D01*
X133467964Y-136877605D01*
X133467961Y-136877607D01*
X133397607Y-136947961D01*
X133397605Y-136947964D01*
X133347853Y-137034134D01*
X133331987Y-137093348D01*
X133322100Y-137130249D01*
X133077900Y-137130249D01*
X133052147Y-137034136D01*
X133002395Y-136947964D01*
X132932036Y-136877605D01*
X132888950Y-136852729D01*
X132845865Y-136827853D01*
X132797807Y-136814976D01*
X132749751Y-136802100D01*
X132650249Y-136802100D01*
X132554134Y-136827853D01*
X132467964Y-136877605D01*
X132467961Y-136877607D01*
X132397607Y-136947961D01*
X132397605Y-136947964D01*
X132347853Y-137034134D01*
X132325392Y-137117964D01*
X132322100Y-137130249D01*
X128106331Y-137130249D01*
X128127900Y-137049751D01*
X128127900Y-136950249D01*
X128102147Y-136854136D01*
X128052395Y-136767964D01*
X127997112Y-136712681D01*
X127963627Y-136651358D01*
X127968611Y-136581666D01*
X127997112Y-136537319D01*
X128052395Y-136482036D01*
X128102147Y-136395864D01*
X128127900Y-136299751D01*
X128127900Y-136200249D01*
X128102147Y-136104136D01*
X128101515Y-136103042D01*
X128071036Y-136050251D01*
X128052395Y-136017964D01*
X127997112Y-135962681D01*
X127993699Y-135956430D01*
X127987870Y-135952342D01*
X127977175Y-135926170D01*
X127963627Y-135901358D01*
X127964134Y-135894256D01*
X127961441Y-135887664D01*
X127966594Y-135859863D01*
X127968611Y-135831666D01*
X127973187Y-135824296D01*
X127974176Y-135818965D01*
X127984116Y-135805249D01*
X130103100Y-135805249D01*
X130103100Y-135904751D01*
X130108839Y-135926170D01*
X130128853Y-136000865D01*
X130153729Y-136043950D01*
X130178605Y-136087036D01*
X130248964Y-136157395D01*
X130292265Y-136182395D01*
X130332314Y-136205518D01*
X130335136Y-136207147D01*
X130431249Y-136232900D01*
X130431251Y-136232900D01*
X130530749Y-136232900D01*
X130530751Y-136232900D01*
X130626864Y-136207147D01*
X130713036Y-136157395D01*
X130783395Y-136087036D01*
X130833147Y-136000864D01*
X130858900Y-135904751D01*
X130858900Y-135830249D01*
X137022100Y-135830249D01*
X137022100Y-135929751D01*
X137033447Y-135972099D01*
X137047853Y-136025865D01*
X137060406Y-136047606D01*
X137097605Y-136112036D01*
X137167964Y-136182395D01*
X137254136Y-136232147D01*
X137350249Y-136257900D01*
X137350251Y-136257900D01*
X137449749Y-136257900D01*
X137449751Y-136257900D01*
X137545864Y-136232147D01*
X137632036Y-136182395D01*
X137702395Y-136112036D01*
X137738068Y-136050249D01*
X138447100Y-136050249D01*
X138447100Y-136149751D01*
X138449148Y-136157394D01*
X138472853Y-136245865D01*
X138479801Y-136257899D01*
X138522605Y-136332036D01*
X138592964Y-136402395D01*
X138679136Y-136452147D01*
X138775249Y-136477900D01*
X138775251Y-136477900D01*
X138874749Y-136477900D01*
X138874751Y-136477900D01*
X138970864Y-136452147D01*
X139057036Y-136402395D01*
X139127395Y-136332036D01*
X139177147Y-136245864D01*
X139202900Y-136149751D01*
X139202900Y-136050249D01*
X139188621Y-135996957D01*
X147947100Y-135996957D01*
X147947100Y-136103043D01*
X147974188Y-136204135D01*
X147974557Y-136205513D01*
X147974557Y-136205514D01*
X148027596Y-136297383D01*
X148027599Y-136297387D01*
X148102613Y-136372401D01*
X148194486Y-136425443D01*
X148296957Y-136452900D01*
X148296959Y-136452900D01*
X148403041Y-136452900D01*
X148403043Y-136452900D01*
X148505514Y-136425443D01*
X148597387Y-136372401D01*
X148672401Y-136297387D01*
X148725443Y-136205514D01*
X148752900Y-136103043D01*
X148752900Y-135996957D01*
X149047100Y-135996957D01*
X149047100Y-136103043D01*
X149074188Y-136204135D01*
X149074557Y-136205513D01*
X149074557Y-136205514D01*
X149127596Y-136297383D01*
X149127599Y-136297387D01*
X149202613Y-136372401D01*
X149294486Y-136425443D01*
X149396957Y-136452900D01*
X149396959Y-136452900D01*
X149503041Y-136452900D01*
X149503043Y-136452900D01*
X149605514Y-136425443D01*
X149697387Y-136372401D01*
X149769540Y-136300248D01*
X150722100Y-136300248D01*
X150722100Y-136399750D01*
X150722809Y-136402395D01*
X150747853Y-136495864D01*
X150771788Y-136537319D01*
X150797605Y-136582035D01*
X150867964Y-136652394D01*
X150954136Y-136702146D01*
X151050249Y-136727899D01*
X151149751Y-136727899D01*
X151245864Y-136702146D01*
X151332036Y-136652394D01*
X151402395Y-136582035D01*
X151452147Y-136495863D01*
X151477900Y-136399750D01*
X151477900Y-136300248D01*
X151452147Y-136204135D01*
X151402395Y-136117963D01*
X151332036Y-136047604D01*
X151280699Y-136017964D01*
X151245865Y-135997852D01*
X151197807Y-135984975D01*
X151149751Y-135972099D01*
X151050249Y-135972099D01*
X150954134Y-135997852D01*
X150867964Y-136047604D01*
X150867961Y-136047606D01*
X150797607Y-136117960D01*
X150797605Y-136117963D01*
X150747853Y-136204133D01*
X150733447Y-136257899D01*
X150722100Y-136300248D01*
X149769540Y-136300248D01*
X149772401Y-136297387D01*
X149785376Y-136274912D01*
X149811237Y-136230121D01*
X149811237Y-136230120D01*
X149824500Y-136207147D01*
X149825443Y-136205514D01*
X149852900Y-136103043D01*
X149852900Y-135996957D01*
X149825443Y-135894486D01*
X149772401Y-135802613D01*
X149697387Y-135727599D01*
X149697386Y-135727598D01*
X149605514Y-135674557D01*
X149506267Y-135647964D01*
X149503043Y-135647100D01*
X149396957Y-135647100D01*
X149294486Y-135674557D01*
X149294485Y-135674557D01*
X149202613Y-135727598D01*
X149127598Y-135802613D01*
X149074557Y-135894485D01*
X149074557Y-135894486D01*
X149047100Y-135996957D01*
X148752900Y-135996957D01*
X148725443Y-135894486D01*
X148672401Y-135802613D01*
X148597387Y-135727599D01*
X148597386Y-135727598D01*
X148505514Y-135674557D01*
X148406267Y-135647964D01*
X148403043Y-135647100D01*
X148296957Y-135647100D01*
X148194486Y-135674557D01*
X148194485Y-135674557D01*
X148102613Y-135727598D01*
X148027598Y-135802613D01*
X147974557Y-135894485D01*
X147974557Y-135894486D01*
X147947100Y-135996957D01*
X139188621Y-135996957D01*
X139177147Y-135954136D01*
X139127395Y-135867964D01*
X139057036Y-135797605D01*
X139013950Y-135772729D01*
X138970865Y-135747853D01*
X138919663Y-135734134D01*
X138874751Y-135722100D01*
X138775249Y-135722100D01*
X138679134Y-135747853D01*
X138592964Y-135797605D01*
X138592961Y-135797607D01*
X138522607Y-135867961D01*
X138522605Y-135867964D01*
X138472853Y-135954134D01*
X138447809Y-136047604D01*
X138447100Y-136050249D01*
X137738068Y-136050249D01*
X137752147Y-136025864D01*
X137754265Y-136017961D01*
X137756391Y-136010027D01*
X137766553Y-135972099D01*
X137777900Y-135929751D01*
X137777900Y-135830249D01*
X137752147Y-135734136D01*
X137702395Y-135647964D01*
X137632036Y-135577605D01*
X137583789Y-135549749D01*
X137545865Y-135527853D01*
X137497807Y-135514976D01*
X137449751Y-135502100D01*
X137350249Y-135502100D01*
X137254134Y-135527853D01*
X137167964Y-135577605D01*
X137167961Y-135577607D01*
X137097607Y-135647961D01*
X137097605Y-135647964D01*
X137047853Y-135734134D01*
X137028798Y-135805251D01*
X137022100Y-135830249D01*
X130858900Y-135830249D01*
X130858900Y-135805249D01*
X130833147Y-135709136D01*
X130783395Y-135622964D01*
X130713036Y-135552605D01*
X130642773Y-135512038D01*
X130626865Y-135502853D01*
X130578807Y-135489976D01*
X130530751Y-135477100D01*
X130431249Y-135477100D01*
X130335134Y-135502853D01*
X130248964Y-135552605D01*
X130248961Y-135552607D01*
X130178607Y-135622961D01*
X130178605Y-135622964D01*
X130128853Y-135709134D01*
X130122155Y-135734134D01*
X130103100Y-135805249D01*
X127984116Y-135805249D01*
X127990407Y-135796569D01*
X127994444Y-135790070D01*
X127995744Y-135788686D01*
X128052395Y-135732036D01*
X128102147Y-135645864D01*
X128127900Y-135549751D01*
X128127900Y-135450249D01*
X128102147Y-135354136D01*
X128052395Y-135267964D01*
X127997112Y-135212681D01*
X127992773Y-135204735D01*
X127985526Y-135199310D01*
X127976291Y-135174550D01*
X127963627Y-135151358D01*
X127964272Y-135142328D01*
X127961109Y-135133846D01*
X127966725Y-135108025D01*
X127968611Y-135081666D01*
X127974429Y-135072612D01*
X127975961Y-135065573D01*
X127997112Y-135037319D01*
X127998112Y-135036319D01*
X128059435Y-135002834D01*
X128085793Y-135000000D01*
X131222195Y-135000000D01*
X131289234Y-135019685D01*
X131334989Y-135072489D01*
X131344933Y-135141647D01*
X131341970Y-135156093D01*
X131322100Y-135230249D01*
X131322100Y-135329750D01*
X131347853Y-135425865D01*
X131349028Y-135427900D01*
X131397605Y-135512036D01*
X131467964Y-135582395D01*
X131554136Y-135632147D01*
X131650249Y-135657900D01*
X131650251Y-135657900D01*
X131749749Y-135657900D01*
X131749751Y-135657900D01*
X131845864Y-135632147D01*
X131932036Y-135582395D01*
X132002395Y-135512036D01*
X132052147Y-135425864D01*
X132077900Y-135329751D01*
X132077900Y-135230249D01*
X132058030Y-135156092D01*
X132059693Y-135086243D01*
X132098856Y-135028381D01*
X132163084Y-135000877D01*
X132177805Y-135000000D01*
X134222195Y-135000000D01*
X134289234Y-135019685D01*
X134334989Y-135072489D01*
X134344933Y-135141647D01*
X134341970Y-135156093D01*
X134322100Y-135230249D01*
X134322100Y-135329750D01*
X134347853Y-135425865D01*
X134349028Y-135427900D01*
X134397605Y-135512036D01*
X134467964Y-135582395D01*
X134554136Y-135632147D01*
X134650249Y-135657900D01*
X134650251Y-135657900D01*
X134749749Y-135657900D01*
X134749751Y-135657900D01*
X134845864Y-135632147D01*
X134932036Y-135582395D01*
X135002395Y-135512036D01*
X135052147Y-135425864D01*
X135077900Y-135329751D01*
X135077900Y-135230249D01*
X135058030Y-135156092D01*
X135059693Y-135086243D01*
X135098856Y-135028381D01*
X135163084Y-135000877D01*
X135177805Y-135000000D01*
X140305590Y-135000000D01*
X140367591Y-135016614D01*
X140429130Y-135052144D01*
X140429131Y-135052144D01*
X140429136Y-135052147D01*
X140525249Y-135077900D01*
X140525251Y-135077900D01*
X140624749Y-135077900D01*
X140624751Y-135077900D01*
X140720864Y-135052147D01*
X140748279Y-135036319D01*
X140782409Y-135016614D01*
X140844410Y-135000000D01*
X141538235Y-135000000D01*
X141605274Y-135019685D01*
X141645622Y-135061999D01*
X141647852Y-135065862D01*
X141647853Y-135065864D01*
X141697605Y-135152036D01*
X141767964Y-135222395D01*
X141854136Y-135272147D01*
X141950249Y-135297900D01*
X141950251Y-135297900D01*
X142049749Y-135297900D01*
X142049751Y-135297900D01*
X142145864Y-135272147D01*
X142232036Y-135222395D01*
X142302395Y-135152036D01*
X142352147Y-135065864D01*
X142352147Y-135065862D01*
X142354378Y-135061999D01*
X142404946Y-135013784D01*
X142461765Y-135000000D01*
X145613621Y-135000000D01*
X145680660Y-135019685D01*
X145726415Y-135072489D01*
X145733393Y-135091901D01*
X145741995Y-135124000D01*
X145747853Y-135145865D01*
X145760826Y-135168334D01*
X145797605Y-135232036D01*
X145867964Y-135302395D01*
X145954136Y-135352147D01*
X146050249Y-135377900D01*
X146050251Y-135377900D01*
X146149749Y-135377900D01*
X146149751Y-135377900D01*
X146245864Y-135352147D01*
X146332036Y-135302395D01*
X146402395Y-135232036D01*
X146452147Y-135145864D01*
X146477900Y-135049751D01*
X146477900Y-135000249D01*
X147122100Y-135000249D01*
X147122100Y-135099751D01*
X147128865Y-135125000D01*
X147147853Y-135195865D01*
X147168737Y-135232036D01*
X147197605Y-135282036D01*
X147267964Y-135352395D01*
X147354136Y-135402147D01*
X147450249Y-135427900D01*
X147450251Y-135427900D01*
X147549749Y-135427900D01*
X147549751Y-135427900D01*
X147645864Y-135402147D01*
X147732036Y-135352395D01*
X147802395Y-135282036D01*
X147852147Y-135195864D01*
X147877900Y-135099751D01*
X147877900Y-135000249D01*
X147852147Y-134904136D01*
X147802395Y-134817964D01*
X147732036Y-134747605D01*
X147688950Y-134722729D01*
X147645865Y-134697853D01*
X147570296Y-134677605D01*
X147549751Y-134672100D01*
X147450249Y-134672100D01*
X147354134Y-134697853D01*
X147267964Y-134747605D01*
X147267961Y-134747607D01*
X147197607Y-134817961D01*
X147197605Y-134817964D01*
X147147853Y-134904134D01*
X147131346Y-134965743D01*
X147122100Y-135000249D01*
X146477900Y-135000249D01*
X146477900Y-134950249D01*
X146452147Y-134854136D01*
X146402395Y-134767964D01*
X146332036Y-134697605D01*
X146280586Y-134667900D01*
X146245865Y-134647853D01*
X146197807Y-134634976D01*
X146149751Y-134622100D01*
X146124000Y-134622100D01*
X146056961Y-134602415D01*
X146011206Y-134549611D01*
X146000000Y-134498100D01*
X146000000Y-132124000D01*
X146019685Y-132056961D01*
X146072489Y-132011206D01*
X146124000Y-132000000D01*
X146205590Y-132000000D01*
X146221079Y-132004150D01*
G37*
%TD.AperFunction*%
%TD*%
M02*
