%TF.GenerationSoftware,KiCad,Pcbnew,9.0.7*%
%TF.CreationDate,2026-02-26T21:49:05+01:00*%
%TF.ProjectId,Expansion_Card,45787061-6e73-4696-9f6e-5f436172642e,X1*%
%TF.SameCoordinates,Original*%
%TF.FileFunction,Copper,L6,Bot*%
%TF.FilePolarity,Positive*%
%FSLAX46Y46*%
G04 Gerber Fmt 4.6, Leading zero omitted, Abs format (unit mm)*
G04 Created by KiCad (PCBNEW 9.0.7) date 2026-02-26 21:49:05*
%MOMM*%
%LPD*%
G01*
G04 APERTURE LIST*
G04 Aperture macros list*
%AMRoundRect*
0 Rectangle with rounded corners*
0 $1 Rounding radius*
0 $2 $3 $4 $5 $6 $7 $8 $9 X,Y pos of 4 corners*
0 Add a 4 corners polygon primitive as box body*
4,1,4,$2,$3,$4,$5,$6,$7,$8,$9,$2,$3,0*
0 Add four circle primitives for the rounded corners*
1,1,$1+$1,$2,$3*
1,1,$1+$1,$4,$5*
1,1,$1+$1,$6,$7*
1,1,$1+$1,$8,$9*
0 Add four rect primitives between the rounded corners*
20,1,$1+$1,$2,$3,$4,$5,0*
20,1,$1+$1,$4,$5,$6,$7,0*
20,1,$1+$1,$6,$7,$8,$9,0*
20,1,$1+$1,$8,$9,$2,$3,0*%
G04 Aperture macros list end*
%ADD10C,0.150000*%
%TA.AperFunction,NonConductor*%
%ADD11C,0.150000*%
%TD*%
%TA.AperFunction,ComponentPad*%
%ADD12O,1.150000X2.300000*%
%TD*%
%TA.AperFunction,SMDPad,CuDef*%
%ADD13RoundRect,0.096750X0.665250X0.225750X-0.665250X0.225750X-0.665250X-0.225750X0.665250X-0.225750X0*%
%TD*%
%TA.AperFunction,SMDPad,CuDef*%
%ADD14RoundRect,0.135000X0.135000X0.185000X-0.135000X0.185000X-0.135000X-0.185000X0.135000X-0.185000X0*%
%TD*%
%TA.AperFunction,SMDPad,CuDef*%
%ADD15RoundRect,0.135000X-0.135000X-0.185000X0.135000X-0.185000X0.135000X0.185000X-0.135000X0.185000X0*%
%TD*%
%TA.AperFunction,SMDPad,CuDef*%
%ADD16R,0.380000X1.000000*%
%TD*%
%TA.AperFunction,SMDPad,CuDef*%
%ADD17R,0.700000X1.150000*%
%TD*%
%TA.AperFunction,SMDPad,CuDef*%
%ADD18RoundRect,0.140000X0.140000X0.170000X-0.140000X0.170000X-0.140000X-0.170000X0.140000X-0.170000X0*%
%TD*%
%TA.AperFunction,SMDPad,CuDef*%
%ADD19RoundRect,0.135000X0.185000X-0.135000X0.185000X0.135000X-0.185000X0.135000X-0.185000X-0.135000X0*%
%TD*%
%TA.AperFunction,SMDPad,CuDef*%
%ADD20RoundRect,0.140000X0.170000X-0.140000X0.170000X0.140000X-0.170000X0.140000X-0.170000X-0.140000X0*%
%TD*%
%TA.AperFunction,SMDPad,CuDef*%
%ADD21RoundRect,0.140000X-0.170000X0.140000X-0.170000X-0.140000X0.170000X-0.140000X0.170000X0.140000X0*%
%TD*%
%TA.AperFunction,SMDPad,CuDef*%
%ADD22RoundRect,0.075000X0.175000X0.175000X-0.175000X0.175000X-0.175000X-0.175000X0.175000X-0.175000X0*%
%TD*%
%TA.AperFunction,HeatsinkPad*%
%ADD23C,0.500000*%
%TD*%
%TA.AperFunction,HeatsinkPad*%
%ADD24R,1.600000X1.600000*%
%TD*%
%TA.AperFunction,SMDPad,CuDef*%
%ADD25RoundRect,0.250000X-0.325000X-0.250000X0.325000X-0.250000X0.325000X0.250000X-0.325000X0.250000X0*%
%TD*%
%TA.AperFunction,ViaPad*%
%ADD26C,0.450000*%
%TD*%
%TA.AperFunction,Conductor*%
%ADD27C,0.150000*%
%TD*%
%TA.AperFunction,Conductor*%
%ADD28C,0.200000*%
%TD*%
%TA.AperFunction,Conductor*%
%ADD29C,0.100000*%
%TD*%
G04 APERTURE END LIST*
D10*
D11*
X150314285Y-143802438D02*
X150409523Y-143754819D01*
X150409523Y-143754819D02*
X150552380Y-143754819D01*
X150552380Y-143754819D02*
X150695237Y-143802438D01*
X150695237Y-143802438D02*
X150790475Y-143897676D01*
X150790475Y-143897676D02*
X150838094Y-143992914D01*
X150838094Y-143992914D02*
X150885713Y-144183390D01*
X150885713Y-144183390D02*
X150885713Y-144326247D01*
X150885713Y-144326247D02*
X150838094Y-144516723D01*
X150838094Y-144516723D02*
X150790475Y-144611961D01*
X150790475Y-144611961D02*
X150695237Y-144707200D01*
X150695237Y-144707200D02*
X150552380Y-144754819D01*
X150552380Y-144754819D02*
X150457142Y-144754819D01*
X150457142Y-144754819D02*
X150314285Y-144707200D01*
X150314285Y-144707200D02*
X150266666Y-144659580D01*
X150266666Y-144659580D02*
X150266666Y-144326247D01*
X150266666Y-144326247D02*
X150457142Y-144326247D01*
X149314285Y-144754819D02*
X149885713Y-144754819D01*
X149599999Y-144754819D02*
X149599999Y-143754819D01*
X149599999Y-143754819D02*
X149695237Y-143897676D01*
X149695237Y-143897676D02*
X149790475Y-143992914D01*
X149790475Y-143992914D02*
X149885713Y-144040533D01*
D10*
D11*
X150314285Y-142502438D02*
X150409523Y-142454819D01*
X150409523Y-142454819D02*
X150552380Y-142454819D01*
X150552380Y-142454819D02*
X150695237Y-142502438D01*
X150695237Y-142502438D02*
X150790475Y-142597676D01*
X150790475Y-142597676D02*
X150838094Y-142692914D01*
X150838094Y-142692914D02*
X150885713Y-142883390D01*
X150885713Y-142883390D02*
X150885713Y-143026247D01*
X150885713Y-143026247D02*
X150838094Y-143216723D01*
X150838094Y-143216723D02*
X150790475Y-143311961D01*
X150790475Y-143311961D02*
X150695237Y-143407200D01*
X150695237Y-143407200D02*
X150552380Y-143454819D01*
X150552380Y-143454819D02*
X150457142Y-143454819D01*
X150457142Y-143454819D02*
X150314285Y-143407200D01*
X150314285Y-143407200D02*
X150266666Y-143359580D01*
X150266666Y-143359580D02*
X150266666Y-143026247D01*
X150266666Y-143026247D02*
X150457142Y-143026247D01*
X149647618Y-142454819D02*
X149552380Y-142454819D01*
X149552380Y-142454819D02*
X149457142Y-142502438D01*
X149457142Y-142502438D02*
X149409523Y-142550057D01*
X149409523Y-142550057D02*
X149361904Y-142645295D01*
X149361904Y-142645295D02*
X149314285Y-142835771D01*
X149314285Y-142835771D02*
X149314285Y-143073866D01*
X149314285Y-143073866D02*
X149361904Y-143264342D01*
X149361904Y-143264342D02*
X149409523Y-143359580D01*
X149409523Y-143359580D02*
X149457142Y-143407200D01*
X149457142Y-143407200D02*
X149552380Y-143454819D01*
X149552380Y-143454819D02*
X149647618Y-143454819D01*
X149647618Y-143454819D02*
X149742856Y-143407200D01*
X149742856Y-143407200D02*
X149790475Y-143359580D01*
X149790475Y-143359580D02*
X149838094Y-143264342D01*
X149838094Y-143264342D02*
X149885713Y-143073866D01*
X149885713Y-143073866D02*
X149885713Y-142835771D01*
X149885713Y-142835771D02*
X149838094Y-142645295D01*
X149838094Y-142645295D02*
X149790475Y-142550057D01*
X149790475Y-142550057D02*
X149742856Y-142502438D01*
X149742856Y-142502438D02*
X149647618Y-142454819D01*
D12*
%TO.P,J1,5*%
%TO.N,GND*%
X140725000Y-154550000D03*
%TO.P,J1,3*%
%TO.N,Net-(U3-OUTR)*%
X140725000Y-151300000D03*
%TO.P,J1,1*%
%TO.N,GND*%
X148325000Y-154550000D03*
%TD*%
%TO.P,J2,5*%
%TO.N,GND*%
X131425000Y-154550000D03*
%TO.P,J2,3*%
%TO.N,Net-(C19-Pad1)*%
X131425000Y-151300000D03*
%TO.P,J2,1*%
%TO.N,GND*%
X139025000Y-154550000D03*
%TD*%
D13*
%TO.P,P4,1,GND*%
%TO.N,GND*%
X146811000Y-140796500D03*
%TO.P,P4,2,VCC*%
%TO.N,VCC*%
X144525000Y-140796500D03*
%TO.P,P4,3,IN*%
%TO.N,Net-(P3-IN)*%
X142239000Y-140796500D03*
%TD*%
D14*
%TO.P,R9,1*%
%TO.N,Net-(U4-FB)*%
X130510000Y-137600000D03*
%TO.P,R9,2*%
%TO.N,VCC*%
X129490000Y-137600000D03*
%TD*%
D15*
%TO.P,R6,1*%
%TO.N,GND*%
X129490000Y-136600000D03*
%TO.P,R6,2*%
%TO.N,Net-(U4-FB)*%
X130510000Y-136600000D03*
%TD*%
D13*
%TO.P,P5,1,OUT*%
%TO.N,Net-(P2-OUT)*%
X137511000Y-140796500D03*
%TO.P,P5,2,GND*%
%TO.N,GND*%
X135225000Y-140796500D03*
%TO.P,P5,3,VCC*%
%TO.N,VCC*%
X132939000Y-140796500D03*
%TD*%
D16*
%TO.P,P1,B1,GND*%
%TO.N,GND*%
X142750000Y-129040000D03*
%TO.P,P1,B2,TX2+*%
%TO.N,unconnected-(P1-TX2+-PadB2)*%
X142250000Y-129040000D03*
%TO.P,P1,B3,TX2-*%
%TO.N,unconnected-(P1-TX2--PadB3)*%
X141750000Y-129040000D03*
%TO.P,P1,B4,VBUS*%
%TO.N,VBUS*%
X141250000Y-129040000D03*
%TO.P,P1,B5,VCONN*%
%TO.N,unconnected-(P1-VCONN-PadB5)*%
X140750000Y-129040000D03*
%TO.P,P1,B8,SBU2*%
%TO.N,unconnected-(P1-SBU2-PadB8)*%
X139250000Y-129040000D03*
%TO.P,P1,B9,VBUS*%
%TO.N,VBUS*%
X138750000Y-129040000D03*
%TO.P,P1,B10,RX1-*%
%TO.N,unconnected-(P1-RX1--PadB10)*%
X138250000Y-129040000D03*
%TO.P,P1,B11,RX1+*%
%TO.N,unconnected-(P1-RX1+-PadB11)*%
X137750000Y-129040000D03*
%TO.P,P1,B12,GND*%
%TO.N,GND*%
X137250000Y-129040000D03*
D17*
%TO.P,P1,S1,SHIELD*%
X143420000Y-129880000D03*
%TD*%
D18*
%TO.P,C17,1*%
%TO.N,Net-(JP3-C)*%
X149080000Y-133950000D03*
%TO.P,C17,2*%
%TO.N,GND*%
X148120000Y-133950000D03*
%TD*%
D19*
%TO.P,R8,1*%
%TO.N,Net-(C18-Pad2)*%
X133700000Y-135310000D03*
%TO.P,R8,2*%
%TO.N,Net-(U2-VINL)*%
X133700000Y-134290000D03*
%TD*%
%TO.P,R7,1*%
%TO.N,Net-(C19-Pad2)*%
X132700000Y-135310000D03*
%TO.P,R7,2*%
%TO.N,Net-(U2-VINR)*%
X132700000Y-134290000D03*
%TD*%
D20*
%TO.P,C21,1*%
%TO.N,GND*%
X134700000Y-135280000D03*
%TO.P,C21,2*%
%TO.N,Net-(U2-VINL)*%
X134700000Y-134320000D03*
%TD*%
D21*
%TO.P,C20,1*%
%TO.N,Net-(U2-VINR)*%
X131700000Y-134320000D03*
%TO.P,C20,2*%
%TO.N,GND*%
X131700000Y-135280000D03*
%TD*%
D20*
%TO.P,C19,1*%
%TO.N,Net-(C19-Pad1)*%
X132700000Y-137180000D03*
%TO.P,C19,2*%
%TO.N,Net-(C19-Pad2)*%
X132700000Y-136220000D03*
%TD*%
%TO.P,C18,1*%
%TO.N,Net-(C18-Pad1)*%
X133700000Y-137180000D03*
%TO.P,C18,2*%
%TO.N,Net-(C18-Pad2)*%
X133700000Y-136220000D03*
%TD*%
%TO.P,C8,1*%
%TO.N,Net-(U2-VCCP2I)*%
X138300000Y-138380000D03*
%TO.P,C8,2*%
%TO.N,GND*%
X138300000Y-137420000D03*
%TD*%
D14*
%TO.P,R5,1*%
%TO.N,Net-(U2-XTI)*%
X140210000Y-138400000D03*
%TO.P,R5,2*%
%TO.N,Net-(U2-XTO)*%
X139190000Y-138400000D03*
%TD*%
D22*
%TO.P,JP1,3,B*%
%TO.N,VCC*%
X148700000Y-140875000D03*
%TO.P,JP1,2,C*%
%TO.N,/G0*%
X149400000Y-140875000D03*
%TO.P,JP1,1,A*%
%TO.N,GND*%
X150100000Y-140875000D03*
%TD*%
%TO.P,JP2,1,A*%
%TO.N,GND*%
X150100000Y-141775000D03*
%TO.P,JP2,2,C*%
%TO.N,/G1*%
X149400000Y-141775000D03*
%TO.P,JP2,3,B*%
%TO.N,VCC*%
X148700000Y-141775000D03*
%TD*%
D23*
%TO.P,U3,17,EP*%
%TO.N,GND*%
X149450000Y-137150000D03*
X149450000Y-136050000D03*
D24*
X148900000Y-136600000D03*
D23*
X148350000Y-137150000D03*
X148350000Y-136050000D03*
%TD*%
D20*
%TO.P,C14,1*%
%TO.N,GND*%
X149700000Y-139280000D03*
%TO.P,C14,2*%
%TO.N,Net-(U3-HPVSS)*%
X149700000Y-138320000D03*
%TD*%
%TO.P,C7,2*%
%TO.N,GND*%
X137100000Y-137420000D03*
%TO.P,C7,1*%
%TO.N,Net-(U2-VCCP1I)*%
X137100000Y-138380000D03*
%TD*%
D21*
%TO.P,C3,2*%
%TO.N,GND*%
X137400000Y-135880000D03*
%TO.P,C3,1*%
%TO.N,Net-(U2-XTO)*%
X137400000Y-134920000D03*
%TD*%
%TO.P,C6,2*%
%TO.N,GND*%
X135800000Y-133380000D03*
%TO.P,C6,1*%
%TO.N,Net-(U2-VCOM)*%
X135800000Y-132420000D03*
%TD*%
D15*
%TO.P,R2,2*%
%TO.N,Net-(U2-D+)*%
X141710000Y-132500000D03*
%TO.P,R2,1*%
%TO.N,VDDI*%
X140690000Y-132500000D03*
%TD*%
D20*
%TO.P,C4,2*%
%TO.N,GND*%
X142000000Y-134920000D03*
%TO.P,C4,1*%
%TO.N,Net-(U2-XTI)*%
X142000000Y-135880000D03*
%TD*%
D21*
%TO.P,C5,2*%
%TO.N,GND*%
X138400000Y-133380000D03*
%TO.P,C5,1*%
%TO.N,VCCI*%
X138400000Y-132420000D03*
%TD*%
D20*
%TO.P,C10,2*%
%TO.N,VDDI*%
X139700000Y-132420000D03*
%TO.P,C10,1*%
%TO.N,GND*%
X139700000Y-133380000D03*
%TD*%
%TO.P,C9,2*%
%TO.N,GND*%
X141100000Y-137420000D03*
%TO.P,C9,1*%
%TO.N,Net-(U2-VCCXI)*%
X141100000Y-138380000D03*
%TD*%
%TO.P,C15,2*%
%TO.N,Net-(U3-CPP)*%
X150400000Y-136420000D03*
%TO.P,C15,1*%
%TO.N,Net-(U3-CPN)*%
X150400000Y-137380000D03*
%TD*%
%TO.P,C11,2*%
%TO.N,VBUS*%
X142700000Y-132420000D03*
%TO.P,C11,1*%
%TO.N,GND*%
X142700000Y-133380000D03*
%TD*%
D21*
%TO.P,C16,2*%
%TO.N,Net-(U3-HPVDD)*%
X150400000Y-134980000D03*
%TO.P,C16,1*%
%TO.N,GND*%
X150400000Y-134020000D03*
%TD*%
D25*
%TO.P,Y1,4,G*%
%TO.N,GND*%
X138825000Y-136100000D03*
%TO.P,Y1,3,3*%
%TO.N,Net-(U2-XTI)*%
X140575000Y-136100000D03*
%TO.P,Y1,2,G*%
%TO.N,GND*%
X140575000Y-134700000D03*
%TO.P,Y1,1,1*%
%TO.N,Net-(U2-XTO)*%
X138825000Y-134700000D03*
%TD*%
D19*
%TO.P,R4,1*%
%TO.N,/USB_DN*%
X143700000Y-134410000D03*
%TO.P,R4,2*%
%TO.N,Net-(U2-D-)*%
X143700000Y-133390000D03*
%TD*%
%TO.P,R3,2*%
%TO.N,Net-(U2-D+)*%
X144700000Y-133390000D03*
%TO.P,R3,1*%
%TO.N,/USB_DP*%
X144700000Y-134410000D03*
%TD*%
D14*
%TO.P,R1,1*%
%TO.N,Net-(P1-CC)*%
X139185000Y-131025000D03*
%TO.P,R1,2*%
%TO.N,GND*%
X138165000Y-131025000D03*
%TD*%
D26*
%TO.N,GND*%
X136580000Y-129880000D03*
X130481000Y-135855000D03*
%TO.N,Net-(U4-FB)*%
X131531000Y-138600000D03*
%TO.N,GND*%
X148250000Y-127750000D03*
X151250000Y-128000000D03*
X152250000Y-143000000D03*
X149750000Y-127750000D03*
X150500000Y-127750000D03*
X151250000Y-129500000D03*
X152250000Y-150500000D03*
X152250000Y-149000000D03*
X152250000Y-131000000D03*
X152250000Y-134750000D03*
X151250000Y-130250000D03*
X152250000Y-138500000D03*
X151250000Y-128750000D03*
X152250000Y-140750000D03*
X152250000Y-136250000D03*
X152250000Y-140000000D03*
X152250000Y-137000000D03*
X152250000Y-132500000D03*
X152250000Y-137750000D03*
X152250000Y-144500000D03*
X152250000Y-143750000D03*
X152250000Y-141500000D03*
X152250000Y-133250000D03*
X152250000Y-134000000D03*
X152250000Y-142250000D03*
X152250000Y-139250000D03*
X152250000Y-148250000D03*
X152250000Y-149750000D03*
X152250000Y-151250000D03*
X149000000Y-127750000D03*
X151250000Y-131000000D03*
X152250000Y-135500000D03*
X152250000Y-131750000D03*
X145250000Y-127750000D03*
X146000000Y-127750000D03*
X146750000Y-127750000D03*
X147500000Y-127750000D03*
X152250000Y-153500000D03*
X152250000Y-154250000D03*
X152250000Y-152000000D03*
X152250000Y-152750000D03*
X152250000Y-155000000D03*
X152250000Y-155750000D03*
X152250000Y-156500000D03*
X134750000Y-127750000D03*
X134000000Y-127750000D03*
X133250000Y-127750000D03*
X132500000Y-127750000D03*
X131750000Y-127750000D03*
X131000000Y-127750000D03*
X130250000Y-127750000D03*
X129500000Y-127750000D03*
X128750000Y-128000000D03*
X128750000Y-128750000D03*
X128750000Y-129500000D03*
X128750000Y-130250000D03*
X128750000Y-131000000D03*
X127750000Y-131000000D03*
X127750000Y-131750000D03*
X127750000Y-132500000D03*
X127750000Y-133250000D03*
X127750000Y-134000000D03*
X127750000Y-134750000D03*
X127750000Y-135500000D03*
X127750000Y-136250000D03*
X127750000Y-137000000D03*
X127750000Y-137750000D03*
X127750000Y-138500000D03*
X127750000Y-139250000D03*
X127750000Y-140000000D03*
X127750000Y-140750000D03*
X127750000Y-141500000D03*
X127750000Y-142250000D03*
X127750000Y-143000000D03*
X127750000Y-143750000D03*
X127750000Y-144500000D03*
X127750000Y-148250000D03*
X127750000Y-149000000D03*
X127750000Y-149750000D03*
X127750000Y-150500000D03*
X127750000Y-151250000D03*
X127750000Y-152000000D03*
X127750000Y-152750000D03*
X127750000Y-153500000D03*
X127750000Y-154250000D03*
X127750000Y-155000000D03*
X127750000Y-155750000D03*
X127750000Y-156500000D03*
X148120000Y-133950000D03*
%TO.N,Net-(P2-OUT)*%
X133900000Y-139900000D03*
%TO.N,GND*%
X140904981Y-140804890D03*
X147998000Y-140894113D03*
%TO.N,VCC*%
X132439000Y-140139000D03*
X139075000Y-140700000D03*
%TO.N,Net-(P3-IN)*%
X143275000Y-140252000D03*
%TO.N,Net-(U2-HID2)*%
X148500000Y-129700000D03*
%TO.N,Net-(U2-HID1)*%
X148475000Y-131700000D03*
%TO.N,Net-(U2-HID0)*%
X146475000Y-131700000D03*
%TO.N,/USB_DP*%
X144700000Y-134410000D03*
%TO.N,/USB_DN*%
X143700000Y-134410000D03*
%TO.N,VBUS*%
X142450000Y-130125000D03*
%TO.N,/USB_DP*%
X140000000Y-130250000D03*
%TO.N,Net-(U2-HID0)*%
X141625000Y-131500000D03*
%TO.N,Net-(U2-HID1)*%
X140975000Y-131525000D03*
%TO.N,VBUS*%
X138425000Y-130150000D03*
%TO.N,GND*%
X143400000Y-129875000D03*
%TO.N,Net-(U3-OUTL)*%
X148250000Y-145700000D03*
X147500000Y-135050000D03*
%TO.N,Net-(U3-OUTR)*%
X148150000Y-139375000D03*
%TO.N,Net-(C18-Pad1)*%
X139000000Y-145700000D03*
X133700000Y-137180000D03*
%TO.N,Net-(C19-Pad1)*%
X132700000Y-137180000D03*
%TO.N,GND*%
X131475000Y-137550000D03*
X130480000Y-133400000D03*
%TO.N,VBUS*%
X129520000Y-134445000D03*
X129520000Y-133400000D03*
%TO.N,VCC*%
X129525000Y-138595000D03*
X129600000Y-139800000D03*
%TO.N,/EN*%
X131550000Y-133425000D03*
%TO.N,VCCI*%
X131000000Y-139800000D03*
%TO.N,GND*%
X130480000Y-138600000D03*
X134700000Y-135280000D03*
X131700000Y-135280000D03*
%TO.N,Net-(U2-VINL)*%
X133700000Y-134290000D03*
%TO.N,Net-(U2-VINR)*%
X132700000Y-134290000D03*
%TO.N,Net-(U2-VINL)*%
X137075000Y-131900000D03*
%TO.N,Net-(U2-VINR)*%
X136425000Y-131900000D03*
%TO.N,/EN*%
X144225000Y-138900000D03*
%TO.N,VDDI*%
X143575000Y-138900000D03*
%TO.N,GND*%
X142925000Y-138900000D03*
%TO.N,Net-(U2-VOUTL)*%
X136425000Y-138900000D03*
%TO.N,Net-(U2-VOUTR)*%
X135775000Y-138900000D03*
%TO.N,GND*%
X135225000Y-140886500D03*
%TO.N,VCC*%
X144525000Y-140886500D03*
%TO.N,GND*%
X135800000Y-133380000D03*
%TO.N,Net-(U2-VCOM)*%
X135775000Y-131900000D03*
%TO.N,GND*%
X138400000Y-133380000D03*
X139700000Y-133380000D03*
X142700000Y-133380000D03*
%TO.N,/USB_DN*%
X140765859Y-130495094D03*
%TO.N,Net-(U2-D-)*%
X143700000Y-133410000D03*
%TO.N,VBUS*%
X142925000Y-131900000D03*
%TO.N,Net-(P1-CC)*%
X139200000Y-130200000D03*
%TO.N,VDDI*%
X139675000Y-131900000D03*
%TO.N,VCCI*%
X138375000Y-131900000D03*
%TO.N,GND*%
X137400000Y-135880000D03*
X142000000Y-134920000D03*
X140575000Y-134700000D03*
X138825000Y-136100000D03*
X137100000Y-137420000D03*
X138300000Y-137420000D03*
X141100000Y-137420000D03*
%TO.N,Net-(U2-VCCP1I)*%
X137075000Y-138900000D03*
%TO.N,Net-(U2-VCCXI)*%
X140975000Y-138900000D03*
%TO.N,Net-(U2-VCCP2I)*%
X138375000Y-138900000D03*
%TO.N,Net-(U2-XTO)*%
X139175000Y-137350000D03*
%TO.N,Net-(U2-XTI)*%
X140225000Y-137350000D03*
%TO.N,Net-(U2-VOUTR)*%
X146100000Y-138180000D03*
%TO.N,Net-(U2-VOUTL)*%
X146100000Y-135000000D03*
%TO.N,VBUS*%
X150650000Y-132950000D03*
%TO.N,VCC*%
X149250000Y-132950000D03*
%TO.N,Net-(JP3-C)*%
X149080000Y-133950000D03*
%TO.N,/EN*%
X149749999Y-134541398D03*
%TO.N,GND*%
X150400000Y-134020000D03*
%TO.N,Net-(U3-HPVDD)*%
X150400000Y-134980000D03*
%TO.N,Net-(U3-CPP)*%
X151100000Y-136349999D03*
%TO.N,Net-(U3-CPN)*%
X151100000Y-137350000D03*
%TO.N,Net-(U3-HPVSS)*%
X149700000Y-138037500D03*
%TO.N,GND*%
X149700000Y-139300000D03*
X150650000Y-141775000D03*
X150650000Y-140875000D03*
%TO.N,VCC*%
X148700000Y-141775000D03*
X148700000Y-140875000D03*
%TO.N,/G1*%
X149400000Y-141775000D03*
%TO.N,/G0*%
X149400000Y-140875000D03*
%TO.N,Net-(U2-D+)*%
X144700000Y-133400000D03*
%TO.N,Net-(U2-HID2)*%
X140325000Y-131500000D03*
%TD*%
D27*
%TO.N,Net-(U2-VCCXI)*%
X140975000Y-138505000D02*
X140975000Y-138900000D01*
X141100000Y-138380000D02*
X140975000Y-138505000D01*
%TO.N,VBUS*%
X142922621Y-132125873D02*
X142922621Y-131902379D01*
X142700000Y-132348494D02*
X142922621Y-132125873D01*
X142700000Y-132420000D02*
X142700000Y-132348494D01*
X142922621Y-131902379D02*
X142925000Y-131900000D01*
D28*
%TO.N,GND*%
X137250000Y-129210000D02*
X136580000Y-129880000D01*
D27*
%TO.N,VDDI*%
X139700000Y-131925000D02*
X139700000Y-132420000D01*
X139675000Y-131900000D02*
X139700000Y-131925000D01*
%TO.N,Net-(U3-CPP)*%
X150929932Y-136349999D02*
X150859931Y-136420000D01*
X151100000Y-136349999D02*
X150929932Y-136349999D01*
X150859931Y-136420000D02*
X150400000Y-136420000D01*
%TO.N,Net-(U3-CPN)*%
X151070000Y-137380000D02*
X151100000Y-137350000D01*
X150400000Y-137380000D02*
X151070000Y-137380000D01*
%TO.N,GND*%
X130235000Y-135855000D02*
X130481000Y-135855000D01*
X129490000Y-136600000D02*
X130235000Y-135855000D01*
%TO.N,VCC*%
X129490000Y-138560000D02*
X129525000Y-138595000D01*
X129490000Y-137600000D02*
X129490000Y-138560000D01*
%TO.N,Net-(U4-FB)*%
X130531000Y-137600000D02*
X131531000Y-138600000D01*
X130510000Y-137600000D02*
X130531000Y-137600000D01*
X130510000Y-136600000D02*
X130510000Y-137600000D01*
D28*
%TO.N,Net-(U2-HID1)*%
X140975000Y-131406123D02*
X140975000Y-131525000D01*
X141457123Y-130924000D02*
X140975000Y-131406123D01*
X147524000Y-130924000D02*
X141457123Y-130924000D01*
X148300000Y-131700000D02*
X147524000Y-130924000D01*
X148475000Y-131700000D02*
X148300000Y-131700000D01*
%TO.N,Net-(U2-HID0)*%
X145574000Y-131374000D02*
X141751000Y-131374000D01*
X145900000Y-131700000D02*
X145574000Y-131374000D01*
X146475000Y-131700000D02*
X145900000Y-131700000D01*
X141751000Y-131374000D02*
X141625000Y-131500000D01*
%TO.N,Net-(P2-OUT)*%
X136524500Y-139900000D02*
X133900000Y-139900000D01*
X137511000Y-140886500D02*
X136524500Y-139900000D01*
D27*
%TO.N,Net-(U2-D+)*%
X145296000Y-134718984D02*
X145296000Y-133986000D01*
X143341016Y-134956000D02*
X145058984Y-134956000D01*
X141710000Y-133324984D02*
X143341016Y-134956000D01*
X141710000Y-132500000D02*
X141710000Y-133324984D01*
X145058984Y-134956000D02*
X145296000Y-134718984D01*
X145296000Y-133986000D02*
X144700000Y-133390000D01*
D28*
%TO.N,GND*%
X147990387Y-140886500D02*
X147998000Y-140894113D01*
X146811000Y-140886500D02*
X147990387Y-140886500D01*
%TO.N,VCC*%
X132939000Y-140639000D02*
X132439000Y-140139000D01*
X132939000Y-140886500D02*
X132939000Y-140639000D01*
%TO.N,Net-(P3-IN)*%
X142640500Y-140886500D02*
X143275000Y-140252000D01*
X142239000Y-140886500D02*
X142640500Y-140886500D01*
%TO.N,GND*%
X137789000Y-131401000D02*
X137789000Y-132769000D01*
X138165000Y-131025000D02*
X137789000Y-131401000D01*
X137789000Y-132769000D02*
X138400000Y-133380000D01*
D27*
%TO.N,Net-(U2-D+)*%
X141710000Y-132500000D02*
X141710000Y-132180001D01*
D28*
%TO.N,GND*%
X142750000Y-129225000D02*
X143400000Y-129875000D01*
%TO.N,VBUS*%
X141250000Y-129846102D02*
X141250000Y-129040000D01*
X141522992Y-130119094D02*
X141250000Y-129846102D01*
X142450000Y-130125000D02*
X141957058Y-130125000D01*
X141951152Y-130119094D02*
X141522992Y-130119094D01*
X141957058Y-130125000D02*
X141951152Y-130119094D01*
X138750000Y-129825000D02*
X138425000Y-130150000D01*
X138750000Y-129040000D02*
X138750000Y-129825000D01*
D27*
%TO.N,Net-(C19-Pad2)*%
X132700000Y-135310000D02*
X132700000Y-136220000D01*
%TO.N,Net-(C18-Pad2)*%
X133700000Y-135310000D02*
X133700000Y-136220000D01*
%TO.N,Net-(U2-VINL)*%
X134670000Y-134290000D02*
X134700000Y-134320000D01*
X133700000Y-134290000D02*
X134670000Y-134290000D01*
%TO.N,Net-(U2-VINR)*%
X132670000Y-134320000D02*
X132700000Y-134290000D01*
X131700000Y-134320000D02*
X132670000Y-134320000D01*
%TO.N,Net-(U2-VCOM)*%
X135800000Y-131925000D02*
X135775000Y-131900000D01*
X135800000Y-132420000D02*
X135800000Y-131925000D01*
%TO.N,VDDI*%
X139780000Y-132500000D02*
X139700000Y-132420000D01*
X140690000Y-132500000D02*
X139780000Y-132500000D01*
%TO.N,Net-(P1-CC)*%
X139190000Y-130210000D02*
X139200000Y-130200000D01*
X139190000Y-131000000D02*
X139190000Y-130210000D01*
%TO.N,VCCI*%
X138400000Y-131925000D02*
X138375000Y-131900000D01*
X138400000Y-132420000D02*
X138400000Y-131925000D01*
%TO.N,Net-(U2-VCCP1I)*%
X137100000Y-138875000D02*
X137075000Y-138900000D01*
X137100000Y-138380000D02*
X137100000Y-138875000D01*
%TO.N,Net-(U2-VCCP2I)*%
X138300000Y-138825000D02*
X138375000Y-138900000D01*
X138300000Y-138380000D02*
X138300000Y-138825000D01*
%TO.N,Net-(U2-XTI)*%
X140795000Y-135880000D02*
X140575000Y-136100000D01*
X142000000Y-135880000D02*
X140795000Y-135880000D01*
%TO.N,Net-(U2-XTO)*%
X138605000Y-134920000D02*
X138825000Y-134700000D01*
X137400000Y-134920000D02*
X138605000Y-134920000D01*
X139190000Y-138400000D02*
X139190000Y-137365000D01*
X139190000Y-137365000D02*
X139175000Y-137350000D01*
X139676000Y-136849000D02*
X139175000Y-137350000D01*
X139676000Y-135551000D02*
X139676000Y-136849000D01*
X138825000Y-134700000D02*
X139676000Y-135551000D01*
%TO.N,Net-(U2-XTI)*%
X140210000Y-137365000D02*
X140225000Y-137350000D01*
X140210000Y-138400000D02*
X140210000Y-137365000D01*
X140575000Y-137000000D02*
X140225000Y-137350000D01*
X140575000Y-136100000D02*
X140575000Y-137000000D01*
%TO.N,Net-(U3-HPVSS)*%
X149700000Y-138320000D02*
X149700000Y-138037500D01*
%TO.N,GND*%
X149700000Y-139280000D02*
X149700000Y-139300000D01*
X150650000Y-141775000D02*
X150100000Y-141775000D01*
X150650000Y-140875000D02*
X150100000Y-140875000D01*
D29*
%TO.N,Net-(U2-D+)*%
X144700000Y-133410000D02*
X144700000Y-133400000D01*
D27*
%TO.N,/USB_DP*%
X140000000Y-130250000D02*
X140025000Y-130225000D01*
%TD*%
%TA.AperFunction,Conductor*%
%TO.N,GND*%
G36*
X151709640Y-127027027D02*
G01*
X151737135Y-127031381D01*
X151765425Y-127035862D01*
X151802320Y-127047849D01*
X151843850Y-127069010D01*
X151845757Y-127070395D01*
X151846981Y-127070662D01*
X151875235Y-127091813D01*
X151908186Y-127124764D01*
X151930990Y-127156150D01*
X151952149Y-127197677D01*
X151964137Y-127234573D01*
X151972973Y-127290357D01*
X151974500Y-127309756D01*
X151974500Y-130251555D01*
X151993931Y-130311355D01*
X152000000Y-130349674D01*
X152000000Y-130504192D01*
X152163227Y-130504192D01*
X152201546Y-130510261D01*
X152248446Y-130525500D01*
X152289438Y-130525500D01*
X152690243Y-130525500D01*
X152709640Y-130527027D01*
X152737135Y-130531381D01*
X152765425Y-130535862D01*
X152802320Y-130547849D01*
X152843850Y-130569010D01*
X152875235Y-130591813D01*
X152908186Y-130624764D01*
X152930990Y-130656150D01*
X152952149Y-130697677D01*
X152964137Y-130734573D01*
X152968856Y-130764369D01*
X152971450Y-130780746D01*
X152972973Y-130790357D01*
X152974500Y-130809756D01*
X152974500Y-156690243D01*
X152972973Y-156709642D01*
X152964137Y-156765426D01*
X152952149Y-156802322D01*
X152930990Y-156843849D01*
X152908186Y-156875235D01*
X152875235Y-156908186D01*
X152843849Y-156930990D01*
X152802322Y-156952149D01*
X152765426Y-156964137D01*
X152722164Y-156970989D01*
X152709640Y-156972973D01*
X152690243Y-156974500D01*
X151624000Y-156974500D01*
X151556961Y-156954815D01*
X151511206Y-156902011D01*
X151500000Y-156850500D01*
X151500000Y-147890939D01*
X151519685Y-147823900D01*
X151572489Y-147778145D01*
X151599872Y-147769892D01*
X151599805Y-147769612D01*
X151604530Y-147768477D01*
X151604534Y-147768477D01*
X151799219Y-147705220D01*
X151981610Y-147612287D01*
X152074590Y-147544732D01*
X152147213Y-147491971D01*
X152147215Y-147491968D01*
X152147219Y-147491966D01*
X152291966Y-147347219D01*
X152291968Y-147347215D01*
X152291971Y-147347213D01*
X152344732Y-147274590D01*
X152412287Y-147181610D01*
X152505220Y-146999219D01*
X152568477Y-146804534D01*
X152600500Y-146602352D01*
X152600500Y-146397648D01*
X152568477Y-146195466D01*
X152505220Y-146000781D01*
X152505218Y-146000778D01*
X152505218Y-146000776D01*
X152470193Y-145932036D01*
X152412287Y-145818390D01*
X152404556Y-145807749D01*
X152291971Y-145652786D01*
X152147213Y-145508028D01*
X151981613Y-145387715D01*
X151981612Y-145387714D01*
X151981610Y-145387713D01*
X151799219Y-145294780D01*
X151604534Y-145231523D01*
X151604531Y-145231522D01*
X151599794Y-145230385D01*
X151600036Y-145229373D01*
X151541455Y-145201593D01*
X151504532Y-145142277D01*
X151500000Y-145109060D01*
X151500000Y-132004192D01*
X150624000Y-132004192D01*
X150556961Y-131984507D01*
X150511206Y-131931703D01*
X150500000Y-131880192D01*
X150500000Y-128504192D01*
X144849500Y-128504192D01*
X144782461Y-128484507D01*
X144736706Y-128431703D01*
X144725500Y-128380192D01*
X144725500Y-127309756D01*
X144727027Y-127290359D01*
X144735862Y-127234575D01*
X144735863Y-127234573D01*
X144747848Y-127197680D01*
X144769011Y-127156146D01*
X144791810Y-127124767D01*
X144824767Y-127091810D01*
X144856146Y-127069011D01*
X144897680Y-127047848D01*
X144934566Y-127035863D01*
X144990370Y-127027025D01*
X145009757Y-127025500D01*
X151690243Y-127025500D01*
X151709640Y-127027027D01*
G37*
%TD.AperFunction*%
%TD*%
%TA.AperFunction,Conductor*%
%TO.N,GND*%
G36*
X135009640Y-127027027D02*
G01*
X135037135Y-127031381D01*
X135065425Y-127035862D01*
X135102320Y-127047849D01*
X135143850Y-127069010D01*
X135145757Y-127070395D01*
X135146981Y-127070662D01*
X135175235Y-127091813D01*
X135208186Y-127124764D01*
X135230990Y-127156150D01*
X135252149Y-127197677D01*
X135264137Y-127234573D01*
X135272973Y-127290357D01*
X135274500Y-127309756D01*
X135274500Y-128376000D01*
X135254815Y-128443039D01*
X135202011Y-128488794D01*
X135150500Y-128500000D01*
X129500000Y-128500000D01*
X129500000Y-131876000D01*
X129480315Y-131943039D01*
X129427511Y-131988794D01*
X129376000Y-132000000D01*
X128500000Y-132000000D01*
X128500000Y-145109060D01*
X128480315Y-145176099D01*
X128427511Y-145221854D01*
X128400139Y-145230106D01*
X128400206Y-145230385D01*
X128395468Y-145231522D01*
X128200778Y-145294781D01*
X128018386Y-145387715D01*
X127852786Y-145508028D01*
X127708028Y-145652786D01*
X127587715Y-145818386D01*
X127494781Y-146000776D01*
X127431522Y-146195465D01*
X127399500Y-146397648D01*
X127399500Y-146602351D01*
X127431522Y-146804534D01*
X127494781Y-146999223D01*
X127587715Y-147181613D01*
X127708028Y-147347213D01*
X127852786Y-147491971D01*
X128007749Y-147604556D01*
X128018390Y-147612287D01*
X128200781Y-147705220D01*
X128351427Y-147754167D01*
X128395462Y-147768476D01*
X128400195Y-147769612D01*
X128399951Y-147770626D01*
X128458528Y-147798391D01*
X128495462Y-147857701D01*
X128500000Y-147890939D01*
X128500000Y-156850500D01*
X128480315Y-156917539D01*
X128427511Y-156963294D01*
X128376000Y-156974500D01*
X127309757Y-156974500D01*
X127290359Y-156972973D01*
X127273850Y-156970358D01*
X127234573Y-156964137D01*
X127197677Y-156952149D01*
X127156150Y-156930990D01*
X127124764Y-156908186D01*
X127091813Y-156875235D01*
X127069009Y-156843849D01*
X127047850Y-156802322D01*
X127035862Y-156765424D01*
X127027027Y-156709640D01*
X127025500Y-156690243D01*
X127025500Y-130809756D01*
X127027027Y-130790359D01*
X127035862Y-130734575D01*
X127047848Y-130697680D01*
X127069011Y-130656146D01*
X127091810Y-130624767D01*
X127124767Y-130591810D01*
X127156146Y-130569011D01*
X127197680Y-130547848D01*
X127234566Y-130535863D01*
X127290370Y-130527025D01*
X127309757Y-130525500D01*
X127751553Y-130525500D01*
X127751554Y-130525500D01*
X127811355Y-130506068D01*
X127849674Y-130500000D01*
X128000000Y-130500000D01*
X128000000Y-130349674D01*
X128006069Y-130311355D01*
X128014689Y-130284825D01*
X128025500Y-130251554D01*
X128025500Y-130200000D01*
X128025500Y-130191715D01*
X128025500Y-127309756D01*
X128027027Y-127290359D01*
X128035862Y-127234575D01*
X128035863Y-127234573D01*
X128047848Y-127197680D01*
X128069011Y-127156146D01*
X128091810Y-127124767D01*
X128124767Y-127091810D01*
X128156146Y-127069011D01*
X128197680Y-127047848D01*
X128234566Y-127035863D01*
X128290370Y-127027025D01*
X128309757Y-127025500D01*
X134990243Y-127025500D01*
X135009640Y-127027027D01*
G37*
%TD.AperFunction*%
%TD*%
M02*
